G04 #@! TF.GenerationSoftware,KiCad,Pcbnew,(5.1.4)-1*
G04 #@! TF.CreationDate,2020-08-10T14:14:39+08:00*
G04 #@! TF.ProjectId,BentoPad,42656e74-6f50-4616-942e-6b696361645f,rev?*
G04 #@! TF.SameCoordinates,Original*
G04 #@! TF.FileFunction,Copper,L2,Bot*
G04 #@! TF.FilePolarity,Positive*
%FSLAX46Y46*%
G04 Gerber Fmt 4.6, Leading zero omitted, Abs format (unit mm)*
G04 Created by KiCad (PCBNEW (5.1.4)-1) date 2020-08-10 14:14:39*
%MOMM*%
%LPD*%
G04 APERTURE LIST*
%ADD10O,1.400000X1.400000*%
%ADD11C,1.400000*%
%ADD12R,0.800000X0.900000*%
%ADD13R,1.905000X1.905000*%
%ADD14C,1.905000*%
%ADD15C,2.250000*%
%ADD16C,2.000000*%
%ADD17R,3.200000X2.000000*%
%ADD18R,2.000000X2.000000*%
%ADD19C,1.752600*%
%ADD20R,1.752600X1.752600*%
%ADD21R,1.000000X1.000000*%
%ADD22O,1.000000X1.000000*%
%ADD23C,0.800000*%
%ADD24C,0.381000*%
G04 APERTURE END LIST*
D10*
X66730000Y-59230000D03*
D11*
X61650000Y-59230000D03*
D10*
X47780000Y-60800000D03*
D11*
X42700000Y-60800000D03*
D12*
X64070000Y-63410000D03*
X65020000Y-61410000D03*
X63120000Y-61410000D03*
D11*
X51380000Y-46240000D03*
D10*
X56460000Y-46240000D03*
D11*
X52790000Y-65290000D03*
D10*
X57870000Y-65290000D03*
D11*
X77920000Y-65300000D03*
D10*
X83000000Y-65300000D03*
D11*
X33740000Y-46250000D03*
D10*
X38820000Y-46250000D03*
D11*
X33740000Y-65300000D03*
D10*
X38820000Y-65300000D03*
D13*
X77920000Y-60855000D03*
D14*
X75380000Y-60855000D03*
D15*
X72840000Y-53235000D03*
X79190000Y-50695000D03*
D13*
X52795000Y-60855000D03*
D14*
X50255000Y-60855000D03*
D15*
X47715000Y-53235000D03*
X54065000Y-50695000D03*
D13*
X33745000Y-60855000D03*
D14*
X31205000Y-60855000D03*
D15*
X28665000Y-53235000D03*
X35015000Y-50695000D03*
D13*
X52795000Y-41805000D03*
D14*
X50255000Y-41805000D03*
D15*
X47715000Y-34185000D03*
X54065000Y-31645000D03*
D13*
X33745000Y-41805000D03*
D14*
X31205000Y-41805000D03*
D15*
X28665000Y-34185000D03*
X35015000Y-31645000D03*
D16*
X83650000Y-38350000D03*
X83650000Y-33350000D03*
D17*
X76650000Y-41450000D03*
X76650000Y-30250000D03*
D16*
X69150000Y-38350000D03*
X69150000Y-35850000D03*
D18*
X69150000Y-33350000D03*
D16*
X40500000Y-27200000D03*
X34000000Y-27200000D03*
D19*
X43676400Y-28980000D03*
X58916400Y-56920000D03*
X44133600Y-31520000D03*
X43676400Y-34060000D03*
X44133600Y-36600000D03*
X43676400Y-39140000D03*
X44133600Y-41680000D03*
X43676400Y-44220000D03*
X44133600Y-46760000D03*
X43676400Y-49300000D03*
X44133600Y-51840000D03*
X43676400Y-54380000D03*
X44133600Y-56920000D03*
X59373600Y-54380000D03*
X58916400Y-51840000D03*
X59373600Y-49300000D03*
X58916400Y-46760000D03*
X59373600Y-44220000D03*
X58916400Y-41680000D03*
X59373600Y-39140000D03*
X58916400Y-36600000D03*
X59373600Y-34060000D03*
X58916400Y-31520000D03*
D20*
X59373600Y-28980000D03*
D21*
X64450000Y-28980000D03*
D22*
X64450000Y-30250000D03*
X64450000Y-31520000D03*
D23*
X46530000Y-43060000D03*
X36730000Y-33590000D03*
X45710000Y-42480000D03*
D24*
X52451196Y-31645000D02*
X51326197Y-30520001D01*
X54065000Y-31645000D02*
X52451196Y-31645000D01*
X44133600Y-31520000D02*
X45302224Y-31520000D01*
X46302223Y-30520001D02*
X51326197Y-30520001D01*
X45302224Y-31520000D02*
X46302223Y-30520001D01*
X35755000Y-31645000D02*
X35015000Y-31645000D01*
X36315790Y-32205790D02*
X35755000Y-31645000D01*
X43720000Y-31520000D02*
X43034210Y-32205790D01*
X44133600Y-31520000D02*
X43720000Y-31520000D01*
X43034210Y-32205790D02*
X36315790Y-32205790D01*
X82235787Y-33350000D02*
X83650000Y-33350000D01*
X79735787Y-35850000D02*
X82235787Y-33350000D01*
X73083804Y-35850000D02*
X79735787Y-35850000D01*
X71873804Y-37060000D02*
X73083804Y-35850000D01*
X70360000Y-37060000D02*
X71873804Y-37060000D01*
X69150000Y-35850000D02*
X70360000Y-37060000D01*
X65020000Y-60940000D02*
X66730000Y-59230000D01*
X65020000Y-61410000D02*
X65020000Y-60940000D01*
X59373600Y-28980000D02*
X61143804Y-28980000D01*
X62413804Y-30250000D02*
X64450000Y-30250000D01*
X61143804Y-28980000D02*
X62413804Y-30250000D01*
X45382309Y-35122691D02*
X45382309Y-33092308D01*
X45382309Y-35351291D02*
X45382309Y-33092308D01*
X44133600Y-36600000D02*
X45382309Y-35351291D01*
X46786196Y-31688421D02*
X45382309Y-33092308D01*
X64450000Y-31520000D02*
X63950001Y-31020001D01*
X63950001Y-31020001D02*
X63940001Y-31020001D01*
X53108014Y-33954210D02*
X50842225Y-31688421D01*
X63940001Y-31020001D02*
X63754210Y-30834210D01*
X63754210Y-30834210D02*
X62424210Y-30834210D01*
X62424210Y-30834210D02*
X60468420Y-32790000D01*
X50842225Y-31688421D02*
X46786196Y-31688421D01*
X60468420Y-32790000D02*
X56186196Y-32790000D01*
X55021987Y-33954210D02*
X53108014Y-33954210D01*
X56186196Y-32790000D02*
X55021987Y-33954210D01*
X31205000Y-40457962D02*
X32012962Y-39650000D01*
X31205000Y-41805000D02*
X31205000Y-40457962D01*
X41083600Y-39650000D02*
X44133600Y-36600000D01*
X32012962Y-39650000D02*
X41083600Y-39650000D01*
X31205000Y-60855000D02*
X32750000Y-62400000D01*
X48710000Y-62400000D02*
X50255000Y-60855000D01*
X32750000Y-62400000D02*
X48710000Y-62400000D01*
X50255000Y-60855000D02*
X51810000Y-62410000D01*
X73825000Y-62410000D02*
X75380000Y-60855000D01*
X51810000Y-62410000D02*
X73825000Y-62410000D01*
X34905000Y-34185000D02*
X28665000Y-34185000D01*
X36300000Y-32790000D02*
X34905000Y-34185000D01*
X51084211Y-31104211D02*
X46544209Y-31104211D01*
X46544209Y-31104211D02*
X44858420Y-32790000D01*
X58916400Y-31520000D02*
X58790000Y-31520000D01*
X58790000Y-31520000D02*
X58104210Y-32205790D01*
X44858420Y-32790000D02*
X36300000Y-32790000D01*
X58104210Y-32205790D02*
X55944209Y-32205790D01*
X55944209Y-32205790D02*
X54780000Y-33370000D01*
X54780000Y-33370000D02*
X53350000Y-33370000D01*
X53350000Y-33370000D02*
X51084211Y-31104211D01*
X46530000Y-43060000D02*
X46560000Y-43060000D01*
X47458117Y-42850509D02*
X49136026Y-44528420D01*
X57448535Y-43534210D02*
X55478184Y-43534210D01*
X59373600Y-44220000D02*
X58134325Y-44220000D01*
X58134325Y-44220000D02*
X57448535Y-43534210D01*
X54483974Y-44528420D02*
X55478184Y-43534210D01*
X49136026Y-44528420D02*
X54483974Y-44528420D01*
X46589491Y-42850509D02*
X47458117Y-42850509D01*
X46530000Y-43060000D02*
X46530000Y-42910000D01*
X46530000Y-42910000D02*
X46589491Y-42850509D01*
X58116196Y-49290000D02*
X56856196Y-48030000D01*
X58124325Y-49290000D02*
X58116196Y-49290000D01*
X58134325Y-49300000D02*
X58124325Y-49290000D01*
X59373600Y-49300000D02*
X58134325Y-49300000D01*
X37665000Y-53235000D02*
X42870000Y-48030000D01*
X28665000Y-53235000D02*
X37665000Y-53235000D01*
X56856196Y-48030000D02*
X42870000Y-48030000D01*
X45140000Y-50833600D02*
X44133600Y-51840000D01*
X58570000Y-50570000D02*
X56614210Y-48614210D01*
X56614210Y-48614210D02*
X45795790Y-48614210D01*
X45795790Y-48614210D02*
X45140000Y-49270000D01*
X45140000Y-49270000D02*
X45140000Y-50833600D01*
X70175000Y-50570000D02*
X72840000Y-53235000D01*
X58570000Y-50570000D02*
X70175000Y-50570000D01*
X42437125Y-34060000D02*
X41751335Y-33374210D01*
X43676400Y-34060000D02*
X42437125Y-34060000D01*
X36730000Y-33590000D02*
X36750000Y-33590000D01*
X36930000Y-33590000D02*
X37145790Y-33374210D01*
X36730000Y-33590000D02*
X36930000Y-33590000D01*
X37145790Y-33374210D02*
X41751335Y-33374210D01*
X83650000Y-38350000D02*
X81640000Y-38350000D01*
X81640000Y-38350000D02*
X79724210Y-36434210D01*
X79724210Y-36434210D02*
X73325790Y-36434210D01*
X73325790Y-36434210D02*
X68765790Y-40994210D01*
X45710000Y-42480000D02*
X45955685Y-42480000D01*
X55236196Y-42950000D02*
X54241987Y-43944210D01*
X49378013Y-43944210D02*
X47700103Y-42266299D01*
X59730000Y-42950000D02*
X55236196Y-42950000D01*
X61685790Y-40994210D02*
X59730000Y-42950000D01*
X47700103Y-42266299D02*
X45923701Y-42266299D01*
X45923701Y-42266299D02*
X45710000Y-42480000D01*
X68765790Y-40994210D02*
X61685790Y-40994210D01*
X54241987Y-43944210D02*
X49378013Y-43944210D01*
X54994209Y-42365790D02*
X56134210Y-42365790D01*
X68504213Y-40410000D02*
X69150000Y-39764213D01*
X56134210Y-42365790D02*
X58090000Y-40410000D01*
X54000000Y-43360000D02*
X54994209Y-42365790D01*
X44133600Y-41680000D02*
X47940000Y-41680000D01*
X58090000Y-40410000D02*
X68504213Y-40410000D01*
X69150000Y-39764213D02*
X69150000Y-38350000D01*
X47940000Y-41680000D02*
X49620000Y-43360000D01*
X49620000Y-43360000D02*
X54000000Y-43360000D01*
X61979000Y-39140000D02*
X61050000Y-39140000D01*
X67769000Y-33350000D02*
X61979000Y-39140000D01*
X69150000Y-33350000D02*
X67769000Y-33350000D01*
X59373600Y-39140000D02*
X61050000Y-39140000D01*
X38820000Y-65300000D02*
X50950000Y-65300000D01*
X50950000Y-65300000D02*
X52250000Y-64000000D01*
X52250000Y-64000000D02*
X53320000Y-64000000D01*
X54610000Y-65290000D02*
X57870000Y-65290000D01*
X53320000Y-64000000D02*
X54610000Y-65290000D01*
X63289000Y-63410000D02*
X61409000Y-65290000D01*
X64070000Y-63410000D02*
X63289000Y-63410000D01*
X57870000Y-65290000D02*
X61409000Y-65290000D01*
X64851000Y-63410000D02*
X64070000Y-63410000D01*
X82099949Y-63410000D02*
X64851000Y-63410000D01*
X83000000Y-64310051D02*
X82099949Y-63410000D01*
X83000000Y-65300000D02*
X83000000Y-64310051D01*
X63120000Y-60700000D02*
X61650000Y-59230000D01*
X63120000Y-61410000D02*
X63120000Y-60700000D01*
X49350000Y-59230000D02*
X61650000Y-59230000D01*
X47780000Y-60800000D02*
X49350000Y-59230000D01*
M02*
