M48
; DRILL file {KiCad (5.1.4)-1} date 8/10/2020 2:14:41 PM
; FORMAT={-:-/ absolute / inch / decimal}
; #@! TF.CreationDate,2020-08-10T14:14:41+08:00
; #@! TF.GenerationSoftware,Kicad,Pcbnew,(5.1.4)-1
FMAT,2
INCH
T1C0.0157
T2C0.0256
T3C0.0276
T4C0.0394
T5C0.0409
T6C0.0430
T7C0.0433
T8C0.0492
T9C0.0579
T10C0.0591
T11C0.0689
T12C0.1570
%
G90
G05
T1
X1.4461Y-1.3224
X1.7996Y-1.6724
X1.8319Y-1.6953
T2
X2.5374Y-1.1409
X2.5374Y-1.1909
X2.5374Y-1.2409
T3
X3.0677Y-2.5709
X3.2677Y-2.5709
X2.4272Y-2.3319
X2.6272Y-2.3319
X2.0228Y-1.8205
X2.2228Y-1.8205
X1.6811Y-2.3937
X1.8811Y-2.3937
X2.0783Y-2.5705
X2.2783Y-2.5705
X1.3283Y-2.5709
X1.5283Y-2.5709
X1.3283Y-1.8209
X1.5283Y-1.8209
T4
X2.7224Y-1.313
X2.7224Y-1.4114
X2.7224Y-1.5098
X3.2933Y-1.313
X3.2933Y-1.5098
T5
X1.9785Y-1.6459
X2.0785Y-1.6459
X1.2285Y-1.6459
X1.3285Y-1.6459
X2.9677Y-2.3959
X3.0677Y-2.3959
X1.9785Y-2.3959
X2.0785Y-2.3959
X1.2285Y-2.3959
X1.3285Y-2.3959
T6
X1.7195Y-1.1409
X1.7195Y-1.3409
X1.7195Y-1.5409
X1.7195Y-1.7409
X1.7195Y-1.9409
X1.7195Y-2.1409
X1.7375Y-1.2409
X1.7375Y-1.4409
X1.7375Y-1.6409
X1.7375Y-1.8409
X1.7375Y-2.0409
X1.7375Y-2.2409
X2.3195Y-1.2409
X2.3195Y-1.4409
X2.3195Y-1.6409
X2.3195Y-1.8409
X2.3195Y-2.0409
X2.3195Y-2.2409
X2.3375Y-1.1409
X2.3375Y-1.3409
X2.3375Y-1.5409
X2.3375Y-1.7409
X2.3375Y-1.9409
X2.3375Y-2.1409
T7
X1.5945Y-1.0709
T8
X1.3386Y-1.0709
T9
X1.8785Y-1.3459
X2.1285Y-1.2459
X1.1285Y-1.3459
X1.3785Y-1.2459
X2.8677Y-2.0959
X3.1177Y-1.9959
X1.8785Y-2.0959
X2.1285Y-1.9959
X1.1285Y-2.0959
X1.3785Y-1.9959
T11
X1.8285Y-1.4459
X2.2285Y-1.4459
X1.0785Y-1.4459
X1.4785Y-1.4459
X2.8177Y-2.1959
X3.2177Y-2.1959
X1.8285Y-2.1959
X2.2285Y-2.1959
X1.0785Y-2.1959
X1.4785Y-2.1959
T12
X2.0285Y-1.4459
X1.2785Y-1.4459
X3.0177Y-2.1959
X2.0285Y-2.1959
X1.2785Y-2.1959
T10
G00X2.9921Y-1.1909
M15
G01X3.0433Y-1.1909
M16
G05
G00X2.9921Y-1.6319
M15
G01X3.0433Y-1.6319
M16
G05
T0
M30
