G04 #@! TF.GenerationSoftware,KiCad,Pcbnew,(5.1.4)-1*
G04 #@! TF.CreationDate,2020-08-10T14:14:39+08:00*
G04 #@! TF.ProjectId,BentoPad,42656e74-6f50-4616-942e-6b696361645f,rev?*
G04 #@! TF.SameCoordinates,Original*
G04 #@! TF.FileFunction,Legend,Top*
G04 #@! TF.FilePolarity,Positive*
%FSLAX46Y46*%
G04 Gerber Fmt 4.6, Leading zero omitted, Abs format (unit mm)*
G04 Created by KiCad (PCBNEW (5.1.4)-1) date 2020-08-10 14:14:39*
%MOMM*%
%LPD*%
G04 APERTURE LIST*
%ADD10C,0.010000*%
G04 APERTURE END LIST*
D10*
G36*
X37259104Y-28114962D02*
G01*
X37380477Y-28264889D01*
X37474333Y-28494678D01*
X37511176Y-28654000D01*
X37537388Y-28792484D01*
X37583177Y-29025128D01*
X37645244Y-29335547D01*
X37720288Y-29707356D01*
X37805008Y-30124168D01*
X37896105Y-30569599D01*
X37943211Y-30798889D01*
X38130128Y-31708025D01*
X38309608Y-32582432D01*
X38479222Y-33410230D01*
X38636542Y-34179537D01*
X38779140Y-34878473D01*
X38904586Y-35495156D01*
X39010452Y-36017706D01*
X39045085Y-36189334D01*
X39105769Y-36489102D01*
X39183363Y-36870323D01*
X39271920Y-37303896D01*
X39365493Y-37760722D01*
X39458135Y-38211702D01*
X39494985Y-38390667D01*
X39586508Y-38836051D01*
X39682304Y-39304409D01*
X39776175Y-39765289D01*
X39861924Y-40188243D01*
X39933355Y-40542819D01*
X39955710Y-40654572D01*
X40131463Y-41535588D01*
X40364176Y-41406671D01*
X41529792Y-40761113D01*
X42599635Y-40168942D01*
X43576547Y-39628595D01*
X44463368Y-39138514D01*
X45262942Y-38697139D01*
X45978109Y-38302908D01*
X46611711Y-37954263D01*
X47166590Y-37649642D01*
X47645587Y-37387487D01*
X48051545Y-37166236D01*
X48387304Y-36984329D01*
X48655706Y-36840207D01*
X48859593Y-36732310D01*
X49001807Y-36659076D01*
X49082160Y-36620286D01*
X49672467Y-36403605D01*
X50335503Y-36240115D01*
X51043231Y-36132119D01*
X51767611Y-36081919D01*
X52480606Y-36091817D01*
X53154176Y-36164115D01*
X53579111Y-36251036D01*
X53679231Y-36280933D01*
X53879724Y-36345082D01*
X54174466Y-36441407D01*
X54557333Y-36567834D01*
X55022203Y-36722288D01*
X55562950Y-36902693D01*
X56173453Y-37106974D01*
X56847586Y-37333056D01*
X57579226Y-37578864D01*
X58362250Y-37842322D01*
X59190534Y-38121356D01*
X60057954Y-38413890D01*
X60958386Y-38717850D01*
X61885708Y-39031159D01*
X62833794Y-39351744D01*
X63796522Y-39677528D01*
X64767767Y-40006436D01*
X65741407Y-40336394D01*
X66711317Y-40665326D01*
X67671374Y-40991158D01*
X68615454Y-41311813D01*
X69537433Y-41625217D01*
X70431188Y-41929294D01*
X71290595Y-42221970D01*
X72109530Y-42501169D01*
X72881870Y-42764817D01*
X73601490Y-43010837D01*
X74262269Y-43237155D01*
X74858080Y-43441696D01*
X75382802Y-43622384D01*
X75830310Y-43777144D01*
X76194480Y-43903902D01*
X76469189Y-44000582D01*
X76648314Y-44065108D01*
X76721333Y-44093343D01*
X77097556Y-44306268D01*
X77408319Y-44575022D01*
X77619438Y-44860342D01*
X77765556Y-45121774D01*
X77765556Y-48436464D01*
X77764501Y-49262933D01*
X77761329Y-49977099D01*
X77756031Y-50579529D01*
X77748597Y-51070792D01*
X77739016Y-51451454D01*
X77727279Y-51722083D01*
X77713377Y-51883244D01*
X77704751Y-51925580D01*
X77629748Y-52041783D01*
X77481479Y-52199907D01*
X77281948Y-52381308D01*
X77053157Y-52567344D01*
X76817109Y-52739372D01*
X76595807Y-52878751D01*
X76550324Y-52903691D01*
X76449118Y-52958493D01*
X76256427Y-53064006D01*
X75978226Y-53216924D01*
X75620488Y-53413940D01*
X75189186Y-53651747D01*
X74690295Y-53927041D01*
X74129787Y-54236514D01*
X73513636Y-54576861D01*
X72847816Y-54944775D01*
X72138300Y-55336950D01*
X71391061Y-55750079D01*
X70612074Y-56180857D01*
X69807311Y-56625977D01*
X68982747Y-57082134D01*
X68144355Y-57546020D01*
X67298107Y-58014330D01*
X66449979Y-58483757D01*
X65605943Y-58950995D01*
X64771973Y-59412738D01*
X63954042Y-59865680D01*
X63158125Y-60306514D01*
X62390194Y-60731935D01*
X61656222Y-61138635D01*
X60962185Y-61523310D01*
X60314054Y-61882652D01*
X59717804Y-62213355D01*
X59179408Y-62512113D01*
X58704840Y-62775621D01*
X58300073Y-63000571D01*
X57971081Y-63183657D01*
X57723837Y-63321574D01*
X57564315Y-63411014D01*
X57502000Y-63446546D01*
X57328398Y-63540078D01*
X57105978Y-63647100D01*
X56868240Y-63752948D01*
X56648682Y-63842958D01*
X56480805Y-63902466D01*
X56430900Y-63915415D01*
X56315841Y-63967246D01*
X56276315Y-63997664D01*
X56173988Y-64050074D01*
X55991568Y-64107305D01*
X55761228Y-64162357D01*
X55515141Y-64208230D01*
X55285483Y-64237925D01*
X55137902Y-64245348D01*
X54982147Y-64245721D01*
X54744453Y-64247932D01*
X54455749Y-64251628D01*
X54146966Y-64256456D01*
X54111514Y-64257069D01*
X53817074Y-64259257D01*
X53553379Y-64255777D01*
X53346127Y-64247349D01*
X53221016Y-64234692D01*
X53208403Y-64231799D01*
X53090419Y-64203285D01*
X52897349Y-64161430D01*
X52665023Y-64113924D01*
X52591333Y-64099389D01*
X52364909Y-64050256D01*
X52177684Y-64000655D01*
X52060214Y-63959008D01*
X52041000Y-63947679D01*
X51981191Y-63922373D01*
X51970445Y-63960000D01*
X51946908Y-63999976D01*
X51899889Y-63971849D01*
X51840321Y-63948288D01*
X51678820Y-63890234D01*
X51420382Y-63799398D01*
X51070000Y-63677487D01*
X50632669Y-63526213D01*
X50113383Y-63347285D01*
X49517137Y-63142412D01*
X48848924Y-62913305D01*
X48113739Y-62661672D01*
X47316577Y-62389224D01*
X46462432Y-62097671D01*
X45556297Y-61788722D01*
X44603168Y-61464086D01*
X43608039Y-61125475D01*
X42575903Y-60774596D01*
X41511756Y-60413160D01*
X40661947Y-60124752D01*
X39572374Y-59754850D01*
X38508785Y-59393278D01*
X37476325Y-59041805D01*
X36480136Y-58702199D01*
X35525363Y-58376230D01*
X34617150Y-58065666D01*
X33760640Y-57772276D01*
X32960977Y-57497828D01*
X32223306Y-57244091D01*
X31552769Y-57012835D01*
X30954511Y-56805828D01*
X30433675Y-56624838D01*
X29995405Y-56471635D01*
X29644846Y-56347987D01*
X29387141Y-56255663D01*
X29227434Y-56196432D01*
X29175424Y-56174975D01*
X28963514Y-56046306D01*
X28736609Y-55873731D01*
X28520495Y-55680859D01*
X28340959Y-55491297D01*
X28223787Y-55328652D01*
X28203202Y-55284911D01*
X28192941Y-55202168D01*
X28183453Y-55015980D01*
X28174887Y-54735791D01*
X28167391Y-54371042D01*
X28161114Y-53931177D01*
X28156204Y-53425638D01*
X28152811Y-52863868D01*
X28151084Y-52255310D01*
X28150889Y-51963824D01*
X28150889Y-49594609D01*
X28800000Y-49594609D01*
X28828222Y-52219416D01*
X28835219Y-52862359D01*
X28842103Y-53402546D01*
X28850219Y-53850101D01*
X28860909Y-54215148D01*
X28875520Y-54507810D01*
X28895394Y-54738211D01*
X28921876Y-54916475D01*
X28956310Y-55052725D01*
X29000041Y-55157085D01*
X29054412Y-55239678D01*
X29120769Y-55310629D01*
X29200454Y-55380061D01*
X29253721Y-55423964D01*
X29407161Y-55524093D01*
X29638839Y-55632954D01*
X29960309Y-55755483D01*
X30290844Y-55866970D01*
X30561710Y-55955594D01*
X30917711Y-56073336D01*
X31337126Y-56212903D01*
X31798236Y-56367004D01*
X32279319Y-56528347D01*
X32758654Y-56689640D01*
X33214521Y-56843591D01*
X33625198Y-56982909D01*
X33968966Y-57100301D01*
X34134000Y-57157153D01*
X34313359Y-57218805D01*
X34584858Y-57311516D01*
X34941780Y-57433015D01*
X35377409Y-57581034D01*
X35885026Y-57753302D01*
X36457914Y-57947551D01*
X37089357Y-58161511D01*
X37772637Y-58392913D01*
X38501036Y-58639487D01*
X39267838Y-58898964D01*
X40066325Y-59169074D01*
X40889779Y-59447548D01*
X41731485Y-59732117D01*
X42584724Y-60020511D01*
X43442779Y-60310461D01*
X44298934Y-60599698D01*
X45146470Y-60885952D01*
X45978670Y-61166953D01*
X46788818Y-61440432D01*
X47570196Y-61704120D01*
X48316086Y-61955748D01*
X49019772Y-62193046D01*
X49674536Y-62413744D01*
X50273661Y-62615573D01*
X50810430Y-62796265D01*
X51278126Y-62953548D01*
X51670030Y-63085155D01*
X51979427Y-63188815D01*
X52199599Y-63262260D01*
X52323828Y-63303219D01*
X52349849Y-63311331D01*
X52441925Y-63333021D01*
X52464333Y-63341848D01*
X52523305Y-63364278D01*
X52534889Y-63367334D01*
X52628488Y-63393377D01*
X52633667Y-63395011D01*
X52726369Y-63418209D01*
X52732445Y-63419404D01*
X52832105Y-63450255D01*
X52873556Y-63466907D01*
X53032711Y-63525307D01*
X53210443Y-63565910D01*
X53427573Y-63590606D01*
X53704920Y-63601285D01*
X54063307Y-63599838D01*
X54284667Y-63595022D01*
X54692563Y-63580849D01*
X55010331Y-63560485D01*
X55260667Y-63531571D01*
X55466265Y-63491748D01*
X55582889Y-63460040D01*
X55914238Y-63355034D01*
X56170677Y-63260717D01*
X56387388Y-63162800D01*
X56598889Y-63047380D01*
X56699950Y-62989823D01*
X56886224Y-62885190D01*
X57144125Y-62741023D01*
X57460070Y-62564864D01*
X57820474Y-62364252D01*
X58211752Y-62146731D01*
X58620320Y-61919842D01*
X59032593Y-61691126D01*
X59434987Y-61468125D01*
X59813917Y-61258379D01*
X60155799Y-61069432D01*
X60447049Y-60908824D01*
X60674081Y-60784097D01*
X60775778Y-60728558D01*
X60975970Y-60619060D01*
X61256415Y-60464805D01*
X61603374Y-60273415D01*
X62003106Y-60052512D01*
X62441870Y-59809719D01*
X62905926Y-59552657D01*
X63381533Y-59288949D01*
X63854950Y-59026218D01*
X64312438Y-58772084D01*
X64740255Y-58534172D01*
X65124661Y-58320102D01*
X65451915Y-58137497D01*
X65708278Y-57993979D01*
X65880007Y-57897170D01*
X65884000Y-57894902D01*
X66187036Y-57724093D01*
X66543474Y-57525435D01*
X66907260Y-57324487D01*
X67210445Y-57158696D01*
X67758828Y-56859910D01*
X68345238Y-56538739D01*
X68961567Y-56199730D01*
X69599708Y-55847433D01*
X70251552Y-55486396D01*
X70908992Y-55121169D01*
X71563920Y-54756300D01*
X72208228Y-54396337D01*
X72833809Y-54045830D01*
X73432554Y-53709328D01*
X73996356Y-53391378D01*
X74517107Y-53096530D01*
X74986700Y-52829333D01*
X75397026Y-52594335D01*
X75739978Y-52396085D01*
X76007448Y-52239132D01*
X76191328Y-52128024D01*
X76278006Y-52071458D01*
X76484195Y-51910022D01*
X76673034Y-51744183D01*
X76810987Y-51603862D01*
X76834951Y-51574507D01*
X76905787Y-51479235D01*
X76964702Y-51388431D01*
X77012805Y-51291100D01*
X77051208Y-51176249D01*
X77081019Y-51032881D01*
X77103350Y-50850002D01*
X77119311Y-50616617D01*
X77130012Y-50321731D01*
X77136562Y-49954350D01*
X77140073Y-49503479D01*
X77141654Y-48958123D01*
X77142189Y-48531813D01*
X77144667Y-46114070D01*
X76933000Y-46275138D01*
X76742795Y-46407503D01*
X76538097Y-46532625D01*
X76495556Y-46555929D01*
X76401534Y-46606937D01*
X76215380Y-46709000D01*
X75943708Y-46858460D01*
X75593130Y-47051658D01*
X75170258Y-47284936D01*
X74681704Y-47554636D01*
X74134081Y-47857098D01*
X73534002Y-48188664D01*
X72888078Y-48545677D01*
X72202922Y-48924476D01*
X71485147Y-49321404D01*
X70741366Y-49732803D01*
X69978189Y-50155013D01*
X69202231Y-50584377D01*
X68420103Y-51017235D01*
X67638418Y-51449930D01*
X66863788Y-51878803D01*
X66102826Y-52300195D01*
X65362143Y-52710448D01*
X64648354Y-53105903D01*
X63968069Y-53482902D01*
X63327901Y-53837786D01*
X62734464Y-54166897D01*
X62194368Y-54466577D01*
X61714228Y-54733166D01*
X61340222Y-54941005D01*
X61229856Y-55002126D01*
X61034455Y-55110080D01*
X60767861Y-55257230D01*
X60443917Y-55435939D01*
X60076467Y-55638569D01*
X59679353Y-55857483D01*
X59421111Y-55999805D01*
X59012336Y-56225385D01*
X58624551Y-56439988D01*
X58271610Y-56635900D01*
X57967368Y-56805410D01*
X57725680Y-56940802D01*
X57560399Y-57034366D01*
X57502000Y-57068207D01*
X57333340Y-57159574D01*
X57116905Y-57264926D01*
X56884179Y-57370342D01*
X56666651Y-57461902D01*
X56495806Y-57525683D01*
X56420320Y-57546438D01*
X56313566Y-57582389D01*
X56221759Y-57626741D01*
X56059924Y-57691499D01*
X55826813Y-57756184D01*
X55563706Y-57812025D01*
X55311880Y-57850253D01*
X55113784Y-57862129D01*
X54967284Y-57860152D01*
X54738084Y-57859038D01*
X54456368Y-57858857D01*
X54152323Y-57859680D01*
X54120947Y-57859824D01*
X53547192Y-57846584D01*
X53019294Y-57802873D01*
X52556850Y-57731196D01*
X52179457Y-57634057D01*
X52083333Y-57599376D01*
X51951995Y-57560743D01*
X51914000Y-57553610D01*
X51838579Y-57532193D01*
X51662484Y-57476133D01*
X51391792Y-57387505D01*
X51032578Y-57268385D01*
X50590919Y-57120847D01*
X50072891Y-56946969D01*
X49484571Y-56748824D01*
X48832035Y-56528490D01*
X48121359Y-56288041D01*
X47358620Y-56029553D01*
X46549893Y-55755102D01*
X45701255Y-55466763D01*
X44818783Y-55166612D01*
X43908552Y-54856724D01*
X42976639Y-54539175D01*
X42029121Y-54216041D01*
X41072073Y-53889397D01*
X40111571Y-53561319D01*
X39153693Y-53233882D01*
X38204514Y-52909162D01*
X37270111Y-52589234D01*
X36356560Y-52276175D01*
X35469937Y-51972059D01*
X34616319Y-51678962D01*
X33801781Y-51398960D01*
X33032401Y-51134129D01*
X32314254Y-50886543D01*
X32056091Y-50797369D01*
X34273443Y-50797369D01*
X34329541Y-50819456D01*
X34480266Y-50873540D01*
X34713319Y-50955419D01*
X35016400Y-51060886D01*
X35377211Y-51185735D01*
X35783453Y-51325762D01*
X36222825Y-51476762D01*
X36683030Y-51634528D01*
X37151768Y-51794856D01*
X37616740Y-51953540D01*
X38065647Y-52106375D01*
X38486190Y-52249156D01*
X38866069Y-52377678D01*
X39192986Y-52487734D01*
X39454641Y-52575121D01*
X39638736Y-52635631D01*
X39732971Y-52665061D01*
X39742150Y-52667229D01*
X39770873Y-52630460D01*
X39764351Y-52600556D01*
X39591489Y-52135167D01*
X39453723Y-51765740D01*
X39347272Y-51482255D01*
X39268361Y-51274687D01*
X39213209Y-51133016D01*
X39184521Y-51062445D01*
X39161889Y-51006000D01*
X39778445Y-51006000D01*
X39806667Y-51034222D01*
X39834889Y-51006000D01*
X39806667Y-50977778D01*
X39778445Y-51006000D01*
X39161889Y-51006000D01*
X39141990Y-50956375D01*
X39067264Y-50765034D01*
X38968185Y-50508700D01*
X38931568Y-50413334D01*
X39552667Y-50413334D01*
X39573319Y-50459794D01*
X39590296Y-50450963D01*
X39597052Y-50383977D01*
X39590296Y-50375704D01*
X39556740Y-50383452D01*
X39552667Y-50413334D01*
X38931568Y-50413334D01*
X38852593Y-50207653D01*
X38737148Y-49905334D01*
X38582442Y-49499953D01*
X38462475Y-49188338D01*
X38372207Y-48958608D01*
X38306601Y-48798880D01*
X38260617Y-48697271D01*
X38229218Y-48641900D01*
X38207365Y-48620883D01*
X38192600Y-48621126D01*
X38111255Y-48661512D01*
X37948961Y-48747526D01*
X37718467Y-48872087D01*
X37432523Y-49028118D01*
X37103878Y-49208537D01*
X36745281Y-49406266D01*
X36369481Y-49614226D01*
X35989228Y-49825336D01*
X35617271Y-50032517D01*
X35266358Y-50228690D01*
X34949241Y-50406776D01*
X34678667Y-50559695D01*
X34467386Y-50680367D01*
X34328147Y-50761713D01*
X34273699Y-50796653D01*
X34273443Y-50797369D01*
X32056091Y-50797369D01*
X31653417Y-50658279D01*
X31055966Y-50451413D01*
X30527977Y-50268019D01*
X30075527Y-50110173D01*
X29704692Y-49979951D01*
X29421548Y-49879429D01*
X29232172Y-49810681D01*
X29142639Y-49775785D01*
X29138667Y-49773851D01*
X28800000Y-49594609D01*
X28150889Y-49594609D01*
X28150889Y-48780331D01*
X28229798Y-48636772D01*
X29557909Y-48636772D01*
X29563930Y-48856232D01*
X29574232Y-48888164D01*
X29663743Y-49035137D01*
X29806787Y-49180053D01*
X29966303Y-49291616D01*
X30105230Y-49338530D01*
X30107630Y-49338595D01*
X30213151Y-49362295D01*
X30248741Y-49395152D01*
X30303073Y-49422947D01*
X30448077Y-49481607D01*
X30667635Y-49565396D01*
X30945629Y-49668575D01*
X31265942Y-49785407D01*
X31612456Y-49910154D01*
X31969052Y-50037080D01*
X32319613Y-50160445D01*
X32648021Y-50274512D01*
X32938159Y-50373545D01*
X33173907Y-50451805D01*
X33339149Y-50503554D01*
X33417093Y-50523015D01*
X33475142Y-50497559D01*
X33621019Y-50423645D01*
X33843616Y-50307178D01*
X34131826Y-50154065D01*
X34474540Y-49970210D01*
X34860649Y-49761520D01*
X35279047Y-49533900D01*
X35336204Y-49502696D01*
X35959923Y-49160796D01*
X36507150Y-48858240D01*
X36974043Y-48597211D01*
X37356765Y-48379889D01*
X37651475Y-48208458D01*
X37854334Y-48085099D01*
X37961503Y-48011994D01*
X37966260Y-48008009D01*
X37960720Y-47947909D01*
X37921037Y-47811956D01*
X37856911Y-47628321D01*
X37778041Y-47425180D01*
X37712897Y-47272136D01*
X37658688Y-47133569D01*
X37633740Y-47036177D01*
X37633556Y-47031482D01*
X37607494Y-46932826D01*
X37577594Y-46870679D01*
X37538367Y-46784807D01*
X37467276Y-46612980D01*
X37372021Y-46374973D01*
X37260303Y-46090558D01*
X37139822Y-45779510D01*
X37018279Y-45461602D01*
X36903375Y-45156608D01*
X36802809Y-44884303D01*
X36785892Y-44837711D01*
X36713616Y-44652866D01*
X36649250Y-44513954D01*
X36608154Y-44452634D01*
X36550256Y-44473112D01*
X36403946Y-44543808D01*
X36179034Y-44659289D01*
X35885324Y-44814121D01*
X35532626Y-45002873D01*
X35130747Y-45220109D01*
X34689494Y-45460399D01*
X34218674Y-45718307D01*
X33728094Y-45988402D01*
X33227563Y-46265250D01*
X32726887Y-46543417D01*
X32235874Y-46817471D01*
X31764331Y-47081979D01*
X31322066Y-47331508D01*
X30918885Y-47560624D01*
X30564598Y-47763894D01*
X30269009Y-47935885D01*
X30041928Y-48071164D01*
X29893162Y-48164298D01*
X29840567Y-48201766D01*
X29652638Y-48412131D01*
X29557909Y-48636772D01*
X28229798Y-48636772D01*
X28352961Y-48412705D01*
X28509254Y-48163766D01*
X28684677Y-47972189D01*
X28903294Y-47802526D01*
X29010565Y-47734866D01*
X29207831Y-47617856D01*
X29486169Y-47456545D01*
X29836657Y-47255986D01*
X30250375Y-47021227D01*
X30718400Y-46757320D01*
X31231811Y-46469316D01*
X31781685Y-46162265D01*
X32359101Y-45841218D01*
X32769055Y-45614097D01*
X33442838Y-45241272D01*
X34024509Y-44919003D01*
X34520767Y-44643254D01*
X34938312Y-44409988D01*
X35283841Y-44215169D01*
X35564054Y-44054759D01*
X35785649Y-43924723D01*
X35955326Y-43821024D01*
X36079782Y-43739626D01*
X36165718Y-43676491D01*
X36219832Y-43627583D01*
X36248823Y-43588866D01*
X36259389Y-43556303D01*
X36258230Y-43525857D01*
X36255911Y-43513002D01*
X36213421Y-43366144D01*
X36142621Y-43179569D01*
X36110967Y-43106876D01*
X36043877Y-42948560D01*
X36002763Y-42830255D01*
X35996667Y-42798345D01*
X35975713Y-42713535D01*
X35923503Y-42573041D01*
X35904176Y-42527137D01*
X35853091Y-42408760D01*
X35809842Y-42306784D01*
X35760751Y-42188305D01*
X35692136Y-42020417D01*
X35627655Y-41862000D01*
X35571173Y-41718933D01*
X35487105Y-41500809D01*
X35387229Y-41238375D01*
X35292582Y-40987111D01*
X35167090Y-40654157D01*
X35021561Y-40271047D01*
X34876946Y-39892812D01*
X34787576Y-39660667D01*
X34667524Y-39349624D01*
X34542618Y-39025300D01*
X34428882Y-38729338D01*
X34353189Y-38531778D01*
X34263815Y-38300276D01*
X34180728Y-38089040D01*
X34118860Y-37935935D01*
X34108335Y-37910889D01*
X34058159Y-37786996D01*
X33980730Y-37588560D01*
X33888161Y-37346843D01*
X33824026Y-37177111D01*
X33731380Y-36931993D01*
X33649173Y-36717173D01*
X33588114Y-36560494D01*
X33563460Y-36499778D01*
X33530284Y-36416694D01*
X33463262Y-36244225D01*
X33368609Y-35998531D01*
X33252538Y-35695768D01*
X33121263Y-35352097D01*
X33031661Y-35116889D01*
X32892163Y-34751322D01*
X32762155Y-34412506D01*
X32648247Y-34117523D01*
X32557050Y-33883452D01*
X32495176Y-33727376D01*
X32474565Y-33677556D01*
X32414369Y-33532119D01*
X32334949Y-33330953D01*
X32273177Y-33169556D01*
X32191528Y-32957606D01*
X32112742Y-32760843D01*
X32067352Y-32653025D01*
X32013902Y-32515206D01*
X31989294Y-32419583D01*
X31989111Y-32415051D01*
X31968113Y-32328533D01*
X31915806Y-32186971D01*
X31896621Y-32141360D01*
X31825358Y-31974994D01*
X31766903Y-31835550D01*
X31758468Y-31814889D01*
X31720670Y-31723866D01*
X31648045Y-31550977D01*
X31549883Y-31318269D01*
X31435474Y-31047789D01*
X31392348Y-30946004D01*
X31277281Y-30664916D01*
X31180533Y-30410218D01*
X31123584Y-30243749D01*
X31754803Y-30243749D01*
X31759626Y-30302241D01*
X31764330Y-30311358D01*
X31860865Y-30506378D01*
X31985574Y-30786000D01*
X32129276Y-31128298D01*
X32282791Y-31511345D01*
X32436938Y-31913213D01*
X32452932Y-31956000D01*
X32563777Y-32250881D01*
X32669320Y-32527326D01*
X32759205Y-32758498D01*
X32823074Y-32917561D01*
X32834134Y-32943778D01*
X32898579Y-33098617D01*
X32977005Y-33297251D01*
X33076587Y-33558313D01*
X33204496Y-33900435D01*
X33257903Y-34044445D01*
X33348525Y-34285913D01*
X33441865Y-34529294D01*
X33523493Y-34737320D01*
X33574756Y-34862889D01*
X33619538Y-34971949D01*
X33687107Y-35143117D01*
X33781177Y-35386014D01*
X33905461Y-35710259D01*
X34063673Y-36125472D01*
X34163000Y-36386889D01*
X34411489Y-37040817D01*
X34622309Y-37594343D01*
X34797490Y-38052742D01*
X34939066Y-38421291D01*
X35049068Y-38705265D01*
X35129530Y-38909938D01*
X35182483Y-39040586D01*
X35206824Y-39096222D01*
X35250192Y-39197199D01*
X35323945Y-39380156D01*
X35418912Y-39621345D01*
X35525919Y-39897016D01*
X35635794Y-40183420D01*
X35739363Y-40456806D01*
X35827455Y-40693425D01*
X35882640Y-40846000D01*
X35938777Y-40999473D01*
X36025508Y-41229933D01*
X36134906Y-41516927D01*
X36259043Y-41840004D01*
X36389991Y-42178713D01*
X36519822Y-42512601D01*
X36640608Y-42821217D01*
X36744423Y-43084110D01*
X36823337Y-43280827D01*
X36867230Y-43386000D01*
X36918337Y-43510066D01*
X36996069Y-43708796D01*
X37088280Y-43950832D01*
X37151435Y-44119778D01*
X37274487Y-44451042D01*
X37370316Y-44707062D01*
X37450668Y-44918543D01*
X37527285Y-45116192D01*
X37611913Y-45330714D01*
X37680334Y-45502667D01*
X37758473Y-45701826D01*
X37865079Y-45977956D01*
X37989126Y-46302270D01*
X38119585Y-46645984D01*
X38199278Y-46857334D01*
X38320832Y-47178691D01*
X38435952Y-47479527D01*
X38535823Y-47737060D01*
X38611626Y-47928511D01*
X38647127Y-48014445D01*
X38697519Y-48138366D01*
X38778874Y-48347111D01*
X38883121Y-48619580D01*
X39002185Y-48934673D01*
X39127994Y-49271287D01*
X39128257Y-49271995D01*
X39247154Y-49587857D01*
X39353360Y-49862329D01*
X39440590Y-50079785D01*
X39502555Y-50224599D01*
X39532968Y-50281148D01*
X39534334Y-50281147D01*
X39526006Y-50222257D01*
X39487182Y-50077170D01*
X39423850Y-49866522D01*
X39341994Y-49610949D01*
X39325108Y-49559819D01*
X39233589Y-49287250D01*
X39150553Y-49045852D01*
X39084536Y-48860046D01*
X39044076Y-48754253D01*
X39041402Y-48748222D01*
X39007447Y-48659406D01*
X38945394Y-48482990D01*
X38862006Y-48238744D01*
X38781844Y-47999554D01*
X39439778Y-47999554D01*
X39457482Y-48068419D01*
X39507804Y-48231502D01*
X39586560Y-48476298D01*
X39689567Y-48790306D01*
X39812640Y-49161021D01*
X39951596Y-49575939D01*
X40102250Y-50022557D01*
X40260419Y-50488371D01*
X40421919Y-50960877D01*
X40582565Y-51427572D01*
X40705629Y-51782517D01*
X40801431Y-52089971D01*
X40840886Y-52316522D01*
X40821586Y-52480436D01*
X40741126Y-52599979D01*
X40597098Y-52693417D01*
X40584823Y-52699334D01*
X40443911Y-52771858D01*
X40357525Y-52827169D01*
X40344934Y-52842208D01*
X40396825Y-52863076D01*
X40547519Y-52917362D01*
X40788890Y-53002299D01*
X41112810Y-53115114D01*
X41511153Y-53253039D01*
X41975791Y-53413304D01*
X42498597Y-53593139D01*
X43071443Y-53789773D01*
X43686202Y-54000438D01*
X44334748Y-54222364D01*
X45008953Y-54452780D01*
X45700690Y-54688917D01*
X46401831Y-54928005D01*
X47104249Y-55167274D01*
X47799818Y-55403954D01*
X48480409Y-55635276D01*
X49137896Y-55858470D01*
X49764152Y-56070765D01*
X50351049Y-56269392D01*
X50890459Y-56451582D01*
X51374257Y-56614564D01*
X51794314Y-56755568D01*
X52142504Y-56871825D01*
X52410699Y-56960566D01*
X52590772Y-57019019D01*
X52674595Y-57044415D01*
X52676000Y-57044742D01*
X52794849Y-57075498D01*
X52970736Y-57125495D01*
X53071111Y-57155355D01*
X53281112Y-57195249D01*
X53575630Y-57219420D01*
X53927506Y-57228655D01*
X54309583Y-57223739D01*
X54694702Y-57205460D01*
X55055706Y-57174603D01*
X55365435Y-57131954D01*
X55582889Y-57082635D01*
X55910224Y-56978204D01*
X56165757Y-56883549D01*
X56387652Y-56782925D01*
X56614074Y-56660586D01*
X56634799Y-56648654D01*
X56754801Y-56580680D01*
X56959394Y-56466347D01*
X57234210Y-56313619D01*
X57564881Y-56130459D01*
X57937039Y-55924830D01*
X58336316Y-55704697D01*
X58566499Y-55578000D01*
X58958615Y-55361508D01*
X59317258Y-55161961D01*
X59630898Y-54985894D01*
X59888005Y-54839845D01*
X60077046Y-54730348D01*
X60186492Y-54663939D01*
X60209573Y-54646667D01*
X60157391Y-54624984D01*
X60004890Y-54569352D01*
X59758678Y-54482024D01*
X59425362Y-54365251D01*
X59011550Y-54221287D01*
X58523850Y-54052383D01*
X57968869Y-53860793D01*
X57353216Y-53648769D01*
X56683498Y-53418562D01*
X55966323Y-53172427D01*
X55208298Y-52912615D01*
X54416031Y-52641379D01*
X53596130Y-52360972D01*
X52755203Y-52073645D01*
X51899857Y-51781651D01*
X51036700Y-51487244D01*
X50172340Y-51192675D01*
X49313384Y-50900196D01*
X48466441Y-50612062D01*
X47638118Y-50330523D01*
X46835022Y-50057832D01*
X46063762Y-49796243D01*
X45330945Y-49548007D01*
X44643179Y-49315377D01*
X44007071Y-49100605D01*
X43429230Y-48905944D01*
X42916263Y-48733647D01*
X42474777Y-48585966D01*
X42111381Y-48465153D01*
X41832683Y-48373462D01*
X41645289Y-48313143D01*
X41555808Y-48286451D01*
X41548878Y-48285419D01*
X41543780Y-48306668D01*
X41546836Y-48359285D01*
X41559796Y-48452354D01*
X41584409Y-48594954D01*
X41622424Y-48796169D01*
X41675592Y-49065080D01*
X41745662Y-49410770D01*
X41834382Y-49842320D01*
X41943504Y-50368811D01*
X42033842Y-50802924D01*
X42104372Y-51148122D01*
X42166043Y-51462695D01*
X42215252Y-51727209D01*
X42248397Y-51922230D01*
X42261873Y-52028323D01*
X42262000Y-52033471D01*
X42207854Y-52155333D01*
X42052876Y-52257590D01*
X41808250Y-52334617D01*
X41592425Y-52370186D01*
X41414280Y-52380354D01*
X41305141Y-52351910D01*
X41241219Y-52296219D01*
X41208572Y-52219970D01*
X41152805Y-52046195D01*
X41077273Y-51787109D01*
X40985329Y-51454928D01*
X40880329Y-51061865D01*
X40765628Y-50620137D01*
X40644579Y-50141957D01*
X40596235Y-49947667D01*
X40577378Y-49872408D01*
X41194012Y-49872408D01*
X41204389Y-49945617D01*
X41223657Y-49946491D01*
X41237132Y-49870946D01*
X41228114Y-49838306D01*
X41203050Y-49816926D01*
X41194012Y-49872408D01*
X40577378Y-49872408D01*
X40474938Y-49463580D01*
X40359870Y-49015414D01*
X40254183Y-48614648D01*
X40161033Y-48272758D01*
X40083572Y-48001225D01*
X40024954Y-47811526D01*
X39988334Y-47715139D01*
X39980128Y-47705240D01*
X39866927Y-47732077D01*
X39719692Y-47795784D01*
X39575243Y-47876308D01*
X39470398Y-47953594D01*
X39439778Y-47999554D01*
X38781844Y-47999554D01*
X38764043Y-47946441D01*
X38674633Y-47675778D01*
X38569708Y-47358241D01*
X38473785Y-47072001D01*
X38393592Y-46836826D01*
X38335861Y-46672483D01*
X38309515Y-46603334D01*
X38277726Y-46518489D01*
X38216515Y-46343411D01*
X38131677Y-46095122D01*
X38029008Y-45790643D01*
X37914303Y-45446997D01*
X37857913Y-45276889D01*
X37739588Y-44920727D01*
X37630629Y-44595735D01*
X37536825Y-44318934D01*
X37463959Y-44107345D01*
X37417820Y-43977989D01*
X37407014Y-43950445D01*
X37375753Y-43866839D01*
X37313939Y-43691243D01*
X37301313Y-43654714D01*
X37941728Y-43654714D01*
X38197173Y-44423468D01*
X38290752Y-44702590D01*
X38373462Y-44944627D01*
X38438055Y-45128719D01*
X38477285Y-45234003D01*
X38483842Y-45248667D01*
X38510403Y-45317862D01*
X38565722Y-45476819D01*
X38643832Y-45707882D01*
X38738770Y-45993397D01*
X38844569Y-46315710D01*
X38850422Y-46333652D01*
X38956101Y-46653050D01*
X39051412Y-46932214D01*
X39130478Y-47154650D01*
X39187427Y-47303867D01*
X39216383Y-47363372D01*
X39217323Y-47363764D01*
X39282538Y-47334684D01*
X39340236Y-47294778D01*
X39370153Y-47261962D01*
X39391299Y-47206918D01*
X39404094Y-47114969D01*
X39408955Y-46971435D01*
X39406300Y-46761637D01*
X39396546Y-46470897D01*
X39380112Y-46084536D01*
X39376791Y-46010667D01*
X39356220Y-45586064D01*
X39335362Y-45248042D01*
X39310916Y-44970333D01*
X39279582Y-44726668D01*
X39238056Y-44490780D01*
X39183039Y-44236401D01*
X39121399Y-43978667D01*
X39050201Y-43691361D01*
X38987845Y-43445768D01*
X38939416Y-43261448D01*
X38909998Y-43157965D01*
X38904142Y-43142769D01*
X38851189Y-43160942D01*
X38722376Y-43224031D01*
X38539817Y-43320870D01*
X38414596Y-43390015D01*
X37941728Y-43654714D01*
X37301313Y-43654714D01*
X37226671Y-43438778D01*
X37119050Y-43124565D01*
X36996175Y-42763726D01*
X36863146Y-42371380D01*
X36725064Y-41962650D01*
X36587028Y-41552655D01*
X36454138Y-41156518D01*
X36331494Y-40789359D01*
X36224195Y-40466299D01*
X36137343Y-40202458D01*
X36076036Y-40012959D01*
X36045852Y-39914667D01*
X35993714Y-39747048D01*
X35941621Y-39610001D01*
X35938986Y-39604222D01*
X35906594Y-39519360D01*
X35844889Y-39344243D01*
X35759690Y-39095899D01*
X35656813Y-38791358D01*
X35542077Y-38447648D01*
X35485828Y-38277778D01*
X35367613Y-37921580D01*
X35258662Y-37596560D01*
X35164769Y-37319745D01*
X35091730Y-37108161D01*
X35045338Y-36978834D01*
X35034398Y-36951334D01*
X35002525Y-36866470D01*
X34941319Y-36691350D01*
X34856568Y-36443003D01*
X34754062Y-36138457D01*
X34639590Y-35794743D01*
X34583427Y-35624889D01*
X34465374Y-35268679D01*
X34356631Y-34943650D01*
X34262975Y-34666830D01*
X34190188Y-34455247D01*
X34144049Y-34325930D01*
X34133226Y-34298445D01*
X34102719Y-34216949D01*
X34041515Y-34043430D01*
X33954712Y-33792927D01*
X33847409Y-33480481D01*
X33724705Y-33121129D01*
X33591697Y-32729914D01*
X33453486Y-32321873D01*
X33315170Y-31912047D01*
X33181847Y-31515476D01*
X33058616Y-31147198D01*
X32950575Y-30822255D01*
X32862825Y-30555686D01*
X32827191Y-30446015D01*
X32748449Y-30206518D01*
X32691464Y-30056170D01*
X32644053Y-29976455D01*
X32594030Y-29948859D01*
X32529212Y-29954864D01*
X32507320Y-29959909D01*
X32374145Y-30000746D01*
X32299556Y-30035913D01*
X32214671Y-30073432D01*
X32063777Y-30123082D01*
X31978492Y-30147377D01*
X31821052Y-30197263D01*
X31754803Y-30243749D01*
X31123584Y-30243749D01*
X31110270Y-30204834D01*
X31074657Y-30071691D01*
X31071889Y-30046303D01*
X31105021Y-29912696D01*
X31212717Y-29798446D01*
X31407431Y-29694751D01*
X31701615Y-29592804D01*
X31721730Y-29586837D01*
X31934552Y-29520910D01*
X32113951Y-29459540D01*
X32224041Y-29415069D01*
X32229745Y-29412088D01*
X32339484Y-29376266D01*
X32516135Y-29341905D01*
X32653078Y-29324024D01*
X32847532Y-29310259D01*
X32965672Y-29323693D01*
X33042063Y-29370321D01*
X33065276Y-29395523D01*
X33103085Y-29472172D01*
X33171190Y-29643263D01*
X33264969Y-29895882D01*
X33379799Y-30217119D01*
X33511058Y-30594060D01*
X33654124Y-31013796D01*
X33789921Y-31419778D01*
X33939730Y-31870238D01*
X34081077Y-32292598D01*
X34209395Y-32673410D01*
X34320118Y-32999226D01*
X34408677Y-33256599D01*
X34470505Y-33432081D01*
X34499234Y-33508222D01*
X34540865Y-33618295D01*
X34608994Y-33813740D01*
X34696087Y-34072294D01*
X34794608Y-34371693D01*
X34862173Y-34580667D01*
X34962244Y-34889344D01*
X35053988Y-35166621D01*
X35130431Y-35391861D01*
X35184602Y-35544426D01*
X35205413Y-35596667D01*
X35237921Y-35680756D01*
X35300199Y-35855481D01*
X35386541Y-36104308D01*
X35491241Y-36410705D01*
X35608591Y-36758139D01*
X35682745Y-36979556D01*
X35934258Y-37731414D01*
X36178925Y-38459827D01*
X36414175Y-39157311D01*
X36637437Y-39816385D01*
X36846142Y-40429564D01*
X37037719Y-40989368D01*
X37209597Y-41488313D01*
X37359207Y-41918916D01*
X37483979Y-42273695D01*
X37581341Y-42545168D01*
X37648724Y-42725852D01*
X37683558Y-42808264D01*
X37686218Y-42812129D01*
X37755199Y-42808512D01*
X37900279Y-42755158D01*
X38100752Y-42660407D01*
X38222835Y-42596009D01*
X38462092Y-42459286D01*
X38609762Y-42358011D01*
X38677876Y-42282823D01*
X38683828Y-42237336D01*
X38662946Y-42155335D01*
X38620310Y-41982154D01*
X38560450Y-41736400D01*
X38487897Y-41436678D01*
X38407182Y-41101595D01*
X38400018Y-41071778D01*
X38316851Y-40727992D01*
X38239288Y-40411851D01*
X38172400Y-40143679D01*
X38121259Y-39943798D01*
X38090935Y-39832531D01*
X38090162Y-39830000D01*
X38041481Y-39649177D01*
X38000445Y-39463111D01*
X37957701Y-39270639D01*
X37910263Y-39096222D01*
X37882485Y-38995563D01*
X37831511Y-38799460D01*
X37760888Y-38522143D01*
X37674162Y-38177844D01*
X37574882Y-37780792D01*
X37466594Y-37345221D01*
X37352845Y-36885359D01*
X37237184Y-36415438D01*
X37123156Y-35949689D01*
X37014311Y-35502343D01*
X37009811Y-35483778D01*
X36937228Y-35186409D01*
X36865457Y-34896019D01*
X36803405Y-34648445D01*
X36764317Y-34496000D01*
X36676683Y-34157672D01*
X36597948Y-33846453D01*
X36534188Y-33586812D01*
X36491478Y-33403218D01*
X36482663Y-33361638D01*
X36459667Y-33260015D01*
X36414915Y-33072264D01*
X36354062Y-32821770D01*
X36282764Y-32531914D01*
X36251932Y-32407556D01*
X36164254Y-32053674D01*
X36071320Y-31676820D01*
X35983599Y-31319536D01*
X35911555Y-31024364D01*
X35904777Y-30996445D01*
X35831150Y-30704313D01*
X35737488Y-30349193D01*
X35635914Y-29976304D01*
X35540172Y-29636490D01*
X35435636Y-29261335D01*
X35370083Y-28992358D01*
X35990199Y-28992358D01*
X36017475Y-29125815D01*
X36084129Y-29339607D01*
X36109332Y-29416000D01*
X36143317Y-29532689D01*
X36200917Y-29746875D01*
X36279030Y-30046376D01*
X36374553Y-30419007D01*
X36484382Y-30852584D01*
X36605414Y-31334924D01*
X36734547Y-31853844D01*
X36868677Y-32397159D01*
X36871233Y-32407556D01*
X37004679Y-32949893D01*
X37132150Y-33467082D01*
X37250671Y-33947104D01*
X37357263Y-34377943D01*
X37448952Y-34747579D01*
X37522758Y-35043994D01*
X37575705Y-35255172D01*
X37604817Y-35369093D01*
X37605293Y-35370889D01*
X37663691Y-35599579D01*
X37720546Y-35835533D01*
X37736892Y-35907111D01*
X37763204Y-36017947D01*
X37813816Y-36224601D01*
X37885332Y-36513453D01*
X37974360Y-36870881D01*
X38077504Y-37283264D01*
X38191372Y-37736981D01*
X38312568Y-38218411D01*
X38334657Y-38306000D01*
X38545928Y-39144498D01*
X38730469Y-39879087D01*
X38889627Y-40515200D01*
X39024748Y-41058269D01*
X39137178Y-41513728D01*
X39228264Y-41887008D01*
X39299352Y-42183544D01*
X39351788Y-42408767D01*
X39355802Y-42426445D01*
X39401390Y-42619675D01*
X39466431Y-42884954D01*
X39541722Y-43185138D01*
X39607537Y-43442445D01*
X39684374Y-43742979D01*
X39759008Y-44040492D01*
X39822197Y-44297834D01*
X39860282Y-44458445D01*
X39897531Y-44614902D01*
X39957283Y-44858852D01*
X40034099Y-45168409D01*
X40122540Y-45521691D01*
X40217168Y-45896812D01*
X40246034Y-46010667D01*
X40356138Y-46447933D01*
X40475052Y-46926169D01*
X40593427Y-47407377D01*
X40701912Y-47853555D01*
X40787682Y-48212000D01*
X40894378Y-48661461D01*
X40978668Y-49011890D01*
X41043453Y-49274273D01*
X41091634Y-49459594D01*
X41126114Y-49578838D01*
X41149794Y-49642988D01*
X41165574Y-49663029D01*
X41170429Y-49661053D01*
X41166878Y-49601201D01*
X41142524Y-49451043D01*
X41101007Y-49230485D01*
X41045966Y-48959432D01*
X41017883Y-48826879D01*
X40935999Y-48440848D01*
X40843934Y-47999907D01*
X40753277Y-47559914D01*
X40679481Y-47196000D01*
X40619004Y-46896260D01*
X40541526Y-46515080D01*
X40452994Y-46081551D01*
X40359353Y-45624765D01*
X40266548Y-45173815D01*
X40229563Y-44994667D01*
X40136242Y-44542326D01*
X40037135Y-44060558D01*
X39938849Y-43581574D01*
X39849565Y-43145268D01*
X40481948Y-43145268D01*
X40486727Y-43203290D01*
X40510483Y-43346415D01*
X40548818Y-43549300D01*
X40572690Y-43668222D01*
X40611206Y-43856648D01*
X40668295Y-44136065D01*
X40739952Y-44486857D01*
X40822170Y-44889409D01*
X40910942Y-45324105D01*
X41002262Y-45771329D01*
X41015529Y-45836306D01*
X41102121Y-46254781D01*
X41183495Y-46637398D01*
X41256497Y-46970151D01*
X41317974Y-47239035D01*
X41364772Y-47430045D01*
X41393739Y-47529174D01*
X41399017Y-47539511D01*
X41455487Y-47561350D01*
X41612280Y-47617375D01*
X41862868Y-47705352D01*
X42200722Y-47823045D01*
X42619314Y-47968219D01*
X43112115Y-48138640D01*
X43672595Y-48332071D01*
X44294228Y-48546278D01*
X44970483Y-48779026D01*
X45694832Y-49028079D01*
X46460748Y-49291203D01*
X47261700Y-49566162D01*
X48091161Y-49850721D01*
X48942601Y-50142646D01*
X49809493Y-50439700D01*
X50685307Y-50739649D01*
X51563514Y-51040258D01*
X52437587Y-51339291D01*
X53300997Y-51634514D01*
X54147214Y-51923691D01*
X54969711Y-52204588D01*
X55761958Y-52474968D01*
X56517428Y-52732597D01*
X57229591Y-52975240D01*
X57891918Y-53200662D01*
X58497882Y-53406627D01*
X59040953Y-53590901D01*
X59514602Y-53751248D01*
X59912302Y-53885433D01*
X60227524Y-53991222D01*
X60453738Y-54066378D01*
X60584417Y-54108667D01*
X60606445Y-54115309D01*
X60781648Y-54160007D01*
X60923828Y-54187593D01*
X60960143Y-54191302D01*
X61028703Y-54165457D01*
X61185458Y-54089955D01*
X61420082Y-53970252D01*
X61722250Y-53811807D01*
X62081636Y-53620076D01*
X62487915Y-53400516D01*
X62930762Y-53158585D01*
X63316699Y-52945808D01*
X63778467Y-52689443D01*
X64208415Y-52449294D01*
X64596749Y-52230939D01*
X64933672Y-52039952D01*
X65209390Y-51881910D01*
X65414106Y-51762390D01*
X65538025Y-51686966D01*
X65572513Y-51661697D01*
X65520081Y-51639094D01*
X65367910Y-51582942D01*
X65123243Y-51495741D01*
X64793320Y-51379989D01*
X64385382Y-51238183D01*
X63906672Y-51072822D01*
X63364430Y-50886404D01*
X62765897Y-50681428D01*
X62118315Y-50460390D01*
X61428925Y-50225790D01*
X60704968Y-49980126D01*
X60337291Y-49855617D01*
X59592633Y-49603576D01*
X58754702Y-49319884D01*
X57837131Y-49009161D01*
X57315296Y-48832417D01*
X59629144Y-48832417D01*
X59692523Y-48861613D01*
X59852050Y-48922169D01*
X60096578Y-49010347D01*
X60414961Y-49122410D01*
X60796051Y-49254622D01*
X61228703Y-49403245D01*
X61701768Y-49564543D01*
X62204102Y-49734778D01*
X62724556Y-49910214D01*
X63251984Y-50087113D01*
X63775240Y-50261739D01*
X64283176Y-50430355D01*
X64764646Y-50589224D01*
X65208504Y-50734609D01*
X65603601Y-50862773D01*
X65938793Y-50969978D01*
X66202931Y-51052489D01*
X66384869Y-51106568D01*
X66473461Y-51128478D01*
X66478659Y-51128715D01*
X66553725Y-51099159D01*
X66717878Y-51019555D01*
X66961662Y-50894927D01*
X67275622Y-50730302D01*
X67650301Y-50530702D01*
X68076242Y-50301154D01*
X68543990Y-50046682D01*
X69044088Y-49772311D01*
X69370003Y-49592332D01*
X72118244Y-48070889D01*
X71597566Y-47893488D01*
X71443917Y-47841245D01*
X71195488Y-47756910D01*
X70864424Y-47644600D01*
X70462870Y-47508434D01*
X70002970Y-47352527D01*
X69496869Y-47180999D01*
X68956712Y-46997965D01*
X68394643Y-46807543D01*
X68163372Y-46729203D01*
X65249855Y-45742319D01*
X62426396Y-47273493D01*
X61907979Y-47555347D01*
X61421236Y-47821368D01*
X60974882Y-48066699D01*
X60577632Y-48286481D01*
X60238202Y-48475859D01*
X59965307Y-48629974D01*
X59767663Y-48743970D01*
X59653985Y-48812989D01*
X59629144Y-48832417D01*
X57315296Y-48832417D01*
X56853552Y-48676026D01*
X55817596Y-48325096D01*
X54742896Y-47960992D01*
X53643083Y-47588332D01*
X52531790Y-47211735D01*
X51569397Y-46885556D01*
X53833111Y-46885556D01*
X53861333Y-46913778D01*
X53866692Y-46908419D01*
X53978565Y-46908419D01*
X53978641Y-46908789D01*
X54039001Y-46935018D01*
X54193123Y-46992570D01*
X54427729Y-47076904D01*
X54729541Y-47183479D01*
X55085279Y-47307753D01*
X55481667Y-47445186D01*
X55905425Y-47591235D01*
X56343276Y-47741360D01*
X56781941Y-47891018D01*
X57208141Y-48035670D01*
X57608599Y-48170773D01*
X57970037Y-48291786D01*
X58279176Y-48394168D01*
X58522737Y-48473377D01*
X58687443Y-48524872D01*
X58760015Y-48544112D01*
X58760138Y-48544121D01*
X58871180Y-48523476D01*
X59027910Y-48463891D01*
X59084606Y-48436675D01*
X59229766Y-48359304D01*
X59439350Y-48243456D01*
X59680278Y-48107546D01*
X59830246Y-48021650D01*
X59997716Y-47926771D01*
X60250030Y-47786058D01*
X60572772Y-47607447D01*
X60951525Y-47398875D01*
X61371873Y-47168278D01*
X61819398Y-46923591D01*
X62279685Y-46672751D01*
X62356203Y-46631134D01*
X62799103Y-46389570D01*
X63216027Y-46160737D01*
X63595359Y-45951117D01*
X63925484Y-45767190D01*
X64194786Y-45615438D01*
X64391650Y-45502344D01*
X64504459Y-45434387D01*
X64520705Y-45423382D01*
X64606659Y-45358610D01*
X64675856Y-45295725D01*
X64729332Y-45222889D01*
X64768123Y-45128263D01*
X64793263Y-45000009D01*
X64805788Y-44826289D01*
X64806734Y-44595265D01*
X64797135Y-44295099D01*
X64778027Y-43913953D01*
X64750445Y-43439989D01*
X64727434Y-43059580D01*
X64699449Y-42601987D01*
X64673149Y-42178989D01*
X64649408Y-41804111D01*
X64629101Y-41490875D01*
X64613102Y-41252804D01*
X64605480Y-41147552D01*
X65209316Y-41147552D01*
X65212184Y-41315073D01*
X65220308Y-41563601D01*
X65232872Y-41877297D01*
X65249057Y-42240328D01*
X65268047Y-42636855D01*
X65289024Y-43051044D01*
X65311170Y-43467057D01*
X65333669Y-43869058D01*
X65355702Y-44241212D01*
X65376453Y-44567682D01*
X65395104Y-44832632D01*
X65410837Y-45020225D01*
X65420201Y-45100442D01*
X65473716Y-45128663D01*
X65623758Y-45188982D01*
X65859769Y-45277774D01*
X66171187Y-45391415D01*
X66547454Y-45526278D01*
X66978010Y-45678741D01*
X67452294Y-45845177D01*
X67959747Y-46021961D01*
X68489809Y-46205469D01*
X69031920Y-46392076D01*
X69575520Y-46578156D01*
X70110050Y-46760086D01*
X70624950Y-46934239D01*
X71109660Y-47096991D01*
X71553619Y-47244718D01*
X71946269Y-47373793D01*
X72277050Y-47480593D01*
X72535401Y-47561492D01*
X72710763Y-47612865D01*
X72792225Y-47631080D01*
X72862575Y-47605306D01*
X73018844Y-47531175D01*
X73248329Y-47415262D01*
X73538328Y-47264142D01*
X73876138Y-47084390D01*
X74249056Y-46882581D01*
X74435333Y-46780613D01*
X74959054Y-46489725D01*
X75389493Y-46242835D01*
X75734669Y-46034113D01*
X76002598Y-45857729D01*
X76201297Y-45707852D01*
X76338782Y-45578654D01*
X76423070Y-45464303D01*
X76462178Y-45358970D01*
X76467333Y-45302886D01*
X76412975Y-45061228D01*
X76255815Y-44846781D01*
X76004730Y-44670246D01*
X75902889Y-44622183D01*
X75739431Y-44551248D01*
X75603241Y-44490017D01*
X75592445Y-44484975D01*
X75526794Y-44460961D01*
X75363270Y-44403847D01*
X75110933Y-44316711D01*
X74778843Y-44202632D01*
X74376062Y-44064687D01*
X73911650Y-43905956D01*
X73394667Y-43729516D01*
X72834176Y-43538447D01*
X72239235Y-43335825D01*
X71618907Y-43124730D01*
X70982251Y-42908240D01*
X70338329Y-42689433D01*
X69696202Y-42471388D01*
X69064929Y-42257183D01*
X68453572Y-42049896D01*
X67871192Y-41852605D01*
X67326850Y-41668390D01*
X66829605Y-41500327D01*
X66388519Y-41351497D01*
X66012653Y-41224976D01*
X65711067Y-41123843D01*
X65492822Y-41051177D01*
X65366979Y-41010056D01*
X65341451Y-41002263D01*
X65247985Y-41026350D01*
X65212522Y-41076873D01*
X65209316Y-41147552D01*
X64605480Y-41147552D01*
X64602284Y-41103420D01*
X64598021Y-41057256D01*
X64547735Y-41073588D01*
X64403909Y-41142394D01*
X64171507Y-41260999D01*
X63855488Y-41426729D01*
X63460816Y-41636907D01*
X62992451Y-41888858D01*
X62455355Y-42179908D01*
X61854491Y-42507381D01*
X61194820Y-42868601D01*
X60481303Y-43260894D01*
X59718902Y-43681585D01*
X59266529Y-43931860D01*
X58551204Y-44328418D01*
X57864725Y-44709849D01*
X57213420Y-45072590D01*
X56603616Y-45413078D01*
X56041642Y-45727751D01*
X55533824Y-46013048D01*
X55086491Y-46265405D01*
X54705970Y-46481260D01*
X54398590Y-46657052D01*
X54170677Y-46789217D01*
X54028559Y-46874193D01*
X53978565Y-46908419D01*
X53866692Y-46908419D01*
X53889556Y-46885556D01*
X53861333Y-46857334D01*
X53833111Y-46885556D01*
X51569397Y-46885556D01*
X51422647Y-46835819D01*
X50329287Y-46465204D01*
X49265342Y-46104508D01*
X48244444Y-45758351D01*
X47799103Y-45607329D01*
X46924476Y-45310855D01*
X46079554Y-45024723D01*
X45270473Y-44750998D01*
X44503369Y-44491743D01*
X43828107Y-44263787D01*
X46270180Y-44263787D01*
X46321730Y-44287069D01*
X46469207Y-44342406D01*
X46701489Y-44426006D01*
X47007456Y-44534081D01*
X47375986Y-44662842D01*
X47795960Y-44808499D01*
X48256255Y-44967263D01*
X48745751Y-45135344D01*
X49253328Y-45308952D01*
X49767863Y-45484299D01*
X50278237Y-45657595D01*
X50773327Y-45825050D01*
X51242014Y-45982875D01*
X51673177Y-46127281D01*
X52055693Y-46254478D01*
X52378444Y-46360677D01*
X52630306Y-46442089D01*
X52800161Y-46494923D01*
X52876886Y-46515390D01*
X52878366Y-46515510D01*
X52943330Y-46489433D01*
X53097548Y-46413307D01*
X53331705Y-46292117D01*
X53636487Y-46130845D01*
X54002582Y-45934475D01*
X54420675Y-45707989D01*
X54881452Y-45456371D01*
X55375599Y-45184604D01*
X55667135Y-45023416D01*
X56174315Y-44742240D01*
X56651470Y-44477268D01*
X57089524Y-44233570D01*
X57479406Y-44016215D01*
X57812040Y-43830271D01*
X58078354Y-43680809D01*
X58269272Y-43572896D01*
X58375722Y-43511602D01*
X58395177Y-43499416D01*
X58393648Y-43440980D01*
X58388939Y-43435680D01*
X58329020Y-43409859D01*
X58174708Y-43352412D01*
X57938586Y-43267770D01*
X57633234Y-43160367D01*
X57271236Y-43034637D01*
X56865172Y-42895012D01*
X56530976Y-42781021D01*
X56067884Y-42623569D01*
X55611104Y-42468197D01*
X55178805Y-42321088D01*
X54789152Y-42188428D01*
X54460312Y-42076399D01*
X54210453Y-41991188D01*
X54115333Y-41958695D01*
X53893600Y-41884417D01*
X53711948Y-41830366D01*
X53544249Y-41792770D01*
X53364372Y-41767856D01*
X53146186Y-41751851D01*
X52863563Y-41740982D01*
X52551669Y-41732930D01*
X51925055Y-41733248D01*
X51388223Y-41768617D01*
X50922646Y-41842264D01*
X50509794Y-41957419D01*
X50131139Y-42117311D01*
X50023111Y-42173577D01*
X49776546Y-42307144D01*
X49487055Y-42463453D01*
X49211232Y-42611954D01*
X49171897Y-42633085D01*
X48832476Y-42816529D01*
X48469263Y-43014900D01*
X48095344Y-43220844D01*
X47723808Y-43427004D01*
X47367742Y-43626026D01*
X47040236Y-43810554D01*
X46754376Y-43973233D01*
X46523251Y-44106709D01*
X46359948Y-44203625D01*
X46277556Y-44256627D01*
X46270180Y-44263787D01*
X43828107Y-44263787D01*
X43784375Y-44249024D01*
X43119628Y-44024904D01*
X42515263Y-43821448D01*
X41977416Y-43640720D01*
X41512221Y-43484785D01*
X41125814Y-43355707D01*
X40824329Y-43255551D01*
X40613904Y-43186380D01*
X40500671Y-43150260D01*
X40481948Y-43145268D01*
X39849565Y-43145268D01*
X39847992Y-43137586D01*
X39771169Y-42760807D01*
X39749113Y-42652222D01*
X39673574Y-42280351D01*
X40496425Y-42280351D01*
X40541516Y-42303783D01*
X40680594Y-42359218D01*
X40900823Y-42442148D01*
X41189370Y-42548068D01*
X41533398Y-42672470D01*
X41920073Y-42810850D01*
X42336559Y-42958699D01*
X42770022Y-43111513D01*
X43207625Y-43264783D01*
X43636534Y-43414005D01*
X44043914Y-43554672D01*
X44416929Y-43682277D01*
X44742745Y-43792314D01*
X45008526Y-43880276D01*
X45201437Y-43941658D01*
X45308642Y-43971952D01*
X45320780Y-43974168D01*
X45382784Y-43938780D01*
X45393760Y-43923689D01*
X45463435Y-43877754D01*
X45605459Y-43819294D01*
X45717851Y-43782557D01*
X45852200Y-43734254D01*
X46034970Y-43653635D01*
X46273485Y-43536840D01*
X46575071Y-43380011D01*
X46947049Y-43179286D01*
X47396746Y-42930805D01*
X47931484Y-42630710D01*
X48310385Y-42416217D01*
X48585896Y-42260971D01*
X48826772Y-42127382D01*
X49016143Y-42024635D01*
X49137137Y-41961914D01*
X49172894Y-41946667D01*
X49234977Y-41920534D01*
X49369385Y-41850977D01*
X49550819Y-41751257D01*
X49615620Y-41714605D01*
X50166017Y-41457778D01*
X50794879Y-41265742D01*
X51485705Y-41142251D01*
X52221994Y-41091061D01*
X52361401Y-41089816D01*
X52888188Y-41106231D01*
X53365820Y-41160098D01*
X53836940Y-41259011D01*
X54344192Y-41410565D01*
X54538667Y-41477632D01*
X54770538Y-41558448D01*
X55082372Y-41665132D01*
X55446838Y-41788440D01*
X55836609Y-41919133D01*
X56224355Y-42047966D01*
X56260222Y-42059816D01*
X56677867Y-42198991D01*
X57129642Y-42351695D01*
X57579394Y-42505566D01*
X57990971Y-42648241D01*
X58303044Y-42758350D01*
X59188754Y-43074814D01*
X61504679Y-41791124D01*
X63820603Y-40507434D01*
X63525857Y-40406062D01*
X63317810Y-40334770D01*
X63025655Y-40235042D01*
X62658362Y-40109920D01*
X62224899Y-39962442D01*
X61734235Y-39795649D01*
X61195340Y-39612582D01*
X60617182Y-39416279D01*
X60008732Y-39209782D01*
X59378958Y-38996129D01*
X58736829Y-38778363D01*
X58091314Y-38559521D01*
X57451383Y-38342645D01*
X56826005Y-38130774D01*
X56224149Y-37926949D01*
X55654784Y-37734209D01*
X55126879Y-37555595D01*
X54649403Y-37394147D01*
X54231326Y-37252905D01*
X53881617Y-37134908D01*
X53609245Y-37043197D01*
X53423178Y-36980812D01*
X53332387Y-36950793D01*
X53325111Y-36948563D01*
X53227854Y-36922711D01*
X53061625Y-36877049D01*
X52901778Y-36832482D01*
X52624068Y-36779298D01*
X52268076Y-36747504D01*
X51866354Y-36737053D01*
X51451452Y-36747895D01*
X51055924Y-36779982D01*
X50712321Y-36833265D01*
X50700445Y-36835767D01*
X50407200Y-36908072D01*
X50137041Y-36992445D01*
X49913838Y-37079892D01*
X49761459Y-37161416D01*
X49710493Y-37208850D01*
X49631746Y-37264275D01*
X49559436Y-37286899D01*
X49497323Y-37316254D01*
X49345088Y-37395705D01*
X49111294Y-37520534D01*
X48804507Y-37686022D01*
X48433289Y-37887449D01*
X48006207Y-38120098D01*
X47531824Y-38379249D01*
X47018705Y-38660184D01*
X46475414Y-38958184D01*
X45910516Y-39268530D01*
X45332575Y-39586503D01*
X44750155Y-39907385D01*
X44171822Y-40226457D01*
X43606140Y-40538999D01*
X43061673Y-40840295D01*
X42546985Y-41125623D01*
X42070641Y-41390267D01*
X41641206Y-41629506D01*
X41267243Y-41838623D01*
X40957318Y-42012898D01*
X40719995Y-42147613D01*
X40563838Y-42238048D01*
X40497412Y-42279486D01*
X40496425Y-42280351D01*
X39673574Y-42280351D01*
X39642309Y-42126438D01*
X39530089Y-41575299D01*
X39415238Y-41012386D01*
X39300543Y-40451280D01*
X39188789Y-39905560D01*
X39082764Y-39388807D01*
X38985254Y-38914601D01*
X38899045Y-38496522D01*
X38826923Y-38148150D01*
X38771675Y-37883065D01*
X38736088Y-37714848D01*
X38735761Y-37713334D01*
X38675481Y-37425286D01*
X38611075Y-37104636D01*
X38565185Y-36866667D01*
X38525984Y-36664603D01*
X38469320Y-36381955D01*
X38401262Y-36048549D01*
X38327880Y-35694208D01*
X38283780Y-35483778D01*
X38209979Y-35131179D01*
X38137623Y-34781605D01*
X38072830Y-34464886D01*
X38021718Y-34210852D01*
X38000155Y-34100889D01*
X37944409Y-33818908D01*
X37881379Y-33511049D01*
X37832970Y-33282445D01*
X37779158Y-33025514D01*
X37717968Y-32720360D01*
X37661991Y-32429869D01*
X37658248Y-32409857D01*
X37615560Y-32189775D01*
X37578504Y-32014479D01*
X37553097Y-31911853D01*
X37547762Y-31897733D01*
X37527461Y-31827490D01*
X37496626Y-31680595D01*
X37468898Y-31528542D01*
X37437683Y-31359184D01*
X37388378Y-31106391D01*
X37326374Y-30797150D01*
X37257060Y-30458448D01*
X37210464Y-30234445D01*
X37100985Y-29710044D01*
X37015267Y-29295648D01*
X36953240Y-28990914D01*
X36914835Y-28795501D01*
X36899982Y-28709068D01*
X36899778Y-28705783D01*
X36851209Y-28709948D01*
X36727117Y-28739818D01*
X36631667Y-28766507D01*
X36424557Y-28819393D01*
X36224394Y-28858898D01*
X36166000Y-28867048D01*
X36062325Y-28883669D01*
X36004437Y-28918541D01*
X35990199Y-28992358D01*
X35370083Y-28992358D01*
X35366498Y-28977651D01*
X35331622Y-28770093D01*
X35329874Y-28623318D01*
X35360121Y-28521982D01*
X35421229Y-28450741D01*
X35450953Y-28429251D01*
X35546672Y-28391209D01*
X35727228Y-28339298D01*
X35966295Y-28279317D01*
X36237547Y-28217065D01*
X36514659Y-28158344D01*
X36771305Y-28108951D01*
X36981159Y-28074686D01*
X37117896Y-28061350D01*
X37121035Y-28061334D01*
X37259104Y-28114962D01*
X37259104Y-28114962D01*
G37*
X37259104Y-28114962D02*
X37380477Y-28264889D01*
X37474333Y-28494678D01*
X37511176Y-28654000D01*
X37537388Y-28792484D01*
X37583177Y-29025128D01*
X37645244Y-29335547D01*
X37720288Y-29707356D01*
X37805008Y-30124168D01*
X37896105Y-30569599D01*
X37943211Y-30798889D01*
X38130128Y-31708025D01*
X38309608Y-32582432D01*
X38479222Y-33410230D01*
X38636542Y-34179537D01*
X38779140Y-34878473D01*
X38904586Y-35495156D01*
X39010452Y-36017706D01*
X39045085Y-36189334D01*
X39105769Y-36489102D01*
X39183363Y-36870323D01*
X39271920Y-37303896D01*
X39365493Y-37760722D01*
X39458135Y-38211702D01*
X39494985Y-38390667D01*
X39586508Y-38836051D01*
X39682304Y-39304409D01*
X39776175Y-39765289D01*
X39861924Y-40188243D01*
X39933355Y-40542819D01*
X39955710Y-40654572D01*
X40131463Y-41535588D01*
X40364176Y-41406671D01*
X41529792Y-40761113D01*
X42599635Y-40168942D01*
X43576547Y-39628595D01*
X44463368Y-39138514D01*
X45262942Y-38697139D01*
X45978109Y-38302908D01*
X46611711Y-37954263D01*
X47166590Y-37649642D01*
X47645587Y-37387487D01*
X48051545Y-37166236D01*
X48387304Y-36984329D01*
X48655706Y-36840207D01*
X48859593Y-36732310D01*
X49001807Y-36659076D01*
X49082160Y-36620286D01*
X49672467Y-36403605D01*
X50335503Y-36240115D01*
X51043231Y-36132119D01*
X51767611Y-36081919D01*
X52480606Y-36091817D01*
X53154176Y-36164115D01*
X53579111Y-36251036D01*
X53679231Y-36280933D01*
X53879724Y-36345082D01*
X54174466Y-36441407D01*
X54557333Y-36567834D01*
X55022203Y-36722288D01*
X55562950Y-36902693D01*
X56173453Y-37106974D01*
X56847586Y-37333056D01*
X57579226Y-37578864D01*
X58362250Y-37842322D01*
X59190534Y-38121356D01*
X60057954Y-38413890D01*
X60958386Y-38717850D01*
X61885708Y-39031159D01*
X62833794Y-39351744D01*
X63796522Y-39677528D01*
X64767767Y-40006436D01*
X65741407Y-40336394D01*
X66711317Y-40665326D01*
X67671374Y-40991158D01*
X68615454Y-41311813D01*
X69537433Y-41625217D01*
X70431188Y-41929294D01*
X71290595Y-42221970D01*
X72109530Y-42501169D01*
X72881870Y-42764817D01*
X73601490Y-43010837D01*
X74262269Y-43237155D01*
X74858080Y-43441696D01*
X75382802Y-43622384D01*
X75830310Y-43777144D01*
X76194480Y-43903902D01*
X76469189Y-44000582D01*
X76648314Y-44065108D01*
X76721333Y-44093343D01*
X77097556Y-44306268D01*
X77408319Y-44575022D01*
X77619438Y-44860342D01*
X77765556Y-45121774D01*
X77765556Y-48436464D01*
X77764501Y-49262933D01*
X77761329Y-49977099D01*
X77756031Y-50579529D01*
X77748597Y-51070792D01*
X77739016Y-51451454D01*
X77727279Y-51722083D01*
X77713377Y-51883244D01*
X77704751Y-51925580D01*
X77629748Y-52041783D01*
X77481479Y-52199907D01*
X77281948Y-52381308D01*
X77053157Y-52567344D01*
X76817109Y-52739372D01*
X76595807Y-52878751D01*
X76550324Y-52903691D01*
X76449118Y-52958493D01*
X76256427Y-53064006D01*
X75978226Y-53216924D01*
X75620488Y-53413940D01*
X75189186Y-53651747D01*
X74690295Y-53927041D01*
X74129787Y-54236514D01*
X73513636Y-54576861D01*
X72847816Y-54944775D01*
X72138300Y-55336950D01*
X71391061Y-55750079D01*
X70612074Y-56180857D01*
X69807311Y-56625977D01*
X68982747Y-57082134D01*
X68144355Y-57546020D01*
X67298107Y-58014330D01*
X66449979Y-58483757D01*
X65605943Y-58950995D01*
X64771973Y-59412738D01*
X63954042Y-59865680D01*
X63158125Y-60306514D01*
X62390194Y-60731935D01*
X61656222Y-61138635D01*
X60962185Y-61523310D01*
X60314054Y-61882652D01*
X59717804Y-62213355D01*
X59179408Y-62512113D01*
X58704840Y-62775621D01*
X58300073Y-63000571D01*
X57971081Y-63183657D01*
X57723837Y-63321574D01*
X57564315Y-63411014D01*
X57502000Y-63446546D01*
X57328398Y-63540078D01*
X57105978Y-63647100D01*
X56868240Y-63752948D01*
X56648682Y-63842958D01*
X56480805Y-63902466D01*
X56430900Y-63915415D01*
X56315841Y-63967246D01*
X56276315Y-63997664D01*
X56173988Y-64050074D01*
X55991568Y-64107305D01*
X55761228Y-64162357D01*
X55515141Y-64208230D01*
X55285483Y-64237925D01*
X55137902Y-64245348D01*
X54982147Y-64245721D01*
X54744453Y-64247932D01*
X54455749Y-64251628D01*
X54146966Y-64256456D01*
X54111514Y-64257069D01*
X53817074Y-64259257D01*
X53553379Y-64255777D01*
X53346127Y-64247349D01*
X53221016Y-64234692D01*
X53208403Y-64231799D01*
X53090419Y-64203285D01*
X52897349Y-64161430D01*
X52665023Y-64113924D01*
X52591333Y-64099389D01*
X52364909Y-64050256D01*
X52177684Y-64000655D01*
X52060214Y-63959008D01*
X52041000Y-63947679D01*
X51981191Y-63922373D01*
X51970445Y-63960000D01*
X51946908Y-63999976D01*
X51899889Y-63971849D01*
X51840321Y-63948288D01*
X51678820Y-63890234D01*
X51420382Y-63799398D01*
X51070000Y-63677487D01*
X50632669Y-63526213D01*
X50113383Y-63347285D01*
X49517137Y-63142412D01*
X48848924Y-62913305D01*
X48113739Y-62661672D01*
X47316577Y-62389224D01*
X46462432Y-62097671D01*
X45556297Y-61788722D01*
X44603168Y-61464086D01*
X43608039Y-61125475D01*
X42575903Y-60774596D01*
X41511756Y-60413160D01*
X40661947Y-60124752D01*
X39572374Y-59754850D01*
X38508785Y-59393278D01*
X37476325Y-59041805D01*
X36480136Y-58702199D01*
X35525363Y-58376230D01*
X34617150Y-58065666D01*
X33760640Y-57772276D01*
X32960977Y-57497828D01*
X32223306Y-57244091D01*
X31552769Y-57012835D01*
X30954511Y-56805828D01*
X30433675Y-56624838D01*
X29995405Y-56471635D01*
X29644846Y-56347987D01*
X29387141Y-56255663D01*
X29227434Y-56196432D01*
X29175424Y-56174975D01*
X28963514Y-56046306D01*
X28736609Y-55873731D01*
X28520495Y-55680859D01*
X28340959Y-55491297D01*
X28223787Y-55328652D01*
X28203202Y-55284911D01*
X28192941Y-55202168D01*
X28183453Y-55015980D01*
X28174887Y-54735791D01*
X28167391Y-54371042D01*
X28161114Y-53931177D01*
X28156204Y-53425638D01*
X28152811Y-52863868D01*
X28151084Y-52255310D01*
X28150889Y-51963824D01*
X28150889Y-49594609D01*
X28800000Y-49594609D01*
X28828222Y-52219416D01*
X28835219Y-52862359D01*
X28842103Y-53402546D01*
X28850219Y-53850101D01*
X28860909Y-54215148D01*
X28875520Y-54507810D01*
X28895394Y-54738211D01*
X28921876Y-54916475D01*
X28956310Y-55052725D01*
X29000041Y-55157085D01*
X29054412Y-55239678D01*
X29120769Y-55310629D01*
X29200454Y-55380061D01*
X29253721Y-55423964D01*
X29407161Y-55524093D01*
X29638839Y-55632954D01*
X29960309Y-55755483D01*
X30290844Y-55866970D01*
X30561710Y-55955594D01*
X30917711Y-56073336D01*
X31337126Y-56212903D01*
X31798236Y-56367004D01*
X32279319Y-56528347D01*
X32758654Y-56689640D01*
X33214521Y-56843591D01*
X33625198Y-56982909D01*
X33968966Y-57100301D01*
X34134000Y-57157153D01*
X34313359Y-57218805D01*
X34584858Y-57311516D01*
X34941780Y-57433015D01*
X35377409Y-57581034D01*
X35885026Y-57753302D01*
X36457914Y-57947551D01*
X37089357Y-58161511D01*
X37772637Y-58392913D01*
X38501036Y-58639487D01*
X39267838Y-58898964D01*
X40066325Y-59169074D01*
X40889779Y-59447548D01*
X41731485Y-59732117D01*
X42584724Y-60020511D01*
X43442779Y-60310461D01*
X44298934Y-60599698D01*
X45146470Y-60885952D01*
X45978670Y-61166953D01*
X46788818Y-61440432D01*
X47570196Y-61704120D01*
X48316086Y-61955748D01*
X49019772Y-62193046D01*
X49674536Y-62413744D01*
X50273661Y-62615573D01*
X50810430Y-62796265D01*
X51278126Y-62953548D01*
X51670030Y-63085155D01*
X51979427Y-63188815D01*
X52199599Y-63262260D01*
X52323828Y-63303219D01*
X52349849Y-63311331D01*
X52441925Y-63333021D01*
X52464333Y-63341848D01*
X52523305Y-63364278D01*
X52534889Y-63367334D01*
X52628488Y-63393377D01*
X52633667Y-63395011D01*
X52726369Y-63418209D01*
X52732445Y-63419404D01*
X52832105Y-63450255D01*
X52873556Y-63466907D01*
X53032711Y-63525307D01*
X53210443Y-63565910D01*
X53427573Y-63590606D01*
X53704920Y-63601285D01*
X54063307Y-63599838D01*
X54284667Y-63595022D01*
X54692563Y-63580849D01*
X55010331Y-63560485D01*
X55260667Y-63531571D01*
X55466265Y-63491748D01*
X55582889Y-63460040D01*
X55914238Y-63355034D01*
X56170677Y-63260717D01*
X56387388Y-63162800D01*
X56598889Y-63047380D01*
X56699950Y-62989823D01*
X56886224Y-62885190D01*
X57144125Y-62741023D01*
X57460070Y-62564864D01*
X57820474Y-62364252D01*
X58211752Y-62146731D01*
X58620320Y-61919842D01*
X59032593Y-61691126D01*
X59434987Y-61468125D01*
X59813917Y-61258379D01*
X60155799Y-61069432D01*
X60447049Y-60908824D01*
X60674081Y-60784097D01*
X60775778Y-60728558D01*
X60975970Y-60619060D01*
X61256415Y-60464805D01*
X61603374Y-60273415D01*
X62003106Y-60052512D01*
X62441870Y-59809719D01*
X62905926Y-59552657D01*
X63381533Y-59288949D01*
X63854950Y-59026218D01*
X64312438Y-58772084D01*
X64740255Y-58534172D01*
X65124661Y-58320102D01*
X65451915Y-58137497D01*
X65708278Y-57993979D01*
X65880007Y-57897170D01*
X65884000Y-57894902D01*
X66187036Y-57724093D01*
X66543474Y-57525435D01*
X66907260Y-57324487D01*
X67210445Y-57158696D01*
X67758828Y-56859910D01*
X68345238Y-56538739D01*
X68961567Y-56199730D01*
X69599708Y-55847433D01*
X70251552Y-55486396D01*
X70908992Y-55121169D01*
X71563920Y-54756300D01*
X72208228Y-54396337D01*
X72833809Y-54045830D01*
X73432554Y-53709328D01*
X73996356Y-53391378D01*
X74517107Y-53096530D01*
X74986700Y-52829333D01*
X75397026Y-52594335D01*
X75739978Y-52396085D01*
X76007448Y-52239132D01*
X76191328Y-52128024D01*
X76278006Y-52071458D01*
X76484195Y-51910022D01*
X76673034Y-51744183D01*
X76810987Y-51603862D01*
X76834951Y-51574507D01*
X76905787Y-51479235D01*
X76964702Y-51388431D01*
X77012805Y-51291100D01*
X77051208Y-51176249D01*
X77081019Y-51032881D01*
X77103350Y-50850002D01*
X77119311Y-50616617D01*
X77130012Y-50321731D01*
X77136562Y-49954350D01*
X77140073Y-49503479D01*
X77141654Y-48958123D01*
X77142189Y-48531813D01*
X77144667Y-46114070D01*
X76933000Y-46275138D01*
X76742795Y-46407503D01*
X76538097Y-46532625D01*
X76495556Y-46555929D01*
X76401534Y-46606937D01*
X76215380Y-46709000D01*
X75943708Y-46858460D01*
X75593130Y-47051658D01*
X75170258Y-47284936D01*
X74681704Y-47554636D01*
X74134081Y-47857098D01*
X73534002Y-48188664D01*
X72888078Y-48545677D01*
X72202922Y-48924476D01*
X71485147Y-49321404D01*
X70741366Y-49732803D01*
X69978189Y-50155013D01*
X69202231Y-50584377D01*
X68420103Y-51017235D01*
X67638418Y-51449930D01*
X66863788Y-51878803D01*
X66102826Y-52300195D01*
X65362143Y-52710448D01*
X64648354Y-53105903D01*
X63968069Y-53482902D01*
X63327901Y-53837786D01*
X62734464Y-54166897D01*
X62194368Y-54466577D01*
X61714228Y-54733166D01*
X61340222Y-54941005D01*
X61229856Y-55002126D01*
X61034455Y-55110080D01*
X60767861Y-55257230D01*
X60443917Y-55435939D01*
X60076467Y-55638569D01*
X59679353Y-55857483D01*
X59421111Y-55999805D01*
X59012336Y-56225385D01*
X58624551Y-56439988D01*
X58271610Y-56635900D01*
X57967368Y-56805410D01*
X57725680Y-56940802D01*
X57560399Y-57034366D01*
X57502000Y-57068207D01*
X57333340Y-57159574D01*
X57116905Y-57264926D01*
X56884179Y-57370342D01*
X56666651Y-57461902D01*
X56495806Y-57525683D01*
X56420320Y-57546438D01*
X56313566Y-57582389D01*
X56221759Y-57626741D01*
X56059924Y-57691499D01*
X55826813Y-57756184D01*
X55563706Y-57812025D01*
X55311880Y-57850253D01*
X55113784Y-57862129D01*
X54967284Y-57860152D01*
X54738084Y-57859038D01*
X54456368Y-57858857D01*
X54152323Y-57859680D01*
X54120947Y-57859824D01*
X53547192Y-57846584D01*
X53019294Y-57802873D01*
X52556850Y-57731196D01*
X52179457Y-57634057D01*
X52083333Y-57599376D01*
X51951995Y-57560743D01*
X51914000Y-57553610D01*
X51838579Y-57532193D01*
X51662484Y-57476133D01*
X51391792Y-57387505D01*
X51032578Y-57268385D01*
X50590919Y-57120847D01*
X50072891Y-56946969D01*
X49484571Y-56748824D01*
X48832035Y-56528490D01*
X48121359Y-56288041D01*
X47358620Y-56029553D01*
X46549893Y-55755102D01*
X45701255Y-55466763D01*
X44818783Y-55166612D01*
X43908552Y-54856724D01*
X42976639Y-54539175D01*
X42029121Y-54216041D01*
X41072073Y-53889397D01*
X40111571Y-53561319D01*
X39153693Y-53233882D01*
X38204514Y-52909162D01*
X37270111Y-52589234D01*
X36356560Y-52276175D01*
X35469937Y-51972059D01*
X34616319Y-51678962D01*
X33801781Y-51398960D01*
X33032401Y-51134129D01*
X32314254Y-50886543D01*
X32056091Y-50797369D01*
X34273443Y-50797369D01*
X34329541Y-50819456D01*
X34480266Y-50873540D01*
X34713319Y-50955419D01*
X35016400Y-51060886D01*
X35377211Y-51185735D01*
X35783453Y-51325762D01*
X36222825Y-51476762D01*
X36683030Y-51634528D01*
X37151768Y-51794856D01*
X37616740Y-51953540D01*
X38065647Y-52106375D01*
X38486190Y-52249156D01*
X38866069Y-52377678D01*
X39192986Y-52487734D01*
X39454641Y-52575121D01*
X39638736Y-52635631D01*
X39732971Y-52665061D01*
X39742150Y-52667229D01*
X39770873Y-52630460D01*
X39764351Y-52600556D01*
X39591489Y-52135167D01*
X39453723Y-51765740D01*
X39347272Y-51482255D01*
X39268361Y-51274687D01*
X39213209Y-51133016D01*
X39184521Y-51062445D01*
X39161889Y-51006000D01*
X39778445Y-51006000D01*
X39806667Y-51034222D01*
X39834889Y-51006000D01*
X39806667Y-50977778D01*
X39778445Y-51006000D01*
X39161889Y-51006000D01*
X39141990Y-50956375D01*
X39067264Y-50765034D01*
X38968185Y-50508700D01*
X38931568Y-50413334D01*
X39552667Y-50413334D01*
X39573319Y-50459794D01*
X39590296Y-50450963D01*
X39597052Y-50383977D01*
X39590296Y-50375704D01*
X39556740Y-50383452D01*
X39552667Y-50413334D01*
X38931568Y-50413334D01*
X38852593Y-50207653D01*
X38737148Y-49905334D01*
X38582442Y-49499953D01*
X38462475Y-49188338D01*
X38372207Y-48958608D01*
X38306601Y-48798880D01*
X38260617Y-48697271D01*
X38229218Y-48641900D01*
X38207365Y-48620883D01*
X38192600Y-48621126D01*
X38111255Y-48661512D01*
X37948961Y-48747526D01*
X37718467Y-48872087D01*
X37432523Y-49028118D01*
X37103878Y-49208537D01*
X36745281Y-49406266D01*
X36369481Y-49614226D01*
X35989228Y-49825336D01*
X35617271Y-50032517D01*
X35266358Y-50228690D01*
X34949241Y-50406776D01*
X34678667Y-50559695D01*
X34467386Y-50680367D01*
X34328147Y-50761713D01*
X34273699Y-50796653D01*
X34273443Y-50797369D01*
X32056091Y-50797369D01*
X31653417Y-50658279D01*
X31055966Y-50451413D01*
X30527977Y-50268019D01*
X30075527Y-50110173D01*
X29704692Y-49979951D01*
X29421548Y-49879429D01*
X29232172Y-49810681D01*
X29142639Y-49775785D01*
X29138667Y-49773851D01*
X28800000Y-49594609D01*
X28150889Y-49594609D01*
X28150889Y-48780331D01*
X28229798Y-48636772D01*
X29557909Y-48636772D01*
X29563930Y-48856232D01*
X29574232Y-48888164D01*
X29663743Y-49035137D01*
X29806787Y-49180053D01*
X29966303Y-49291616D01*
X30105230Y-49338530D01*
X30107630Y-49338595D01*
X30213151Y-49362295D01*
X30248741Y-49395152D01*
X30303073Y-49422947D01*
X30448077Y-49481607D01*
X30667635Y-49565396D01*
X30945629Y-49668575D01*
X31265942Y-49785407D01*
X31612456Y-49910154D01*
X31969052Y-50037080D01*
X32319613Y-50160445D01*
X32648021Y-50274512D01*
X32938159Y-50373545D01*
X33173907Y-50451805D01*
X33339149Y-50503554D01*
X33417093Y-50523015D01*
X33475142Y-50497559D01*
X33621019Y-50423645D01*
X33843616Y-50307178D01*
X34131826Y-50154065D01*
X34474540Y-49970210D01*
X34860649Y-49761520D01*
X35279047Y-49533900D01*
X35336204Y-49502696D01*
X35959923Y-49160796D01*
X36507150Y-48858240D01*
X36974043Y-48597211D01*
X37356765Y-48379889D01*
X37651475Y-48208458D01*
X37854334Y-48085099D01*
X37961503Y-48011994D01*
X37966260Y-48008009D01*
X37960720Y-47947909D01*
X37921037Y-47811956D01*
X37856911Y-47628321D01*
X37778041Y-47425180D01*
X37712897Y-47272136D01*
X37658688Y-47133569D01*
X37633740Y-47036177D01*
X37633556Y-47031482D01*
X37607494Y-46932826D01*
X37577594Y-46870679D01*
X37538367Y-46784807D01*
X37467276Y-46612980D01*
X37372021Y-46374973D01*
X37260303Y-46090558D01*
X37139822Y-45779510D01*
X37018279Y-45461602D01*
X36903375Y-45156608D01*
X36802809Y-44884303D01*
X36785892Y-44837711D01*
X36713616Y-44652866D01*
X36649250Y-44513954D01*
X36608154Y-44452634D01*
X36550256Y-44473112D01*
X36403946Y-44543808D01*
X36179034Y-44659289D01*
X35885324Y-44814121D01*
X35532626Y-45002873D01*
X35130747Y-45220109D01*
X34689494Y-45460399D01*
X34218674Y-45718307D01*
X33728094Y-45988402D01*
X33227563Y-46265250D01*
X32726887Y-46543417D01*
X32235874Y-46817471D01*
X31764331Y-47081979D01*
X31322066Y-47331508D01*
X30918885Y-47560624D01*
X30564598Y-47763894D01*
X30269009Y-47935885D01*
X30041928Y-48071164D01*
X29893162Y-48164298D01*
X29840567Y-48201766D01*
X29652638Y-48412131D01*
X29557909Y-48636772D01*
X28229798Y-48636772D01*
X28352961Y-48412705D01*
X28509254Y-48163766D01*
X28684677Y-47972189D01*
X28903294Y-47802526D01*
X29010565Y-47734866D01*
X29207831Y-47617856D01*
X29486169Y-47456545D01*
X29836657Y-47255986D01*
X30250375Y-47021227D01*
X30718400Y-46757320D01*
X31231811Y-46469316D01*
X31781685Y-46162265D01*
X32359101Y-45841218D01*
X32769055Y-45614097D01*
X33442838Y-45241272D01*
X34024509Y-44919003D01*
X34520767Y-44643254D01*
X34938312Y-44409988D01*
X35283841Y-44215169D01*
X35564054Y-44054759D01*
X35785649Y-43924723D01*
X35955326Y-43821024D01*
X36079782Y-43739626D01*
X36165718Y-43676491D01*
X36219832Y-43627583D01*
X36248823Y-43588866D01*
X36259389Y-43556303D01*
X36258230Y-43525857D01*
X36255911Y-43513002D01*
X36213421Y-43366144D01*
X36142621Y-43179569D01*
X36110967Y-43106876D01*
X36043877Y-42948560D01*
X36002763Y-42830255D01*
X35996667Y-42798345D01*
X35975713Y-42713535D01*
X35923503Y-42573041D01*
X35904176Y-42527137D01*
X35853091Y-42408760D01*
X35809842Y-42306784D01*
X35760751Y-42188305D01*
X35692136Y-42020417D01*
X35627655Y-41862000D01*
X35571173Y-41718933D01*
X35487105Y-41500809D01*
X35387229Y-41238375D01*
X35292582Y-40987111D01*
X35167090Y-40654157D01*
X35021561Y-40271047D01*
X34876946Y-39892812D01*
X34787576Y-39660667D01*
X34667524Y-39349624D01*
X34542618Y-39025300D01*
X34428882Y-38729338D01*
X34353189Y-38531778D01*
X34263815Y-38300276D01*
X34180728Y-38089040D01*
X34118860Y-37935935D01*
X34108335Y-37910889D01*
X34058159Y-37786996D01*
X33980730Y-37588560D01*
X33888161Y-37346843D01*
X33824026Y-37177111D01*
X33731380Y-36931993D01*
X33649173Y-36717173D01*
X33588114Y-36560494D01*
X33563460Y-36499778D01*
X33530284Y-36416694D01*
X33463262Y-36244225D01*
X33368609Y-35998531D01*
X33252538Y-35695768D01*
X33121263Y-35352097D01*
X33031661Y-35116889D01*
X32892163Y-34751322D01*
X32762155Y-34412506D01*
X32648247Y-34117523D01*
X32557050Y-33883452D01*
X32495176Y-33727376D01*
X32474565Y-33677556D01*
X32414369Y-33532119D01*
X32334949Y-33330953D01*
X32273177Y-33169556D01*
X32191528Y-32957606D01*
X32112742Y-32760843D01*
X32067352Y-32653025D01*
X32013902Y-32515206D01*
X31989294Y-32419583D01*
X31989111Y-32415051D01*
X31968113Y-32328533D01*
X31915806Y-32186971D01*
X31896621Y-32141360D01*
X31825358Y-31974994D01*
X31766903Y-31835550D01*
X31758468Y-31814889D01*
X31720670Y-31723866D01*
X31648045Y-31550977D01*
X31549883Y-31318269D01*
X31435474Y-31047789D01*
X31392348Y-30946004D01*
X31277281Y-30664916D01*
X31180533Y-30410218D01*
X31123584Y-30243749D01*
X31754803Y-30243749D01*
X31759626Y-30302241D01*
X31764330Y-30311358D01*
X31860865Y-30506378D01*
X31985574Y-30786000D01*
X32129276Y-31128298D01*
X32282791Y-31511345D01*
X32436938Y-31913213D01*
X32452932Y-31956000D01*
X32563777Y-32250881D01*
X32669320Y-32527326D01*
X32759205Y-32758498D01*
X32823074Y-32917561D01*
X32834134Y-32943778D01*
X32898579Y-33098617D01*
X32977005Y-33297251D01*
X33076587Y-33558313D01*
X33204496Y-33900435D01*
X33257903Y-34044445D01*
X33348525Y-34285913D01*
X33441865Y-34529294D01*
X33523493Y-34737320D01*
X33574756Y-34862889D01*
X33619538Y-34971949D01*
X33687107Y-35143117D01*
X33781177Y-35386014D01*
X33905461Y-35710259D01*
X34063673Y-36125472D01*
X34163000Y-36386889D01*
X34411489Y-37040817D01*
X34622309Y-37594343D01*
X34797490Y-38052742D01*
X34939066Y-38421291D01*
X35049068Y-38705265D01*
X35129530Y-38909938D01*
X35182483Y-39040586D01*
X35206824Y-39096222D01*
X35250192Y-39197199D01*
X35323945Y-39380156D01*
X35418912Y-39621345D01*
X35525919Y-39897016D01*
X35635794Y-40183420D01*
X35739363Y-40456806D01*
X35827455Y-40693425D01*
X35882640Y-40846000D01*
X35938777Y-40999473D01*
X36025508Y-41229933D01*
X36134906Y-41516927D01*
X36259043Y-41840004D01*
X36389991Y-42178713D01*
X36519822Y-42512601D01*
X36640608Y-42821217D01*
X36744423Y-43084110D01*
X36823337Y-43280827D01*
X36867230Y-43386000D01*
X36918337Y-43510066D01*
X36996069Y-43708796D01*
X37088280Y-43950832D01*
X37151435Y-44119778D01*
X37274487Y-44451042D01*
X37370316Y-44707062D01*
X37450668Y-44918543D01*
X37527285Y-45116192D01*
X37611913Y-45330714D01*
X37680334Y-45502667D01*
X37758473Y-45701826D01*
X37865079Y-45977956D01*
X37989126Y-46302270D01*
X38119585Y-46645984D01*
X38199278Y-46857334D01*
X38320832Y-47178691D01*
X38435952Y-47479527D01*
X38535823Y-47737060D01*
X38611626Y-47928511D01*
X38647127Y-48014445D01*
X38697519Y-48138366D01*
X38778874Y-48347111D01*
X38883121Y-48619580D01*
X39002185Y-48934673D01*
X39127994Y-49271287D01*
X39128257Y-49271995D01*
X39247154Y-49587857D01*
X39353360Y-49862329D01*
X39440590Y-50079785D01*
X39502555Y-50224599D01*
X39532968Y-50281148D01*
X39534334Y-50281147D01*
X39526006Y-50222257D01*
X39487182Y-50077170D01*
X39423850Y-49866522D01*
X39341994Y-49610949D01*
X39325108Y-49559819D01*
X39233589Y-49287250D01*
X39150553Y-49045852D01*
X39084536Y-48860046D01*
X39044076Y-48754253D01*
X39041402Y-48748222D01*
X39007447Y-48659406D01*
X38945394Y-48482990D01*
X38862006Y-48238744D01*
X38781844Y-47999554D01*
X39439778Y-47999554D01*
X39457482Y-48068419D01*
X39507804Y-48231502D01*
X39586560Y-48476298D01*
X39689567Y-48790306D01*
X39812640Y-49161021D01*
X39951596Y-49575939D01*
X40102250Y-50022557D01*
X40260419Y-50488371D01*
X40421919Y-50960877D01*
X40582565Y-51427572D01*
X40705629Y-51782517D01*
X40801431Y-52089971D01*
X40840886Y-52316522D01*
X40821586Y-52480436D01*
X40741126Y-52599979D01*
X40597098Y-52693417D01*
X40584823Y-52699334D01*
X40443911Y-52771858D01*
X40357525Y-52827169D01*
X40344934Y-52842208D01*
X40396825Y-52863076D01*
X40547519Y-52917362D01*
X40788890Y-53002299D01*
X41112810Y-53115114D01*
X41511153Y-53253039D01*
X41975791Y-53413304D01*
X42498597Y-53593139D01*
X43071443Y-53789773D01*
X43686202Y-54000438D01*
X44334748Y-54222364D01*
X45008953Y-54452780D01*
X45700690Y-54688917D01*
X46401831Y-54928005D01*
X47104249Y-55167274D01*
X47799818Y-55403954D01*
X48480409Y-55635276D01*
X49137896Y-55858470D01*
X49764152Y-56070765D01*
X50351049Y-56269392D01*
X50890459Y-56451582D01*
X51374257Y-56614564D01*
X51794314Y-56755568D01*
X52142504Y-56871825D01*
X52410699Y-56960566D01*
X52590772Y-57019019D01*
X52674595Y-57044415D01*
X52676000Y-57044742D01*
X52794849Y-57075498D01*
X52970736Y-57125495D01*
X53071111Y-57155355D01*
X53281112Y-57195249D01*
X53575630Y-57219420D01*
X53927506Y-57228655D01*
X54309583Y-57223739D01*
X54694702Y-57205460D01*
X55055706Y-57174603D01*
X55365435Y-57131954D01*
X55582889Y-57082635D01*
X55910224Y-56978204D01*
X56165757Y-56883549D01*
X56387652Y-56782925D01*
X56614074Y-56660586D01*
X56634799Y-56648654D01*
X56754801Y-56580680D01*
X56959394Y-56466347D01*
X57234210Y-56313619D01*
X57564881Y-56130459D01*
X57937039Y-55924830D01*
X58336316Y-55704697D01*
X58566499Y-55578000D01*
X58958615Y-55361508D01*
X59317258Y-55161961D01*
X59630898Y-54985894D01*
X59888005Y-54839845D01*
X60077046Y-54730348D01*
X60186492Y-54663939D01*
X60209573Y-54646667D01*
X60157391Y-54624984D01*
X60004890Y-54569352D01*
X59758678Y-54482024D01*
X59425362Y-54365251D01*
X59011550Y-54221287D01*
X58523850Y-54052383D01*
X57968869Y-53860793D01*
X57353216Y-53648769D01*
X56683498Y-53418562D01*
X55966323Y-53172427D01*
X55208298Y-52912615D01*
X54416031Y-52641379D01*
X53596130Y-52360972D01*
X52755203Y-52073645D01*
X51899857Y-51781651D01*
X51036700Y-51487244D01*
X50172340Y-51192675D01*
X49313384Y-50900196D01*
X48466441Y-50612062D01*
X47638118Y-50330523D01*
X46835022Y-50057832D01*
X46063762Y-49796243D01*
X45330945Y-49548007D01*
X44643179Y-49315377D01*
X44007071Y-49100605D01*
X43429230Y-48905944D01*
X42916263Y-48733647D01*
X42474777Y-48585966D01*
X42111381Y-48465153D01*
X41832683Y-48373462D01*
X41645289Y-48313143D01*
X41555808Y-48286451D01*
X41548878Y-48285419D01*
X41543780Y-48306668D01*
X41546836Y-48359285D01*
X41559796Y-48452354D01*
X41584409Y-48594954D01*
X41622424Y-48796169D01*
X41675592Y-49065080D01*
X41745662Y-49410770D01*
X41834382Y-49842320D01*
X41943504Y-50368811D01*
X42033842Y-50802924D01*
X42104372Y-51148122D01*
X42166043Y-51462695D01*
X42215252Y-51727209D01*
X42248397Y-51922230D01*
X42261873Y-52028323D01*
X42262000Y-52033471D01*
X42207854Y-52155333D01*
X42052876Y-52257590D01*
X41808250Y-52334617D01*
X41592425Y-52370186D01*
X41414280Y-52380354D01*
X41305141Y-52351910D01*
X41241219Y-52296219D01*
X41208572Y-52219970D01*
X41152805Y-52046195D01*
X41077273Y-51787109D01*
X40985329Y-51454928D01*
X40880329Y-51061865D01*
X40765628Y-50620137D01*
X40644579Y-50141957D01*
X40596235Y-49947667D01*
X40577378Y-49872408D01*
X41194012Y-49872408D01*
X41204389Y-49945617D01*
X41223657Y-49946491D01*
X41237132Y-49870946D01*
X41228114Y-49838306D01*
X41203050Y-49816926D01*
X41194012Y-49872408D01*
X40577378Y-49872408D01*
X40474938Y-49463580D01*
X40359870Y-49015414D01*
X40254183Y-48614648D01*
X40161033Y-48272758D01*
X40083572Y-48001225D01*
X40024954Y-47811526D01*
X39988334Y-47715139D01*
X39980128Y-47705240D01*
X39866927Y-47732077D01*
X39719692Y-47795784D01*
X39575243Y-47876308D01*
X39470398Y-47953594D01*
X39439778Y-47999554D01*
X38781844Y-47999554D01*
X38764043Y-47946441D01*
X38674633Y-47675778D01*
X38569708Y-47358241D01*
X38473785Y-47072001D01*
X38393592Y-46836826D01*
X38335861Y-46672483D01*
X38309515Y-46603334D01*
X38277726Y-46518489D01*
X38216515Y-46343411D01*
X38131677Y-46095122D01*
X38029008Y-45790643D01*
X37914303Y-45446997D01*
X37857913Y-45276889D01*
X37739588Y-44920727D01*
X37630629Y-44595735D01*
X37536825Y-44318934D01*
X37463959Y-44107345D01*
X37417820Y-43977989D01*
X37407014Y-43950445D01*
X37375753Y-43866839D01*
X37313939Y-43691243D01*
X37301313Y-43654714D01*
X37941728Y-43654714D01*
X38197173Y-44423468D01*
X38290752Y-44702590D01*
X38373462Y-44944627D01*
X38438055Y-45128719D01*
X38477285Y-45234003D01*
X38483842Y-45248667D01*
X38510403Y-45317862D01*
X38565722Y-45476819D01*
X38643832Y-45707882D01*
X38738770Y-45993397D01*
X38844569Y-46315710D01*
X38850422Y-46333652D01*
X38956101Y-46653050D01*
X39051412Y-46932214D01*
X39130478Y-47154650D01*
X39187427Y-47303867D01*
X39216383Y-47363372D01*
X39217323Y-47363764D01*
X39282538Y-47334684D01*
X39340236Y-47294778D01*
X39370153Y-47261962D01*
X39391299Y-47206918D01*
X39404094Y-47114969D01*
X39408955Y-46971435D01*
X39406300Y-46761637D01*
X39396546Y-46470897D01*
X39380112Y-46084536D01*
X39376791Y-46010667D01*
X39356220Y-45586064D01*
X39335362Y-45248042D01*
X39310916Y-44970333D01*
X39279582Y-44726668D01*
X39238056Y-44490780D01*
X39183039Y-44236401D01*
X39121399Y-43978667D01*
X39050201Y-43691361D01*
X38987845Y-43445768D01*
X38939416Y-43261448D01*
X38909998Y-43157965D01*
X38904142Y-43142769D01*
X38851189Y-43160942D01*
X38722376Y-43224031D01*
X38539817Y-43320870D01*
X38414596Y-43390015D01*
X37941728Y-43654714D01*
X37301313Y-43654714D01*
X37226671Y-43438778D01*
X37119050Y-43124565D01*
X36996175Y-42763726D01*
X36863146Y-42371380D01*
X36725064Y-41962650D01*
X36587028Y-41552655D01*
X36454138Y-41156518D01*
X36331494Y-40789359D01*
X36224195Y-40466299D01*
X36137343Y-40202458D01*
X36076036Y-40012959D01*
X36045852Y-39914667D01*
X35993714Y-39747048D01*
X35941621Y-39610001D01*
X35938986Y-39604222D01*
X35906594Y-39519360D01*
X35844889Y-39344243D01*
X35759690Y-39095899D01*
X35656813Y-38791358D01*
X35542077Y-38447648D01*
X35485828Y-38277778D01*
X35367613Y-37921580D01*
X35258662Y-37596560D01*
X35164769Y-37319745D01*
X35091730Y-37108161D01*
X35045338Y-36978834D01*
X35034398Y-36951334D01*
X35002525Y-36866470D01*
X34941319Y-36691350D01*
X34856568Y-36443003D01*
X34754062Y-36138457D01*
X34639590Y-35794743D01*
X34583427Y-35624889D01*
X34465374Y-35268679D01*
X34356631Y-34943650D01*
X34262975Y-34666830D01*
X34190188Y-34455247D01*
X34144049Y-34325930D01*
X34133226Y-34298445D01*
X34102719Y-34216949D01*
X34041515Y-34043430D01*
X33954712Y-33792927D01*
X33847409Y-33480481D01*
X33724705Y-33121129D01*
X33591697Y-32729914D01*
X33453486Y-32321873D01*
X33315170Y-31912047D01*
X33181847Y-31515476D01*
X33058616Y-31147198D01*
X32950575Y-30822255D01*
X32862825Y-30555686D01*
X32827191Y-30446015D01*
X32748449Y-30206518D01*
X32691464Y-30056170D01*
X32644053Y-29976455D01*
X32594030Y-29948859D01*
X32529212Y-29954864D01*
X32507320Y-29959909D01*
X32374145Y-30000746D01*
X32299556Y-30035913D01*
X32214671Y-30073432D01*
X32063777Y-30123082D01*
X31978492Y-30147377D01*
X31821052Y-30197263D01*
X31754803Y-30243749D01*
X31123584Y-30243749D01*
X31110270Y-30204834D01*
X31074657Y-30071691D01*
X31071889Y-30046303D01*
X31105021Y-29912696D01*
X31212717Y-29798446D01*
X31407431Y-29694751D01*
X31701615Y-29592804D01*
X31721730Y-29586837D01*
X31934552Y-29520910D01*
X32113951Y-29459540D01*
X32224041Y-29415069D01*
X32229745Y-29412088D01*
X32339484Y-29376266D01*
X32516135Y-29341905D01*
X32653078Y-29324024D01*
X32847532Y-29310259D01*
X32965672Y-29323693D01*
X33042063Y-29370321D01*
X33065276Y-29395523D01*
X33103085Y-29472172D01*
X33171190Y-29643263D01*
X33264969Y-29895882D01*
X33379799Y-30217119D01*
X33511058Y-30594060D01*
X33654124Y-31013796D01*
X33789921Y-31419778D01*
X33939730Y-31870238D01*
X34081077Y-32292598D01*
X34209395Y-32673410D01*
X34320118Y-32999226D01*
X34408677Y-33256599D01*
X34470505Y-33432081D01*
X34499234Y-33508222D01*
X34540865Y-33618295D01*
X34608994Y-33813740D01*
X34696087Y-34072294D01*
X34794608Y-34371693D01*
X34862173Y-34580667D01*
X34962244Y-34889344D01*
X35053988Y-35166621D01*
X35130431Y-35391861D01*
X35184602Y-35544426D01*
X35205413Y-35596667D01*
X35237921Y-35680756D01*
X35300199Y-35855481D01*
X35386541Y-36104308D01*
X35491241Y-36410705D01*
X35608591Y-36758139D01*
X35682745Y-36979556D01*
X35934258Y-37731414D01*
X36178925Y-38459827D01*
X36414175Y-39157311D01*
X36637437Y-39816385D01*
X36846142Y-40429564D01*
X37037719Y-40989368D01*
X37209597Y-41488313D01*
X37359207Y-41918916D01*
X37483979Y-42273695D01*
X37581341Y-42545168D01*
X37648724Y-42725852D01*
X37683558Y-42808264D01*
X37686218Y-42812129D01*
X37755199Y-42808512D01*
X37900279Y-42755158D01*
X38100752Y-42660407D01*
X38222835Y-42596009D01*
X38462092Y-42459286D01*
X38609762Y-42358011D01*
X38677876Y-42282823D01*
X38683828Y-42237336D01*
X38662946Y-42155335D01*
X38620310Y-41982154D01*
X38560450Y-41736400D01*
X38487897Y-41436678D01*
X38407182Y-41101595D01*
X38400018Y-41071778D01*
X38316851Y-40727992D01*
X38239288Y-40411851D01*
X38172400Y-40143679D01*
X38121259Y-39943798D01*
X38090935Y-39832531D01*
X38090162Y-39830000D01*
X38041481Y-39649177D01*
X38000445Y-39463111D01*
X37957701Y-39270639D01*
X37910263Y-39096222D01*
X37882485Y-38995563D01*
X37831511Y-38799460D01*
X37760888Y-38522143D01*
X37674162Y-38177844D01*
X37574882Y-37780792D01*
X37466594Y-37345221D01*
X37352845Y-36885359D01*
X37237184Y-36415438D01*
X37123156Y-35949689D01*
X37014311Y-35502343D01*
X37009811Y-35483778D01*
X36937228Y-35186409D01*
X36865457Y-34896019D01*
X36803405Y-34648445D01*
X36764317Y-34496000D01*
X36676683Y-34157672D01*
X36597948Y-33846453D01*
X36534188Y-33586812D01*
X36491478Y-33403218D01*
X36482663Y-33361638D01*
X36459667Y-33260015D01*
X36414915Y-33072264D01*
X36354062Y-32821770D01*
X36282764Y-32531914D01*
X36251932Y-32407556D01*
X36164254Y-32053674D01*
X36071320Y-31676820D01*
X35983599Y-31319536D01*
X35911555Y-31024364D01*
X35904777Y-30996445D01*
X35831150Y-30704313D01*
X35737488Y-30349193D01*
X35635914Y-29976304D01*
X35540172Y-29636490D01*
X35435636Y-29261335D01*
X35370083Y-28992358D01*
X35990199Y-28992358D01*
X36017475Y-29125815D01*
X36084129Y-29339607D01*
X36109332Y-29416000D01*
X36143317Y-29532689D01*
X36200917Y-29746875D01*
X36279030Y-30046376D01*
X36374553Y-30419007D01*
X36484382Y-30852584D01*
X36605414Y-31334924D01*
X36734547Y-31853844D01*
X36868677Y-32397159D01*
X36871233Y-32407556D01*
X37004679Y-32949893D01*
X37132150Y-33467082D01*
X37250671Y-33947104D01*
X37357263Y-34377943D01*
X37448952Y-34747579D01*
X37522758Y-35043994D01*
X37575705Y-35255172D01*
X37604817Y-35369093D01*
X37605293Y-35370889D01*
X37663691Y-35599579D01*
X37720546Y-35835533D01*
X37736892Y-35907111D01*
X37763204Y-36017947D01*
X37813816Y-36224601D01*
X37885332Y-36513453D01*
X37974360Y-36870881D01*
X38077504Y-37283264D01*
X38191372Y-37736981D01*
X38312568Y-38218411D01*
X38334657Y-38306000D01*
X38545928Y-39144498D01*
X38730469Y-39879087D01*
X38889627Y-40515200D01*
X39024748Y-41058269D01*
X39137178Y-41513728D01*
X39228264Y-41887008D01*
X39299352Y-42183544D01*
X39351788Y-42408767D01*
X39355802Y-42426445D01*
X39401390Y-42619675D01*
X39466431Y-42884954D01*
X39541722Y-43185138D01*
X39607537Y-43442445D01*
X39684374Y-43742979D01*
X39759008Y-44040492D01*
X39822197Y-44297834D01*
X39860282Y-44458445D01*
X39897531Y-44614902D01*
X39957283Y-44858852D01*
X40034099Y-45168409D01*
X40122540Y-45521691D01*
X40217168Y-45896812D01*
X40246034Y-46010667D01*
X40356138Y-46447933D01*
X40475052Y-46926169D01*
X40593427Y-47407377D01*
X40701912Y-47853555D01*
X40787682Y-48212000D01*
X40894378Y-48661461D01*
X40978668Y-49011890D01*
X41043453Y-49274273D01*
X41091634Y-49459594D01*
X41126114Y-49578838D01*
X41149794Y-49642988D01*
X41165574Y-49663029D01*
X41170429Y-49661053D01*
X41166878Y-49601201D01*
X41142524Y-49451043D01*
X41101007Y-49230485D01*
X41045966Y-48959432D01*
X41017883Y-48826879D01*
X40935999Y-48440848D01*
X40843934Y-47999907D01*
X40753277Y-47559914D01*
X40679481Y-47196000D01*
X40619004Y-46896260D01*
X40541526Y-46515080D01*
X40452994Y-46081551D01*
X40359353Y-45624765D01*
X40266548Y-45173815D01*
X40229563Y-44994667D01*
X40136242Y-44542326D01*
X40037135Y-44060558D01*
X39938849Y-43581574D01*
X39849565Y-43145268D01*
X40481948Y-43145268D01*
X40486727Y-43203290D01*
X40510483Y-43346415D01*
X40548818Y-43549300D01*
X40572690Y-43668222D01*
X40611206Y-43856648D01*
X40668295Y-44136065D01*
X40739952Y-44486857D01*
X40822170Y-44889409D01*
X40910942Y-45324105D01*
X41002262Y-45771329D01*
X41015529Y-45836306D01*
X41102121Y-46254781D01*
X41183495Y-46637398D01*
X41256497Y-46970151D01*
X41317974Y-47239035D01*
X41364772Y-47430045D01*
X41393739Y-47529174D01*
X41399017Y-47539511D01*
X41455487Y-47561350D01*
X41612280Y-47617375D01*
X41862868Y-47705352D01*
X42200722Y-47823045D01*
X42619314Y-47968219D01*
X43112115Y-48138640D01*
X43672595Y-48332071D01*
X44294228Y-48546278D01*
X44970483Y-48779026D01*
X45694832Y-49028079D01*
X46460748Y-49291203D01*
X47261700Y-49566162D01*
X48091161Y-49850721D01*
X48942601Y-50142646D01*
X49809493Y-50439700D01*
X50685307Y-50739649D01*
X51563514Y-51040258D01*
X52437587Y-51339291D01*
X53300997Y-51634514D01*
X54147214Y-51923691D01*
X54969711Y-52204588D01*
X55761958Y-52474968D01*
X56517428Y-52732597D01*
X57229591Y-52975240D01*
X57891918Y-53200662D01*
X58497882Y-53406627D01*
X59040953Y-53590901D01*
X59514602Y-53751248D01*
X59912302Y-53885433D01*
X60227524Y-53991222D01*
X60453738Y-54066378D01*
X60584417Y-54108667D01*
X60606445Y-54115309D01*
X60781648Y-54160007D01*
X60923828Y-54187593D01*
X60960143Y-54191302D01*
X61028703Y-54165457D01*
X61185458Y-54089955D01*
X61420082Y-53970252D01*
X61722250Y-53811807D01*
X62081636Y-53620076D01*
X62487915Y-53400516D01*
X62930762Y-53158585D01*
X63316699Y-52945808D01*
X63778467Y-52689443D01*
X64208415Y-52449294D01*
X64596749Y-52230939D01*
X64933672Y-52039952D01*
X65209390Y-51881910D01*
X65414106Y-51762390D01*
X65538025Y-51686966D01*
X65572513Y-51661697D01*
X65520081Y-51639094D01*
X65367910Y-51582942D01*
X65123243Y-51495741D01*
X64793320Y-51379989D01*
X64385382Y-51238183D01*
X63906672Y-51072822D01*
X63364430Y-50886404D01*
X62765897Y-50681428D01*
X62118315Y-50460390D01*
X61428925Y-50225790D01*
X60704968Y-49980126D01*
X60337291Y-49855617D01*
X59592633Y-49603576D01*
X58754702Y-49319884D01*
X57837131Y-49009161D01*
X57315296Y-48832417D01*
X59629144Y-48832417D01*
X59692523Y-48861613D01*
X59852050Y-48922169D01*
X60096578Y-49010347D01*
X60414961Y-49122410D01*
X60796051Y-49254622D01*
X61228703Y-49403245D01*
X61701768Y-49564543D01*
X62204102Y-49734778D01*
X62724556Y-49910214D01*
X63251984Y-50087113D01*
X63775240Y-50261739D01*
X64283176Y-50430355D01*
X64764646Y-50589224D01*
X65208504Y-50734609D01*
X65603601Y-50862773D01*
X65938793Y-50969978D01*
X66202931Y-51052489D01*
X66384869Y-51106568D01*
X66473461Y-51128478D01*
X66478659Y-51128715D01*
X66553725Y-51099159D01*
X66717878Y-51019555D01*
X66961662Y-50894927D01*
X67275622Y-50730302D01*
X67650301Y-50530702D01*
X68076242Y-50301154D01*
X68543990Y-50046682D01*
X69044088Y-49772311D01*
X69370003Y-49592332D01*
X72118244Y-48070889D01*
X71597566Y-47893488D01*
X71443917Y-47841245D01*
X71195488Y-47756910D01*
X70864424Y-47644600D01*
X70462870Y-47508434D01*
X70002970Y-47352527D01*
X69496869Y-47180999D01*
X68956712Y-46997965D01*
X68394643Y-46807543D01*
X68163372Y-46729203D01*
X65249855Y-45742319D01*
X62426396Y-47273493D01*
X61907979Y-47555347D01*
X61421236Y-47821368D01*
X60974882Y-48066699D01*
X60577632Y-48286481D01*
X60238202Y-48475859D01*
X59965307Y-48629974D01*
X59767663Y-48743970D01*
X59653985Y-48812989D01*
X59629144Y-48832417D01*
X57315296Y-48832417D01*
X56853552Y-48676026D01*
X55817596Y-48325096D01*
X54742896Y-47960992D01*
X53643083Y-47588332D01*
X52531790Y-47211735D01*
X51569397Y-46885556D01*
X53833111Y-46885556D01*
X53861333Y-46913778D01*
X53866692Y-46908419D01*
X53978565Y-46908419D01*
X53978641Y-46908789D01*
X54039001Y-46935018D01*
X54193123Y-46992570D01*
X54427729Y-47076904D01*
X54729541Y-47183479D01*
X55085279Y-47307753D01*
X55481667Y-47445186D01*
X55905425Y-47591235D01*
X56343276Y-47741360D01*
X56781941Y-47891018D01*
X57208141Y-48035670D01*
X57608599Y-48170773D01*
X57970037Y-48291786D01*
X58279176Y-48394168D01*
X58522737Y-48473377D01*
X58687443Y-48524872D01*
X58760015Y-48544112D01*
X58760138Y-48544121D01*
X58871180Y-48523476D01*
X59027910Y-48463891D01*
X59084606Y-48436675D01*
X59229766Y-48359304D01*
X59439350Y-48243456D01*
X59680278Y-48107546D01*
X59830246Y-48021650D01*
X59997716Y-47926771D01*
X60250030Y-47786058D01*
X60572772Y-47607447D01*
X60951525Y-47398875D01*
X61371873Y-47168278D01*
X61819398Y-46923591D01*
X62279685Y-46672751D01*
X62356203Y-46631134D01*
X62799103Y-46389570D01*
X63216027Y-46160737D01*
X63595359Y-45951117D01*
X63925484Y-45767190D01*
X64194786Y-45615438D01*
X64391650Y-45502344D01*
X64504459Y-45434387D01*
X64520705Y-45423382D01*
X64606659Y-45358610D01*
X64675856Y-45295725D01*
X64729332Y-45222889D01*
X64768123Y-45128263D01*
X64793263Y-45000009D01*
X64805788Y-44826289D01*
X64806734Y-44595265D01*
X64797135Y-44295099D01*
X64778027Y-43913953D01*
X64750445Y-43439989D01*
X64727434Y-43059580D01*
X64699449Y-42601987D01*
X64673149Y-42178989D01*
X64649408Y-41804111D01*
X64629101Y-41490875D01*
X64613102Y-41252804D01*
X64605480Y-41147552D01*
X65209316Y-41147552D01*
X65212184Y-41315073D01*
X65220308Y-41563601D01*
X65232872Y-41877297D01*
X65249057Y-42240328D01*
X65268047Y-42636855D01*
X65289024Y-43051044D01*
X65311170Y-43467057D01*
X65333669Y-43869058D01*
X65355702Y-44241212D01*
X65376453Y-44567682D01*
X65395104Y-44832632D01*
X65410837Y-45020225D01*
X65420201Y-45100442D01*
X65473716Y-45128663D01*
X65623758Y-45188982D01*
X65859769Y-45277774D01*
X66171187Y-45391415D01*
X66547454Y-45526278D01*
X66978010Y-45678741D01*
X67452294Y-45845177D01*
X67959747Y-46021961D01*
X68489809Y-46205469D01*
X69031920Y-46392076D01*
X69575520Y-46578156D01*
X70110050Y-46760086D01*
X70624950Y-46934239D01*
X71109660Y-47096991D01*
X71553619Y-47244718D01*
X71946269Y-47373793D01*
X72277050Y-47480593D01*
X72535401Y-47561492D01*
X72710763Y-47612865D01*
X72792225Y-47631080D01*
X72862575Y-47605306D01*
X73018844Y-47531175D01*
X73248329Y-47415262D01*
X73538328Y-47264142D01*
X73876138Y-47084390D01*
X74249056Y-46882581D01*
X74435333Y-46780613D01*
X74959054Y-46489725D01*
X75389493Y-46242835D01*
X75734669Y-46034113D01*
X76002598Y-45857729D01*
X76201297Y-45707852D01*
X76338782Y-45578654D01*
X76423070Y-45464303D01*
X76462178Y-45358970D01*
X76467333Y-45302886D01*
X76412975Y-45061228D01*
X76255815Y-44846781D01*
X76004730Y-44670246D01*
X75902889Y-44622183D01*
X75739431Y-44551248D01*
X75603241Y-44490017D01*
X75592445Y-44484975D01*
X75526794Y-44460961D01*
X75363270Y-44403847D01*
X75110933Y-44316711D01*
X74778843Y-44202632D01*
X74376062Y-44064687D01*
X73911650Y-43905956D01*
X73394667Y-43729516D01*
X72834176Y-43538447D01*
X72239235Y-43335825D01*
X71618907Y-43124730D01*
X70982251Y-42908240D01*
X70338329Y-42689433D01*
X69696202Y-42471388D01*
X69064929Y-42257183D01*
X68453572Y-42049896D01*
X67871192Y-41852605D01*
X67326850Y-41668390D01*
X66829605Y-41500327D01*
X66388519Y-41351497D01*
X66012653Y-41224976D01*
X65711067Y-41123843D01*
X65492822Y-41051177D01*
X65366979Y-41010056D01*
X65341451Y-41002263D01*
X65247985Y-41026350D01*
X65212522Y-41076873D01*
X65209316Y-41147552D01*
X64605480Y-41147552D01*
X64602284Y-41103420D01*
X64598021Y-41057256D01*
X64547735Y-41073588D01*
X64403909Y-41142394D01*
X64171507Y-41260999D01*
X63855488Y-41426729D01*
X63460816Y-41636907D01*
X62992451Y-41888858D01*
X62455355Y-42179908D01*
X61854491Y-42507381D01*
X61194820Y-42868601D01*
X60481303Y-43260894D01*
X59718902Y-43681585D01*
X59266529Y-43931860D01*
X58551204Y-44328418D01*
X57864725Y-44709849D01*
X57213420Y-45072590D01*
X56603616Y-45413078D01*
X56041642Y-45727751D01*
X55533824Y-46013048D01*
X55086491Y-46265405D01*
X54705970Y-46481260D01*
X54398590Y-46657052D01*
X54170677Y-46789217D01*
X54028559Y-46874193D01*
X53978565Y-46908419D01*
X53866692Y-46908419D01*
X53889556Y-46885556D01*
X53861333Y-46857334D01*
X53833111Y-46885556D01*
X51569397Y-46885556D01*
X51422647Y-46835819D01*
X50329287Y-46465204D01*
X49265342Y-46104508D01*
X48244444Y-45758351D01*
X47799103Y-45607329D01*
X46924476Y-45310855D01*
X46079554Y-45024723D01*
X45270473Y-44750998D01*
X44503369Y-44491743D01*
X43828107Y-44263787D01*
X46270180Y-44263787D01*
X46321730Y-44287069D01*
X46469207Y-44342406D01*
X46701489Y-44426006D01*
X47007456Y-44534081D01*
X47375986Y-44662842D01*
X47795960Y-44808499D01*
X48256255Y-44967263D01*
X48745751Y-45135344D01*
X49253328Y-45308952D01*
X49767863Y-45484299D01*
X50278237Y-45657595D01*
X50773327Y-45825050D01*
X51242014Y-45982875D01*
X51673177Y-46127281D01*
X52055693Y-46254478D01*
X52378444Y-46360677D01*
X52630306Y-46442089D01*
X52800161Y-46494923D01*
X52876886Y-46515390D01*
X52878366Y-46515510D01*
X52943330Y-46489433D01*
X53097548Y-46413307D01*
X53331705Y-46292117D01*
X53636487Y-46130845D01*
X54002582Y-45934475D01*
X54420675Y-45707989D01*
X54881452Y-45456371D01*
X55375599Y-45184604D01*
X55667135Y-45023416D01*
X56174315Y-44742240D01*
X56651470Y-44477268D01*
X57089524Y-44233570D01*
X57479406Y-44016215D01*
X57812040Y-43830271D01*
X58078354Y-43680809D01*
X58269272Y-43572896D01*
X58375722Y-43511602D01*
X58395177Y-43499416D01*
X58393648Y-43440980D01*
X58388939Y-43435680D01*
X58329020Y-43409859D01*
X58174708Y-43352412D01*
X57938586Y-43267770D01*
X57633234Y-43160367D01*
X57271236Y-43034637D01*
X56865172Y-42895012D01*
X56530976Y-42781021D01*
X56067884Y-42623569D01*
X55611104Y-42468197D01*
X55178805Y-42321088D01*
X54789152Y-42188428D01*
X54460312Y-42076399D01*
X54210453Y-41991188D01*
X54115333Y-41958695D01*
X53893600Y-41884417D01*
X53711948Y-41830366D01*
X53544249Y-41792770D01*
X53364372Y-41767856D01*
X53146186Y-41751851D01*
X52863563Y-41740982D01*
X52551669Y-41732930D01*
X51925055Y-41733248D01*
X51388223Y-41768617D01*
X50922646Y-41842264D01*
X50509794Y-41957419D01*
X50131139Y-42117311D01*
X50023111Y-42173577D01*
X49776546Y-42307144D01*
X49487055Y-42463453D01*
X49211232Y-42611954D01*
X49171897Y-42633085D01*
X48832476Y-42816529D01*
X48469263Y-43014900D01*
X48095344Y-43220844D01*
X47723808Y-43427004D01*
X47367742Y-43626026D01*
X47040236Y-43810554D01*
X46754376Y-43973233D01*
X46523251Y-44106709D01*
X46359948Y-44203625D01*
X46277556Y-44256627D01*
X46270180Y-44263787D01*
X43828107Y-44263787D01*
X43784375Y-44249024D01*
X43119628Y-44024904D01*
X42515263Y-43821448D01*
X41977416Y-43640720D01*
X41512221Y-43484785D01*
X41125814Y-43355707D01*
X40824329Y-43255551D01*
X40613904Y-43186380D01*
X40500671Y-43150260D01*
X40481948Y-43145268D01*
X39849565Y-43145268D01*
X39847992Y-43137586D01*
X39771169Y-42760807D01*
X39749113Y-42652222D01*
X39673574Y-42280351D01*
X40496425Y-42280351D01*
X40541516Y-42303783D01*
X40680594Y-42359218D01*
X40900823Y-42442148D01*
X41189370Y-42548068D01*
X41533398Y-42672470D01*
X41920073Y-42810850D01*
X42336559Y-42958699D01*
X42770022Y-43111513D01*
X43207625Y-43264783D01*
X43636534Y-43414005D01*
X44043914Y-43554672D01*
X44416929Y-43682277D01*
X44742745Y-43792314D01*
X45008526Y-43880276D01*
X45201437Y-43941658D01*
X45308642Y-43971952D01*
X45320780Y-43974168D01*
X45382784Y-43938780D01*
X45393760Y-43923689D01*
X45463435Y-43877754D01*
X45605459Y-43819294D01*
X45717851Y-43782557D01*
X45852200Y-43734254D01*
X46034970Y-43653635D01*
X46273485Y-43536840D01*
X46575071Y-43380011D01*
X46947049Y-43179286D01*
X47396746Y-42930805D01*
X47931484Y-42630710D01*
X48310385Y-42416217D01*
X48585896Y-42260971D01*
X48826772Y-42127382D01*
X49016143Y-42024635D01*
X49137137Y-41961914D01*
X49172894Y-41946667D01*
X49234977Y-41920534D01*
X49369385Y-41850977D01*
X49550819Y-41751257D01*
X49615620Y-41714605D01*
X50166017Y-41457778D01*
X50794879Y-41265742D01*
X51485705Y-41142251D01*
X52221994Y-41091061D01*
X52361401Y-41089816D01*
X52888188Y-41106231D01*
X53365820Y-41160098D01*
X53836940Y-41259011D01*
X54344192Y-41410565D01*
X54538667Y-41477632D01*
X54770538Y-41558448D01*
X55082372Y-41665132D01*
X55446838Y-41788440D01*
X55836609Y-41919133D01*
X56224355Y-42047966D01*
X56260222Y-42059816D01*
X56677867Y-42198991D01*
X57129642Y-42351695D01*
X57579394Y-42505566D01*
X57990971Y-42648241D01*
X58303044Y-42758350D01*
X59188754Y-43074814D01*
X61504679Y-41791124D01*
X63820603Y-40507434D01*
X63525857Y-40406062D01*
X63317810Y-40334770D01*
X63025655Y-40235042D01*
X62658362Y-40109920D01*
X62224899Y-39962442D01*
X61734235Y-39795649D01*
X61195340Y-39612582D01*
X60617182Y-39416279D01*
X60008732Y-39209782D01*
X59378958Y-38996129D01*
X58736829Y-38778363D01*
X58091314Y-38559521D01*
X57451383Y-38342645D01*
X56826005Y-38130774D01*
X56224149Y-37926949D01*
X55654784Y-37734209D01*
X55126879Y-37555595D01*
X54649403Y-37394147D01*
X54231326Y-37252905D01*
X53881617Y-37134908D01*
X53609245Y-37043197D01*
X53423178Y-36980812D01*
X53332387Y-36950793D01*
X53325111Y-36948563D01*
X53227854Y-36922711D01*
X53061625Y-36877049D01*
X52901778Y-36832482D01*
X52624068Y-36779298D01*
X52268076Y-36747504D01*
X51866354Y-36737053D01*
X51451452Y-36747895D01*
X51055924Y-36779982D01*
X50712321Y-36833265D01*
X50700445Y-36835767D01*
X50407200Y-36908072D01*
X50137041Y-36992445D01*
X49913838Y-37079892D01*
X49761459Y-37161416D01*
X49710493Y-37208850D01*
X49631746Y-37264275D01*
X49559436Y-37286899D01*
X49497323Y-37316254D01*
X49345088Y-37395705D01*
X49111294Y-37520534D01*
X48804507Y-37686022D01*
X48433289Y-37887449D01*
X48006207Y-38120098D01*
X47531824Y-38379249D01*
X47018705Y-38660184D01*
X46475414Y-38958184D01*
X45910516Y-39268530D01*
X45332575Y-39586503D01*
X44750155Y-39907385D01*
X44171822Y-40226457D01*
X43606140Y-40538999D01*
X43061673Y-40840295D01*
X42546985Y-41125623D01*
X42070641Y-41390267D01*
X41641206Y-41629506D01*
X41267243Y-41838623D01*
X40957318Y-42012898D01*
X40719995Y-42147613D01*
X40563838Y-42238048D01*
X40497412Y-42279486D01*
X40496425Y-42280351D01*
X39673574Y-42280351D01*
X39642309Y-42126438D01*
X39530089Y-41575299D01*
X39415238Y-41012386D01*
X39300543Y-40451280D01*
X39188789Y-39905560D01*
X39082764Y-39388807D01*
X38985254Y-38914601D01*
X38899045Y-38496522D01*
X38826923Y-38148150D01*
X38771675Y-37883065D01*
X38736088Y-37714848D01*
X38735761Y-37713334D01*
X38675481Y-37425286D01*
X38611075Y-37104636D01*
X38565185Y-36866667D01*
X38525984Y-36664603D01*
X38469320Y-36381955D01*
X38401262Y-36048549D01*
X38327880Y-35694208D01*
X38283780Y-35483778D01*
X38209979Y-35131179D01*
X38137623Y-34781605D01*
X38072830Y-34464886D01*
X38021718Y-34210852D01*
X38000155Y-34100889D01*
X37944409Y-33818908D01*
X37881379Y-33511049D01*
X37832970Y-33282445D01*
X37779158Y-33025514D01*
X37717968Y-32720360D01*
X37661991Y-32429869D01*
X37658248Y-32409857D01*
X37615560Y-32189775D01*
X37578504Y-32014479D01*
X37553097Y-31911853D01*
X37547762Y-31897733D01*
X37527461Y-31827490D01*
X37496626Y-31680595D01*
X37468898Y-31528542D01*
X37437683Y-31359184D01*
X37388378Y-31106391D01*
X37326374Y-30797150D01*
X37257060Y-30458448D01*
X37210464Y-30234445D01*
X37100985Y-29710044D01*
X37015267Y-29295648D01*
X36953240Y-28990914D01*
X36914835Y-28795501D01*
X36899982Y-28709068D01*
X36899778Y-28705783D01*
X36851209Y-28709948D01*
X36727117Y-28739818D01*
X36631667Y-28766507D01*
X36424557Y-28819393D01*
X36224394Y-28858898D01*
X36166000Y-28867048D01*
X36062325Y-28883669D01*
X36004437Y-28918541D01*
X35990199Y-28992358D01*
X35370083Y-28992358D01*
X35366498Y-28977651D01*
X35331622Y-28770093D01*
X35329874Y-28623318D01*
X35360121Y-28521982D01*
X35421229Y-28450741D01*
X35450953Y-28429251D01*
X35546672Y-28391209D01*
X35727228Y-28339298D01*
X35966295Y-28279317D01*
X36237547Y-28217065D01*
X36514659Y-28158344D01*
X36771305Y-28108951D01*
X36981159Y-28074686D01*
X37117896Y-28061350D01*
X37121035Y-28061334D01*
X37259104Y-28114962D01*
M02*
