G04 #@! TF.GenerationSoftware,KiCad,Pcbnew,(5.1.4)-1*
G04 #@! TF.CreationDate,2020-08-10T14:14:39+08:00*
G04 #@! TF.ProjectId,BentoPad,42656e74-6f50-4616-942e-6b696361645f,rev?*
G04 #@! TF.SameCoordinates,Original*
G04 #@! TF.FileFunction,Copper,L1,Top*
G04 #@! TF.FilePolarity,Positive*
%FSLAX46Y46*%
G04 Gerber Fmt 4.6, Leading zero omitted, Abs format (unit mm)*
G04 Created by KiCad (PCBNEW (5.1.4)-1) date 2020-08-10 14:14:39*
%MOMM*%
%LPD*%
G04 APERTURE LIST*
%ADD10O,1.400000X1.400000*%
%ADD11C,1.400000*%
%ADD12R,1.905000X1.905000*%
%ADD13C,1.905000*%
%ADD14C,2.250000*%
%ADD15C,2.000000*%
%ADD16R,3.200000X2.000000*%
%ADD17R,2.000000X2.000000*%
%ADD18C,1.752600*%
%ADD19R,1.752600X1.752600*%
%ADD20R,1.000000X1.000000*%
%ADD21O,1.000000X1.000000*%
%ADD22C,0.800000*%
%ADD23C,0.381000*%
%ADD24C,0.254000*%
G04 APERTURE END LIST*
D10*
X66730000Y-59230000D03*
D11*
X61650000Y-59230000D03*
D10*
X47780000Y-60800000D03*
D11*
X42700000Y-60800000D03*
X51380000Y-46240000D03*
D10*
X56460000Y-46240000D03*
D11*
X52790000Y-65290000D03*
D10*
X57870000Y-65290000D03*
D11*
X77920000Y-65300000D03*
D10*
X83000000Y-65300000D03*
D11*
X33740000Y-46250000D03*
D10*
X38820000Y-46250000D03*
D11*
X33740000Y-65300000D03*
D10*
X38820000Y-65300000D03*
D12*
X77920000Y-60855000D03*
D13*
X75380000Y-60855000D03*
D14*
X72840000Y-53235000D03*
X79190000Y-50695000D03*
D12*
X52795000Y-60855000D03*
D13*
X50255000Y-60855000D03*
D14*
X47715000Y-53235000D03*
X54065000Y-50695000D03*
D12*
X33745000Y-60855000D03*
D13*
X31205000Y-60855000D03*
D14*
X28665000Y-53235000D03*
X35015000Y-50695000D03*
D12*
X52795000Y-41805000D03*
D13*
X50255000Y-41805000D03*
D14*
X47715000Y-34185000D03*
X54065000Y-31645000D03*
D12*
X33745000Y-41805000D03*
D13*
X31205000Y-41805000D03*
D14*
X28665000Y-34185000D03*
X35015000Y-31645000D03*
D15*
X83650000Y-38350000D03*
X83650000Y-33350000D03*
D16*
X76650000Y-41450000D03*
X76650000Y-30250000D03*
D15*
X69150000Y-38350000D03*
X69150000Y-35850000D03*
D17*
X69150000Y-33350000D03*
D15*
X40500000Y-27200000D03*
X34000000Y-27200000D03*
D18*
X43676400Y-28980000D03*
X58916400Y-56920000D03*
X44133600Y-31520000D03*
X43676400Y-34060000D03*
X44133600Y-36600000D03*
X43676400Y-39140000D03*
X44133600Y-41680000D03*
X43676400Y-44220000D03*
X44133600Y-46760000D03*
X43676400Y-49300000D03*
X44133600Y-51840000D03*
X43676400Y-54380000D03*
X44133600Y-56920000D03*
X59373600Y-54380000D03*
X58916400Y-51840000D03*
X59373600Y-49300000D03*
X58916400Y-46760000D03*
X59373600Y-44220000D03*
X58916400Y-41680000D03*
X59373600Y-39140000D03*
X58916400Y-36600000D03*
X59373600Y-34060000D03*
X58916400Y-31520000D03*
D19*
X59373600Y-28980000D03*
D20*
X64450000Y-28980000D03*
D21*
X64450000Y-30250000D03*
X64450000Y-31520000D03*
D22*
X46530000Y-43060000D03*
X36730000Y-33590000D03*
X45710000Y-42480000D03*
D23*
X65331000Y-28980000D02*
X66630000Y-30279000D01*
X64450000Y-28980000D02*
X65331000Y-28980000D01*
X67735787Y-35850000D02*
X69150000Y-35850000D01*
X66630000Y-34744213D02*
X67735787Y-35850000D01*
X66630000Y-30279000D02*
X66630000Y-34744213D01*
X40500000Y-28614213D02*
X40500000Y-27200000D01*
X40500000Y-29354275D02*
X40500000Y-28614213D01*
X44133600Y-31520000D02*
X42665725Y-31520000D01*
X42665725Y-31520000D02*
X40500000Y-29354275D01*
X58916400Y-34517200D02*
X59373600Y-34060000D01*
X58916400Y-36600000D02*
X58916400Y-34517200D01*
X61010000Y-34060000D02*
X61970000Y-33100000D01*
X59373600Y-34060000D02*
X61010000Y-34060000D01*
X61970000Y-33100000D02*
X61970000Y-29680000D01*
X62670000Y-28980000D02*
X64450000Y-28980000D01*
X61970000Y-29680000D02*
X62670000Y-28980000D01*
X59373600Y-34060000D02*
X57240000Y-34060000D01*
X57240000Y-34060000D02*
X56580000Y-33400000D01*
X56580000Y-32330000D02*
X55895000Y-31645000D01*
X56580000Y-33400000D02*
X56580000Y-32330000D01*
X54065000Y-31645000D02*
X55895000Y-31645000D01*
X31205000Y-41805000D02*
X31205000Y-53185000D01*
X31205000Y-53185000D02*
X29840000Y-54550000D01*
X29840000Y-54550000D02*
X29840000Y-56900000D01*
X31205000Y-58265000D02*
X31205000Y-60855000D01*
X29840000Y-56900000D02*
X31205000Y-58265000D01*
X50255000Y-41805000D02*
X50255000Y-53375000D01*
X50255000Y-53375000D02*
X48930000Y-54700000D01*
X48930000Y-54700000D02*
X48930000Y-56860000D01*
X50255000Y-58185000D02*
X50255000Y-60855000D01*
X48930000Y-56860000D02*
X50255000Y-58185000D01*
X47715000Y-39985000D02*
X46530000Y-41170000D01*
X47715000Y-34185000D02*
X47715000Y-39985000D01*
X46530000Y-43060000D02*
X46530000Y-41170000D01*
X43905000Y-49425000D02*
X43905000Y-49300000D01*
X47611400Y-53235000D02*
X47715000Y-53235000D01*
X43676400Y-49300000D02*
X47611400Y-53235000D01*
X34000000Y-27200000D02*
X36730000Y-29930000D01*
X36730000Y-29930000D02*
X36730000Y-33590000D01*
X43676400Y-39140000D02*
X45710000Y-41173600D01*
X45710000Y-41173600D02*
X45710000Y-42480000D01*
X33745000Y-46245000D02*
X33740000Y-46250000D01*
X33745000Y-41805000D02*
X33745000Y-46245000D01*
X51380000Y-46230000D02*
X51380000Y-46240000D01*
X50839210Y-45689210D02*
X51380000Y-46230000D01*
X50839210Y-43151201D02*
X50839210Y-45689210D01*
X52795000Y-41805000D02*
X52185411Y-41805000D01*
X52185411Y-41805000D02*
X50839210Y-43151201D01*
X33740000Y-60860000D02*
X33745000Y-60855000D01*
X33740000Y-65300000D02*
X33740000Y-60860000D01*
X52795000Y-65285000D02*
X52790000Y-65290000D01*
X52795000Y-60855000D02*
X52795000Y-65285000D01*
X77920000Y-62188500D02*
X77920000Y-65300000D01*
X77920000Y-60855000D02*
X77920000Y-62188500D01*
X39519999Y-64600001D02*
X38820000Y-65300000D01*
X39519999Y-46949999D02*
X39519999Y-64600001D01*
X38820000Y-46250000D02*
X39519999Y-46949999D01*
X56460000Y-52040000D02*
X54800000Y-53700000D01*
X56460000Y-46240000D02*
X56460000Y-52040000D01*
X54800000Y-57950000D02*
X57870000Y-61020000D01*
X54800000Y-53700000D02*
X54800000Y-57950000D01*
X57870000Y-61020000D02*
X57870000Y-65290000D01*
X44133600Y-59366400D02*
X44133600Y-56920000D01*
X42700000Y-60800000D02*
X44133600Y-59366400D01*
D24*
G36*
X82111253Y-25461469D02*
G01*
X82947880Y-25678615D01*
X83735959Y-26033619D01*
X84452956Y-26516330D01*
X85078369Y-27112946D01*
X85594319Y-27806406D01*
X85986051Y-28576887D01*
X86242368Y-29402359D01*
X86357495Y-30270982D01*
X86363000Y-30504578D01*
X86363001Y-61983603D01*
X86288531Y-62861253D01*
X86071387Y-63697875D01*
X85716382Y-64485957D01*
X85233672Y-65202953D01*
X84637057Y-65828367D01*
X83943592Y-66344319D01*
X83173113Y-66736051D01*
X82347641Y-66992368D01*
X81479018Y-67107495D01*
X81245422Y-67113000D01*
X25516386Y-67113000D01*
X24638747Y-67038531D01*
X23802125Y-66821387D01*
X23014043Y-66466382D01*
X22297047Y-65983672D01*
X21671633Y-65387057D01*
X21155681Y-64693592D01*
X20763949Y-63923113D01*
X20507632Y-63097641D01*
X20392505Y-62229018D01*
X20387000Y-61995422D01*
X20387000Y-55656298D01*
X26189800Y-55656298D01*
X26189800Y-55893702D01*
X26236116Y-56126544D01*
X26326966Y-56345876D01*
X26458860Y-56543270D01*
X26626730Y-56711140D01*
X26824124Y-56843034D01*
X27043456Y-56933884D01*
X27276298Y-56980200D01*
X27513702Y-56980200D01*
X27746544Y-56933884D01*
X27965876Y-56843034D01*
X28163270Y-56711140D01*
X28331140Y-56543270D01*
X28463034Y-56345876D01*
X28553884Y-56126544D01*
X28600200Y-55893702D01*
X28600200Y-55656298D01*
X28553884Y-55423456D01*
X28463034Y-55204124D01*
X28331140Y-55006730D01*
X28163270Y-54838860D01*
X27965876Y-54706966D01*
X27746544Y-54616116D01*
X27513702Y-54569800D01*
X27276298Y-54569800D01*
X27043456Y-54616116D01*
X26824124Y-54706966D01*
X26626730Y-54838860D01*
X26458860Y-55006730D01*
X26326966Y-55204124D01*
X26236116Y-55423456D01*
X26189800Y-55656298D01*
X20387000Y-55656298D01*
X20387000Y-53091675D01*
X27209800Y-53091675D01*
X27209800Y-53378325D01*
X27265723Y-53659466D01*
X27375419Y-53924296D01*
X27534672Y-54162636D01*
X27737364Y-54365328D01*
X27975704Y-54524581D01*
X28240534Y-54634277D01*
X28521675Y-54690200D01*
X28808325Y-54690200D01*
X29089466Y-54634277D01*
X29317796Y-54539700D01*
X29316781Y-54550000D01*
X29319300Y-54575575D01*
X29319301Y-56874415D01*
X29316781Y-56900000D01*
X29326835Y-57002075D01*
X29337985Y-57038830D01*
X29356610Y-57100227D01*
X29404960Y-57190685D01*
X29470029Y-57269972D01*
X29489898Y-57286278D01*
X30684300Y-58480681D01*
X30684301Y-59682297D01*
X30597414Y-59718286D01*
X30387327Y-59858662D01*
X30208662Y-60037327D01*
X30068286Y-60247414D01*
X29971594Y-60480850D01*
X29922300Y-60728665D01*
X29922300Y-60981335D01*
X29971594Y-61229150D01*
X30068286Y-61462586D01*
X30208662Y-61672673D01*
X30387327Y-61851338D01*
X30597414Y-61991714D01*
X30830850Y-62088406D01*
X31078665Y-62137700D01*
X31331335Y-62137700D01*
X31579150Y-62088406D01*
X31812586Y-61991714D01*
X32022673Y-61851338D01*
X32201338Y-61672673D01*
X32341714Y-61462586D01*
X32438406Y-61229150D01*
X32460703Y-61117057D01*
X32460703Y-61807500D01*
X32467078Y-61872230D01*
X32485960Y-61934473D01*
X32516621Y-61991837D01*
X32557884Y-62042116D01*
X32608163Y-62083379D01*
X32665527Y-62114040D01*
X32727770Y-62132922D01*
X32792500Y-62139297D01*
X33219301Y-62139297D01*
X33219300Y-64408909D01*
X33083286Y-64499791D01*
X32939791Y-64643286D01*
X32827048Y-64812017D01*
X32749390Y-64999502D01*
X32709800Y-65198534D01*
X32709800Y-65401466D01*
X32749390Y-65600498D01*
X32827048Y-65787983D01*
X32939791Y-65956714D01*
X33083286Y-66100209D01*
X33252017Y-66212952D01*
X33439502Y-66290610D01*
X33638534Y-66330200D01*
X33841466Y-66330200D01*
X34040498Y-66290610D01*
X34227983Y-66212952D01*
X34396714Y-66100209D01*
X34540209Y-65956714D01*
X34652952Y-65787983D01*
X34730610Y-65600498D01*
X34770200Y-65401466D01*
X34770200Y-65198534D01*
X34730610Y-64999502D01*
X34652952Y-64812017D01*
X34540209Y-64643286D01*
X34396714Y-64499791D01*
X34260700Y-64408909D01*
X34260700Y-62139297D01*
X34697500Y-62139297D01*
X34762230Y-62132922D01*
X34824473Y-62114040D01*
X34881837Y-62083379D01*
X34932116Y-62042116D01*
X34973379Y-61991837D01*
X35004040Y-61934473D01*
X35022922Y-61872230D01*
X35029297Y-61807500D01*
X35029297Y-59902500D01*
X35022922Y-59837770D01*
X35004040Y-59775527D01*
X34973379Y-59718163D01*
X34932116Y-59667884D01*
X34881837Y-59626621D01*
X34824473Y-59595960D01*
X34762230Y-59577078D01*
X34697500Y-59570703D01*
X32792500Y-59570703D01*
X32727770Y-59577078D01*
X32665527Y-59595960D01*
X32608163Y-59626621D01*
X32557884Y-59667884D01*
X32516621Y-59718163D01*
X32485960Y-59775527D01*
X32467078Y-59837770D01*
X32460703Y-59902500D01*
X32460703Y-60592943D01*
X32438406Y-60480850D01*
X32341714Y-60247414D01*
X32201338Y-60037327D01*
X32022673Y-59858662D01*
X31812586Y-59718286D01*
X31725700Y-59682297D01*
X31725700Y-58290577D01*
X31728219Y-58265000D01*
X31718166Y-58162925D01*
X31688391Y-58064773D01*
X31681604Y-58052075D01*
X31640041Y-57974315D01*
X31603265Y-57929503D01*
X31797085Y-58009786D01*
X32246096Y-58099100D01*
X32703904Y-58099100D01*
X33152915Y-58009786D01*
X33575874Y-57834590D01*
X33956527Y-57580246D01*
X34280246Y-57256527D01*
X34534590Y-56875874D01*
X34709786Y-56452915D01*
X34799100Y-56003904D01*
X34799100Y-55656298D01*
X36349800Y-55656298D01*
X36349800Y-55893702D01*
X36396116Y-56126544D01*
X36486966Y-56345876D01*
X36618860Y-56543270D01*
X36786730Y-56711140D01*
X36984124Y-56843034D01*
X37203456Y-56933884D01*
X37436298Y-56980200D01*
X37673702Y-56980200D01*
X37906544Y-56933884D01*
X38125876Y-56843034D01*
X38323270Y-56711140D01*
X38491140Y-56543270D01*
X38623034Y-56345876D01*
X38713884Y-56126544D01*
X38760200Y-55893702D01*
X38760200Y-55656298D01*
X38713884Y-55423456D01*
X38623034Y-55204124D01*
X38491140Y-55006730D01*
X38323270Y-54838860D01*
X38125876Y-54706966D01*
X37906544Y-54616116D01*
X37673702Y-54569800D01*
X37436298Y-54569800D01*
X37203456Y-54616116D01*
X36984124Y-54706966D01*
X36786730Y-54838860D01*
X36618860Y-55006730D01*
X36486966Y-55204124D01*
X36396116Y-55423456D01*
X36349800Y-55656298D01*
X34799100Y-55656298D01*
X34799100Y-55546096D01*
X34709786Y-55097085D01*
X34534590Y-54674126D01*
X34280246Y-54293473D01*
X33956527Y-53969754D01*
X33575874Y-53715410D01*
X33152915Y-53540214D01*
X32703904Y-53450900D01*
X32246096Y-53450900D01*
X31797085Y-53540214D01*
X31437024Y-53689357D01*
X31555103Y-53571278D01*
X31574972Y-53554972D01*
X31640041Y-53475685D01*
X31688391Y-53385227D01*
X31702998Y-53337075D01*
X31718166Y-53287075D01*
X31728219Y-53185000D01*
X31725700Y-53159423D01*
X31725700Y-51919531D01*
X33970074Y-51919531D01*
X34080921Y-52196714D01*
X34391840Y-52350089D01*
X34726705Y-52439860D01*
X35072650Y-52462576D01*
X35416380Y-52417366D01*
X35744685Y-52305966D01*
X35949079Y-52196714D01*
X36059926Y-51919531D01*
X35015000Y-50874605D01*
X33970074Y-51919531D01*
X31725700Y-51919531D01*
X31725700Y-50752650D01*
X33247424Y-50752650D01*
X33292634Y-51096380D01*
X33404034Y-51424685D01*
X33513286Y-51629079D01*
X33790469Y-51739926D01*
X34835395Y-50695000D01*
X35194605Y-50695000D01*
X36239531Y-51739926D01*
X36516714Y-51629079D01*
X36670089Y-51318160D01*
X36759860Y-50983295D01*
X36782576Y-50637350D01*
X36737366Y-50293620D01*
X36625966Y-49965315D01*
X36516714Y-49760921D01*
X36239531Y-49650074D01*
X35194605Y-50695000D01*
X34835395Y-50695000D01*
X33790469Y-49650074D01*
X33513286Y-49760921D01*
X33359911Y-50071840D01*
X33270140Y-50406705D01*
X33247424Y-50752650D01*
X31725700Y-50752650D01*
X31725700Y-49470469D01*
X33970074Y-49470469D01*
X35015000Y-50515395D01*
X36059926Y-49470469D01*
X35949079Y-49193286D01*
X35638160Y-49039911D01*
X35303295Y-48950140D01*
X34957350Y-48927424D01*
X34613620Y-48972634D01*
X34285315Y-49084034D01*
X34080921Y-49193286D01*
X33970074Y-49470469D01*
X31725700Y-49470469D01*
X31725700Y-42977703D01*
X31812586Y-42941714D01*
X32022673Y-42801338D01*
X32201338Y-42622673D01*
X32341714Y-42412586D01*
X32438406Y-42179150D01*
X32460703Y-42067057D01*
X32460703Y-42757500D01*
X32467078Y-42822230D01*
X32485960Y-42884473D01*
X32516621Y-42941837D01*
X32557884Y-42992116D01*
X32608163Y-43033379D01*
X32665527Y-43064040D01*
X32727770Y-43082922D01*
X32792500Y-43089297D01*
X33224300Y-43089297D01*
X33224301Y-45355567D01*
X33083286Y-45449791D01*
X32939791Y-45593286D01*
X32827048Y-45762017D01*
X32749390Y-45949502D01*
X32709800Y-46148534D01*
X32709800Y-46351466D01*
X32749390Y-46550498D01*
X32827048Y-46737983D01*
X32939791Y-46906714D01*
X33083286Y-47050209D01*
X33252017Y-47162952D01*
X33439502Y-47240610D01*
X33638534Y-47280200D01*
X33841466Y-47280200D01*
X34040498Y-47240610D01*
X34227983Y-47162952D01*
X34396714Y-47050209D01*
X34540209Y-46906714D01*
X34652952Y-46737983D01*
X34730610Y-46550498D01*
X34770200Y-46351466D01*
X34770200Y-46250000D01*
X37784816Y-46250000D01*
X37804707Y-46451954D01*
X37863615Y-46646148D01*
X37959276Y-46825117D01*
X38088014Y-46981986D01*
X38244883Y-47110724D01*
X38423852Y-47206385D01*
X38618046Y-47265293D01*
X38769397Y-47280200D01*
X38870603Y-47280200D01*
X38999299Y-47267524D01*
X38999300Y-64282476D01*
X38870603Y-64269800D01*
X38769397Y-64269800D01*
X38618046Y-64284707D01*
X38423852Y-64343615D01*
X38244883Y-64439276D01*
X38088014Y-64568014D01*
X37959276Y-64724883D01*
X37863615Y-64903852D01*
X37804707Y-65098046D01*
X37784816Y-65300000D01*
X37804707Y-65501954D01*
X37863615Y-65696148D01*
X37959276Y-65875117D01*
X38088014Y-66031986D01*
X38244883Y-66160724D01*
X38423852Y-66256385D01*
X38618046Y-66315293D01*
X38769397Y-66330200D01*
X38870603Y-66330200D01*
X39021954Y-66315293D01*
X39216148Y-66256385D01*
X39395117Y-66160724D01*
X39551986Y-66031986D01*
X39680724Y-65875117D01*
X39776385Y-65696148D01*
X39835293Y-65501954D01*
X39855184Y-65300000D01*
X39835293Y-65098046D01*
X39817381Y-65038999D01*
X39870102Y-64986279D01*
X39889971Y-64969973D01*
X39955040Y-64890686D01*
X40003390Y-64800228D01*
X40033164Y-64702076D01*
X40036595Y-64667248D01*
X40043218Y-64600002D01*
X40040699Y-64574427D01*
X40040699Y-60698534D01*
X41669800Y-60698534D01*
X41669800Y-60901466D01*
X41709390Y-61100498D01*
X41787048Y-61287983D01*
X41899791Y-61456714D01*
X42043286Y-61600209D01*
X42212017Y-61712952D01*
X42399502Y-61790610D01*
X42598534Y-61830200D01*
X42801466Y-61830200D01*
X43000498Y-61790610D01*
X43187983Y-61712952D01*
X43356714Y-61600209D01*
X43500209Y-61456714D01*
X43612952Y-61287983D01*
X43690610Y-61100498D01*
X43730200Y-60901466D01*
X43730200Y-60800000D01*
X46744816Y-60800000D01*
X46764707Y-61001954D01*
X46823615Y-61196148D01*
X46919276Y-61375117D01*
X47048014Y-61531986D01*
X47204883Y-61660724D01*
X47383852Y-61756385D01*
X47578046Y-61815293D01*
X47729397Y-61830200D01*
X47830603Y-61830200D01*
X47981954Y-61815293D01*
X48176148Y-61756385D01*
X48355117Y-61660724D01*
X48511986Y-61531986D01*
X48640724Y-61375117D01*
X48736385Y-61196148D01*
X48795293Y-61001954D01*
X48815184Y-60800000D01*
X48795293Y-60598046D01*
X48736385Y-60403852D01*
X48640724Y-60224883D01*
X48511986Y-60068014D01*
X48355117Y-59939276D01*
X48176148Y-59843615D01*
X47981954Y-59784707D01*
X47830603Y-59769800D01*
X47729397Y-59769800D01*
X47578046Y-59784707D01*
X47383852Y-59843615D01*
X47204883Y-59939276D01*
X47048014Y-60068014D01*
X46919276Y-60224883D01*
X46823615Y-60403852D01*
X46764707Y-60598046D01*
X46744816Y-60800000D01*
X43730200Y-60800000D01*
X43730200Y-60698534D01*
X43698286Y-60538094D01*
X44483703Y-59752678D01*
X44503572Y-59736372D01*
X44568641Y-59657085D01*
X44616991Y-59566627D01*
X44627951Y-59530498D01*
X44646766Y-59468475D01*
X44656819Y-59366400D01*
X44654300Y-59340823D01*
X44654300Y-58010226D01*
X44705092Y-57989187D01*
X44902699Y-57857150D01*
X45070750Y-57689099D01*
X45202787Y-57491492D01*
X45293735Y-57271923D01*
X45340100Y-57038830D01*
X45340100Y-56801170D01*
X45293735Y-56568077D01*
X45202787Y-56348508D01*
X45070750Y-56150901D01*
X44902699Y-55982850D01*
X44705092Y-55850813D01*
X44485523Y-55759865D01*
X44252430Y-55713500D01*
X44014770Y-55713500D01*
X43781677Y-55759865D01*
X43562108Y-55850813D01*
X43364501Y-55982850D01*
X43196450Y-56150901D01*
X43064413Y-56348508D01*
X42973465Y-56568077D01*
X42927100Y-56801170D01*
X42927100Y-57038830D01*
X42973465Y-57271923D01*
X43064413Y-57491492D01*
X43196450Y-57689099D01*
X43364501Y-57857150D01*
X43562108Y-57989187D01*
X43612901Y-58010226D01*
X43612900Y-59150719D01*
X42961906Y-59801714D01*
X42801466Y-59769800D01*
X42598534Y-59769800D01*
X42399502Y-59809390D01*
X42212017Y-59887048D01*
X42043286Y-59999791D01*
X41899791Y-60143286D01*
X41787048Y-60312017D01*
X41709390Y-60499502D01*
X41669800Y-60698534D01*
X40040699Y-60698534D01*
X40040699Y-55656298D01*
X45239800Y-55656298D01*
X45239800Y-55893702D01*
X45286116Y-56126544D01*
X45376966Y-56345876D01*
X45508860Y-56543270D01*
X45676730Y-56711140D01*
X45874124Y-56843034D01*
X46093456Y-56933884D01*
X46326298Y-56980200D01*
X46563702Y-56980200D01*
X46796544Y-56933884D01*
X47015876Y-56843034D01*
X47213270Y-56711140D01*
X47381140Y-56543270D01*
X47513034Y-56345876D01*
X47603884Y-56126544D01*
X47650200Y-55893702D01*
X47650200Y-55656298D01*
X47603884Y-55423456D01*
X47513034Y-55204124D01*
X47381140Y-55006730D01*
X47213270Y-54838860D01*
X47015876Y-54706966D01*
X46796544Y-54616116D01*
X46563702Y-54569800D01*
X46326298Y-54569800D01*
X46093456Y-54616116D01*
X45874124Y-54706966D01*
X45676730Y-54838860D01*
X45508860Y-55006730D01*
X45376966Y-55204124D01*
X45286116Y-55423456D01*
X45239800Y-55656298D01*
X40040699Y-55656298D01*
X40040699Y-54261170D01*
X42469900Y-54261170D01*
X42469900Y-54498830D01*
X42516265Y-54731923D01*
X42607213Y-54951492D01*
X42739250Y-55149099D01*
X42907301Y-55317150D01*
X43104908Y-55449187D01*
X43324477Y-55540135D01*
X43557570Y-55586500D01*
X43795230Y-55586500D01*
X44028323Y-55540135D01*
X44247892Y-55449187D01*
X44445499Y-55317150D01*
X44613550Y-55149099D01*
X44745587Y-54951492D01*
X44836535Y-54731923D01*
X44882900Y-54498830D01*
X44882900Y-54261170D01*
X44836535Y-54028077D01*
X44745587Y-53808508D01*
X44613550Y-53610901D01*
X44445499Y-53442850D01*
X44247892Y-53310813D01*
X44028323Y-53219865D01*
X43795230Y-53173500D01*
X43557570Y-53173500D01*
X43324477Y-53219865D01*
X43104908Y-53310813D01*
X42907301Y-53442850D01*
X42739250Y-53610901D01*
X42607213Y-53808508D01*
X42516265Y-54028077D01*
X42469900Y-54261170D01*
X40040699Y-54261170D01*
X40040699Y-49181170D01*
X42469900Y-49181170D01*
X42469900Y-49418830D01*
X42516265Y-49651923D01*
X42607213Y-49871492D01*
X42739250Y-50069099D01*
X42907301Y-50237150D01*
X43104908Y-50369187D01*
X43324477Y-50460135D01*
X43557570Y-50506500D01*
X43795230Y-50506500D01*
X44028323Y-50460135D01*
X44079116Y-50439096D01*
X44278756Y-50638737D01*
X44252430Y-50633500D01*
X44014770Y-50633500D01*
X43781677Y-50679865D01*
X43562108Y-50770813D01*
X43364501Y-50902850D01*
X43196450Y-51070901D01*
X43064413Y-51268508D01*
X42973465Y-51488077D01*
X42927100Y-51721170D01*
X42927100Y-51958830D01*
X42973465Y-52191923D01*
X43064413Y-52411492D01*
X43196450Y-52609099D01*
X43364501Y-52777150D01*
X43562108Y-52909187D01*
X43781677Y-53000135D01*
X44014770Y-53046500D01*
X44252430Y-53046500D01*
X44485523Y-53000135D01*
X44705092Y-52909187D01*
X44902699Y-52777150D01*
X45070750Y-52609099D01*
X45202787Y-52411492D01*
X45293735Y-52191923D01*
X45340100Y-51958830D01*
X45340100Y-51721170D01*
X45334863Y-51694844D01*
X46355214Y-52715195D01*
X46315723Y-52810534D01*
X46259800Y-53091675D01*
X46259800Y-53378325D01*
X46315723Y-53659466D01*
X46425419Y-53924296D01*
X46584672Y-54162636D01*
X46787364Y-54365328D01*
X47025704Y-54524581D01*
X47290534Y-54634277D01*
X47571675Y-54690200D01*
X47858325Y-54690200D01*
X48139466Y-54634277D01*
X48404296Y-54524581D01*
X48449490Y-54494383D01*
X48446609Y-54499774D01*
X48439131Y-54524426D01*
X48416835Y-54597925D01*
X48406781Y-54700000D01*
X48409300Y-54725575D01*
X48409301Y-56834415D01*
X48406781Y-56860000D01*
X48416835Y-56962075D01*
X48440119Y-57038830D01*
X48446610Y-57060227D01*
X48494960Y-57150685D01*
X48560029Y-57229972D01*
X48579898Y-57246278D01*
X49734300Y-58400681D01*
X49734301Y-59682297D01*
X49647414Y-59718286D01*
X49437327Y-59858662D01*
X49258662Y-60037327D01*
X49118286Y-60247414D01*
X49021594Y-60480850D01*
X48972300Y-60728665D01*
X48972300Y-60981335D01*
X49021594Y-61229150D01*
X49118286Y-61462586D01*
X49258662Y-61672673D01*
X49437327Y-61851338D01*
X49647414Y-61991714D01*
X49880850Y-62088406D01*
X50128665Y-62137700D01*
X50381335Y-62137700D01*
X50629150Y-62088406D01*
X50862586Y-61991714D01*
X51072673Y-61851338D01*
X51251338Y-61672673D01*
X51391714Y-61462586D01*
X51488406Y-61229150D01*
X51510703Y-61117057D01*
X51510703Y-61807500D01*
X51517078Y-61872230D01*
X51535960Y-61934473D01*
X51566621Y-61991837D01*
X51607884Y-62042116D01*
X51658163Y-62083379D01*
X51715527Y-62114040D01*
X51777770Y-62132922D01*
X51842500Y-62139297D01*
X52274300Y-62139297D01*
X52274301Y-64395567D01*
X52133286Y-64489791D01*
X51989791Y-64633286D01*
X51877048Y-64802017D01*
X51799390Y-64989502D01*
X51759800Y-65188534D01*
X51759800Y-65391466D01*
X51799390Y-65590498D01*
X51877048Y-65777983D01*
X51989791Y-65946714D01*
X52133286Y-66090209D01*
X52302017Y-66202952D01*
X52489502Y-66280610D01*
X52688534Y-66320200D01*
X52891466Y-66320200D01*
X53090498Y-66280610D01*
X53277983Y-66202952D01*
X53446714Y-66090209D01*
X53590209Y-65946714D01*
X53702952Y-65777983D01*
X53780610Y-65590498D01*
X53820200Y-65391466D01*
X53820200Y-65188534D01*
X53780610Y-64989502D01*
X53702952Y-64802017D01*
X53590209Y-64633286D01*
X53446714Y-64489791D01*
X53315700Y-64402250D01*
X53315700Y-62139297D01*
X53747500Y-62139297D01*
X53812230Y-62132922D01*
X53874473Y-62114040D01*
X53931837Y-62083379D01*
X53982116Y-62042116D01*
X54023379Y-61991837D01*
X54054040Y-61934473D01*
X54072922Y-61872230D01*
X54079297Y-61807500D01*
X54079297Y-59902500D01*
X54072922Y-59837770D01*
X54054040Y-59775527D01*
X54023379Y-59718163D01*
X53982116Y-59667884D01*
X53931837Y-59626621D01*
X53874473Y-59595960D01*
X53812230Y-59577078D01*
X53747500Y-59570703D01*
X51842500Y-59570703D01*
X51777770Y-59577078D01*
X51715527Y-59595960D01*
X51658163Y-59626621D01*
X51607884Y-59667884D01*
X51566621Y-59718163D01*
X51535960Y-59775527D01*
X51517078Y-59837770D01*
X51510703Y-59902500D01*
X51510703Y-60592943D01*
X51488406Y-60480850D01*
X51391714Y-60247414D01*
X51251338Y-60037327D01*
X51072673Y-59858662D01*
X50862586Y-59718286D01*
X50775700Y-59682297D01*
X50775700Y-58210575D01*
X50778219Y-58185000D01*
X50768165Y-58082924D01*
X50751245Y-58027147D01*
X50738391Y-57984773D01*
X50724655Y-57959073D01*
X50847085Y-58009786D01*
X51296096Y-58099100D01*
X51753904Y-58099100D01*
X52202915Y-58009786D01*
X52625874Y-57834590D01*
X53006527Y-57580246D01*
X53330246Y-57256527D01*
X53584590Y-56875874D01*
X53759786Y-56452915D01*
X53849100Y-56003904D01*
X53849100Y-55546096D01*
X53759786Y-55097085D01*
X53584590Y-54674126D01*
X53330246Y-54293473D01*
X53006527Y-53969754D01*
X52625874Y-53715410D01*
X52588672Y-53700000D01*
X54276781Y-53700000D01*
X54279300Y-53725575D01*
X54279301Y-57924415D01*
X54276781Y-57950000D01*
X54286835Y-58052075D01*
X54316610Y-58150227D01*
X54364960Y-58240685D01*
X54430029Y-58319972D01*
X54449898Y-58336278D01*
X57349300Y-61235681D01*
X57349301Y-64400189D01*
X57294883Y-64429276D01*
X57138014Y-64558014D01*
X57009276Y-64714883D01*
X56913615Y-64893852D01*
X56854707Y-65088046D01*
X56834816Y-65290000D01*
X56854707Y-65491954D01*
X56913615Y-65686148D01*
X57009276Y-65865117D01*
X57138014Y-66021986D01*
X57294883Y-66150724D01*
X57473852Y-66246385D01*
X57668046Y-66305293D01*
X57819397Y-66320200D01*
X57920603Y-66320200D01*
X58071954Y-66305293D01*
X58266148Y-66246385D01*
X58445117Y-66150724D01*
X58601986Y-66021986D01*
X58730724Y-65865117D01*
X58826385Y-65686148D01*
X58885293Y-65491954D01*
X58905184Y-65290000D01*
X58885293Y-65088046D01*
X58826385Y-64893852D01*
X58730724Y-64714883D01*
X58601986Y-64558014D01*
X58445117Y-64429276D01*
X58390700Y-64400189D01*
X58390700Y-61045577D01*
X58393219Y-61020000D01*
X58383166Y-60917925D01*
X58353391Y-60819773D01*
X58342822Y-60800000D01*
X58305041Y-60729315D01*
X58304508Y-60728665D01*
X74097300Y-60728665D01*
X74097300Y-60981335D01*
X74146594Y-61229150D01*
X74243286Y-61462586D01*
X74383662Y-61672673D01*
X74562327Y-61851338D01*
X74772414Y-61991714D01*
X75005850Y-62088406D01*
X75253665Y-62137700D01*
X75506335Y-62137700D01*
X75754150Y-62088406D01*
X75987586Y-61991714D01*
X76197673Y-61851338D01*
X76376338Y-61672673D01*
X76516714Y-61462586D01*
X76613406Y-61229150D01*
X76635703Y-61117057D01*
X76635703Y-61807500D01*
X76642078Y-61872230D01*
X76660960Y-61934473D01*
X76691621Y-61991837D01*
X76732884Y-62042116D01*
X76783163Y-62083379D01*
X76840527Y-62114040D01*
X76902770Y-62132922D01*
X76967500Y-62139297D01*
X77399301Y-62139297D01*
X77399301Y-62162916D01*
X77399300Y-62162926D01*
X77399301Y-64408908D01*
X77263286Y-64499791D01*
X77119791Y-64643286D01*
X77007048Y-64812017D01*
X76929390Y-64999502D01*
X76889800Y-65198534D01*
X76889800Y-65401466D01*
X76929390Y-65600498D01*
X77007048Y-65787983D01*
X77119791Y-65956714D01*
X77263286Y-66100209D01*
X77432017Y-66212952D01*
X77619502Y-66290610D01*
X77818534Y-66330200D01*
X78021466Y-66330200D01*
X78220498Y-66290610D01*
X78407983Y-66212952D01*
X78576714Y-66100209D01*
X78720209Y-65956714D01*
X78832952Y-65787983D01*
X78910610Y-65600498D01*
X78950200Y-65401466D01*
X78950200Y-65300000D01*
X81964816Y-65300000D01*
X81984707Y-65501954D01*
X82043615Y-65696148D01*
X82139276Y-65875117D01*
X82268014Y-66031986D01*
X82424883Y-66160724D01*
X82603852Y-66256385D01*
X82798046Y-66315293D01*
X82949397Y-66330200D01*
X83050603Y-66330200D01*
X83201954Y-66315293D01*
X83396148Y-66256385D01*
X83575117Y-66160724D01*
X83731986Y-66031986D01*
X83860724Y-65875117D01*
X83956385Y-65696148D01*
X84015293Y-65501954D01*
X84035184Y-65300000D01*
X84015293Y-65098046D01*
X83956385Y-64903852D01*
X83860724Y-64724883D01*
X83731986Y-64568014D01*
X83575117Y-64439276D01*
X83396148Y-64343615D01*
X83201954Y-64284707D01*
X83050603Y-64269800D01*
X82949397Y-64269800D01*
X82798046Y-64284707D01*
X82603852Y-64343615D01*
X82424883Y-64439276D01*
X82268014Y-64568014D01*
X82139276Y-64724883D01*
X82043615Y-64903852D01*
X81984707Y-65098046D01*
X81964816Y-65300000D01*
X78950200Y-65300000D01*
X78950200Y-65198534D01*
X78910610Y-64999502D01*
X78832952Y-64812017D01*
X78720209Y-64643286D01*
X78576714Y-64499791D01*
X78440700Y-64408909D01*
X78440700Y-62139297D01*
X78872500Y-62139297D01*
X78937230Y-62132922D01*
X78999473Y-62114040D01*
X79056837Y-62083379D01*
X79107116Y-62042116D01*
X79148379Y-61991837D01*
X79179040Y-61934473D01*
X79197922Y-61872230D01*
X79204297Y-61807500D01*
X79204297Y-59902500D01*
X79197922Y-59837770D01*
X79179040Y-59775527D01*
X79148379Y-59718163D01*
X79107116Y-59667884D01*
X79056837Y-59626621D01*
X78999473Y-59595960D01*
X78937230Y-59577078D01*
X78872500Y-59570703D01*
X76967500Y-59570703D01*
X76902770Y-59577078D01*
X76840527Y-59595960D01*
X76783163Y-59626621D01*
X76732884Y-59667884D01*
X76691621Y-59718163D01*
X76660960Y-59775527D01*
X76642078Y-59837770D01*
X76635703Y-59902500D01*
X76635703Y-60592943D01*
X76613406Y-60480850D01*
X76516714Y-60247414D01*
X76376338Y-60037327D01*
X76197673Y-59858662D01*
X75987586Y-59718286D01*
X75754150Y-59621594D01*
X75506335Y-59572300D01*
X75253665Y-59572300D01*
X75005850Y-59621594D01*
X74772414Y-59718286D01*
X74562327Y-59858662D01*
X74383662Y-60037327D01*
X74243286Y-60247414D01*
X74146594Y-60480850D01*
X74097300Y-60728665D01*
X58304508Y-60728665D01*
X58239972Y-60650028D01*
X58220103Y-60633722D01*
X56714915Y-59128534D01*
X60619800Y-59128534D01*
X60619800Y-59331466D01*
X60659390Y-59530498D01*
X60737048Y-59717983D01*
X60849791Y-59886714D01*
X60993286Y-60030209D01*
X61162017Y-60142952D01*
X61349502Y-60220610D01*
X61548534Y-60260200D01*
X61751466Y-60260200D01*
X61950498Y-60220610D01*
X62137983Y-60142952D01*
X62306714Y-60030209D01*
X62450209Y-59886714D01*
X62562952Y-59717983D01*
X62627011Y-59563329D01*
X65437284Y-59563329D01*
X65469953Y-59671044D01*
X65580208Y-59908392D01*
X65734649Y-60119670D01*
X65927340Y-60296759D01*
X66150877Y-60432853D01*
X66396670Y-60522722D01*
X66603000Y-60400201D01*
X66603000Y-59357000D01*
X66857000Y-59357000D01*
X66857000Y-60400201D01*
X67063330Y-60522722D01*
X67309123Y-60432853D01*
X67532660Y-60296759D01*
X67725351Y-60119670D01*
X67879792Y-59908392D01*
X67990047Y-59671044D01*
X68022716Y-59563329D01*
X67899374Y-59357000D01*
X66857000Y-59357000D01*
X66603000Y-59357000D01*
X65560626Y-59357000D01*
X65437284Y-59563329D01*
X62627011Y-59563329D01*
X62640610Y-59530498D01*
X62680200Y-59331466D01*
X62680200Y-59128534D01*
X62640610Y-58929502D01*
X62627012Y-58896671D01*
X65437284Y-58896671D01*
X65560626Y-59103000D01*
X66603000Y-59103000D01*
X66603000Y-58059799D01*
X66857000Y-58059799D01*
X66857000Y-59103000D01*
X67899374Y-59103000D01*
X68022716Y-58896671D01*
X67990047Y-58788956D01*
X67879792Y-58551608D01*
X67725351Y-58340330D01*
X67532660Y-58163241D01*
X67309123Y-58027147D01*
X67063330Y-57937278D01*
X66857000Y-58059799D01*
X66603000Y-58059799D01*
X66396670Y-57937278D01*
X66150877Y-58027147D01*
X65927340Y-58163241D01*
X65734649Y-58340330D01*
X65580208Y-58551608D01*
X65469953Y-58788956D01*
X65437284Y-58896671D01*
X62627012Y-58896671D01*
X62562952Y-58742017D01*
X62450209Y-58573286D01*
X62306714Y-58429791D01*
X62137983Y-58317048D01*
X61950498Y-58239390D01*
X61751466Y-58199800D01*
X61548534Y-58199800D01*
X61349502Y-58239390D01*
X61162017Y-58317048D01*
X60993286Y-58429791D01*
X60849791Y-58573286D01*
X60737048Y-58742017D01*
X60659390Y-58929502D01*
X60619800Y-59128534D01*
X56714915Y-59128534D01*
X55320700Y-57734320D01*
X55320700Y-55656298D01*
X55399800Y-55656298D01*
X55399800Y-55893702D01*
X55446116Y-56126544D01*
X55536966Y-56345876D01*
X55668860Y-56543270D01*
X55836730Y-56711140D01*
X56034124Y-56843034D01*
X56253456Y-56933884D01*
X56486298Y-56980200D01*
X56723702Y-56980200D01*
X56956544Y-56933884D01*
X57175876Y-56843034D01*
X57238530Y-56801170D01*
X57709900Y-56801170D01*
X57709900Y-57038830D01*
X57756265Y-57271923D01*
X57847213Y-57491492D01*
X57979250Y-57689099D01*
X58147301Y-57857150D01*
X58344908Y-57989187D01*
X58564477Y-58080135D01*
X58797570Y-58126500D01*
X59035230Y-58126500D01*
X59268323Y-58080135D01*
X59487892Y-57989187D01*
X59685499Y-57857150D01*
X59853550Y-57689099D01*
X59985587Y-57491492D01*
X60076535Y-57271923D01*
X60122900Y-57038830D01*
X60122900Y-56801170D01*
X60076535Y-56568077D01*
X59985587Y-56348508D01*
X59853550Y-56150901D01*
X59685499Y-55982850D01*
X59487892Y-55850813D01*
X59268323Y-55759865D01*
X59035230Y-55713500D01*
X58797570Y-55713500D01*
X58564477Y-55759865D01*
X58344908Y-55850813D01*
X58147301Y-55982850D01*
X57979250Y-56150901D01*
X57847213Y-56348508D01*
X57756265Y-56568077D01*
X57709900Y-56801170D01*
X57238530Y-56801170D01*
X57373270Y-56711140D01*
X57541140Y-56543270D01*
X57673034Y-56345876D01*
X57763884Y-56126544D01*
X57810200Y-55893702D01*
X57810200Y-55656298D01*
X70364800Y-55656298D01*
X70364800Y-55893702D01*
X70411116Y-56126544D01*
X70501966Y-56345876D01*
X70633860Y-56543270D01*
X70801730Y-56711140D01*
X70999124Y-56843034D01*
X71218456Y-56933884D01*
X71451298Y-56980200D01*
X71688702Y-56980200D01*
X71921544Y-56933884D01*
X72140876Y-56843034D01*
X72338270Y-56711140D01*
X72506140Y-56543270D01*
X72638034Y-56345876D01*
X72728884Y-56126544D01*
X72775200Y-55893702D01*
X72775200Y-55656298D01*
X72753280Y-55546096D01*
X74325900Y-55546096D01*
X74325900Y-56003904D01*
X74415214Y-56452915D01*
X74590410Y-56875874D01*
X74844754Y-57256527D01*
X75168473Y-57580246D01*
X75549126Y-57834590D01*
X75972085Y-58009786D01*
X76421096Y-58099100D01*
X76878904Y-58099100D01*
X77327915Y-58009786D01*
X77750874Y-57834590D01*
X78131527Y-57580246D01*
X78455246Y-57256527D01*
X78709590Y-56875874D01*
X78884786Y-56452915D01*
X78974100Y-56003904D01*
X78974100Y-55656298D01*
X80524800Y-55656298D01*
X80524800Y-55893702D01*
X80571116Y-56126544D01*
X80661966Y-56345876D01*
X80793860Y-56543270D01*
X80961730Y-56711140D01*
X81159124Y-56843034D01*
X81378456Y-56933884D01*
X81611298Y-56980200D01*
X81848702Y-56980200D01*
X82081544Y-56933884D01*
X82300876Y-56843034D01*
X82498270Y-56711140D01*
X82666140Y-56543270D01*
X82798034Y-56345876D01*
X82888884Y-56126544D01*
X82935200Y-55893702D01*
X82935200Y-55656298D01*
X82888884Y-55423456D01*
X82798034Y-55204124D01*
X82666140Y-55006730D01*
X82498270Y-54838860D01*
X82300876Y-54706966D01*
X82081544Y-54616116D01*
X81848702Y-54569800D01*
X81611298Y-54569800D01*
X81378456Y-54616116D01*
X81159124Y-54706966D01*
X80961730Y-54838860D01*
X80793860Y-55006730D01*
X80661966Y-55204124D01*
X80571116Y-55423456D01*
X80524800Y-55656298D01*
X78974100Y-55656298D01*
X78974100Y-55546096D01*
X78884786Y-55097085D01*
X78709590Y-54674126D01*
X78455246Y-54293473D01*
X78131527Y-53969754D01*
X77750874Y-53715410D01*
X77327915Y-53540214D01*
X76878904Y-53450900D01*
X76421096Y-53450900D01*
X75972085Y-53540214D01*
X75549126Y-53715410D01*
X75168473Y-53969754D01*
X74844754Y-54293473D01*
X74590410Y-54674126D01*
X74415214Y-55097085D01*
X74325900Y-55546096D01*
X72753280Y-55546096D01*
X72728884Y-55423456D01*
X72638034Y-55204124D01*
X72506140Y-55006730D01*
X72338270Y-54838860D01*
X72140876Y-54706966D01*
X71921544Y-54616116D01*
X71688702Y-54569800D01*
X71451298Y-54569800D01*
X71218456Y-54616116D01*
X70999124Y-54706966D01*
X70801730Y-54838860D01*
X70633860Y-55006730D01*
X70501966Y-55204124D01*
X70411116Y-55423456D01*
X70364800Y-55656298D01*
X57810200Y-55656298D01*
X57763884Y-55423456D01*
X57673034Y-55204124D01*
X57541140Y-55006730D01*
X57373270Y-54838860D01*
X57175876Y-54706966D01*
X56956544Y-54616116D01*
X56723702Y-54569800D01*
X56486298Y-54569800D01*
X56253456Y-54616116D01*
X56034124Y-54706966D01*
X55836730Y-54838860D01*
X55668860Y-55006730D01*
X55536966Y-55204124D01*
X55446116Y-55423456D01*
X55399800Y-55656298D01*
X55320700Y-55656298D01*
X55320700Y-54261170D01*
X58167100Y-54261170D01*
X58167100Y-54498830D01*
X58213465Y-54731923D01*
X58304413Y-54951492D01*
X58436450Y-55149099D01*
X58604501Y-55317150D01*
X58802108Y-55449187D01*
X59021677Y-55540135D01*
X59254770Y-55586500D01*
X59492430Y-55586500D01*
X59725523Y-55540135D01*
X59945092Y-55449187D01*
X60142699Y-55317150D01*
X60310750Y-55149099D01*
X60442787Y-54951492D01*
X60533735Y-54731923D01*
X60580100Y-54498830D01*
X60580100Y-54261170D01*
X60533735Y-54028077D01*
X60442787Y-53808508D01*
X60310750Y-53610901D01*
X60142699Y-53442850D01*
X59945092Y-53310813D01*
X59725523Y-53219865D01*
X59492430Y-53173500D01*
X59254770Y-53173500D01*
X59021677Y-53219865D01*
X58802108Y-53310813D01*
X58604501Y-53442850D01*
X58436450Y-53610901D01*
X58304413Y-53808508D01*
X58213465Y-54028077D01*
X58167100Y-54261170D01*
X55320700Y-54261170D01*
X55320700Y-53915680D01*
X56144705Y-53091675D01*
X71384800Y-53091675D01*
X71384800Y-53378325D01*
X71440723Y-53659466D01*
X71550419Y-53924296D01*
X71709672Y-54162636D01*
X71912364Y-54365328D01*
X72150704Y-54524581D01*
X72415534Y-54634277D01*
X72696675Y-54690200D01*
X72983325Y-54690200D01*
X73264466Y-54634277D01*
X73529296Y-54524581D01*
X73767636Y-54365328D01*
X73970328Y-54162636D01*
X74129581Y-53924296D01*
X74239277Y-53659466D01*
X74295200Y-53378325D01*
X74295200Y-53091675D01*
X74239277Y-52810534D01*
X74129581Y-52545704D01*
X73970328Y-52307364D01*
X73767636Y-52104672D01*
X73529296Y-51945419D01*
X73466797Y-51919531D01*
X78145074Y-51919531D01*
X78255921Y-52196714D01*
X78566840Y-52350089D01*
X78901705Y-52439860D01*
X79247650Y-52462576D01*
X79591380Y-52417366D01*
X79919685Y-52305966D01*
X80124079Y-52196714D01*
X80234926Y-51919531D01*
X79190000Y-50874605D01*
X78145074Y-51919531D01*
X73466797Y-51919531D01*
X73264466Y-51835723D01*
X72983325Y-51779800D01*
X72696675Y-51779800D01*
X72415534Y-51835723D01*
X72150704Y-51945419D01*
X71912364Y-52104672D01*
X71709672Y-52307364D01*
X71550419Y-52545704D01*
X71440723Y-52810534D01*
X71384800Y-53091675D01*
X56144705Y-53091675D01*
X56810103Y-52426278D01*
X56829972Y-52409972D01*
X56895041Y-52330685D01*
X56943391Y-52240227D01*
X56973166Y-52142075D01*
X56983219Y-52040000D01*
X56980700Y-52014423D01*
X56980700Y-51721170D01*
X57709900Y-51721170D01*
X57709900Y-51958830D01*
X57756265Y-52191923D01*
X57847213Y-52411492D01*
X57979250Y-52609099D01*
X58147301Y-52777150D01*
X58344908Y-52909187D01*
X58564477Y-53000135D01*
X58797570Y-53046500D01*
X59035230Y-53046500D01*
X59268323Y-53000135D01*
X59487892Y-52909187D01*
X59685499Y-52777150D01*
X59853550Y-52609099D01*
X59985587Y-52411492D01*
X60076535Y-52191923D01*
X60122900Y-51958830D01*
X60122900Y-51721170D01*
X60076535Y-51488077D01*
X59985587Y-51268508D01*
X59853550Y-51070901D01*
X59685499Y-50902850D01*
X59487892Y-50770813D01*
X59444043Y-50752650D01*
X77422424Y-50752650D01*
X77467634Y-51096380D01*
X77579034Y-51424685D01*
X77688286Y-51629079D01*
X77965469Y-51739926D01*
X79010395Y-50695000D01*
X79369605Y-50695000D01*
X80414531Y-51739926D01*
X80691714Y-51629079D01*
X80845089Y-51318160D01*
X80934860Y-50983295D01*
X80957576Y-50637350D01*
X80912366Y-50293620D01*
X80800966Y-49965315D01*
X80691714Y-49760921D01*
X80414531Y-49650074D01*
X79369605Y-50695000D01*
X79010395Y-50695000D01*
X77965469Y-49650074D01*
X77688286Y-49760921D01*
X77534911Y-50071840D01*
X77445140Y-50406705D01*
X77422424Y-50752650D01*
X59444043Y-50752650D01*
X59268323Y-50679865D01*
X59035230Y-50633500D01*
X58797570Y-50633500D01*
X58564477Y-50679865D01*
X58344908Y-50770813D01*
X58147301Y-50902850D01*
X57979250Y-51070901D01*
X57847213Y-51268508D01*
X57756265Y-51488077D01*
X57709900Y-51721170D01*
X56980700Y-51721170D01*
X56980700Y-49181170D01*
X58167100Y-49181170D01*
X58167100Y-49418830D01*
X58213465Y-49651923D01*
X58304413Y-49871492D01*
X58436450Y-50069099D01*
X58604501Y-50237150D01*
X58802108Y-50369187D01*
X59021677Y-50460135D01*
X59254770Y-50506500D01*
X59492430Y-50506500D01*
X59725523Y-50460135D01*
X59945092Y-50369187D01*
X60142699Y-50237150D01*
X60310750Y-50069099D01*
X60442787Y-49871492D01*
X60533735Y-49651923D01*
X60569828Y-49470469D01*
X78145074Y-49470469D01*
X79190000Y-50515395D01*
X80234926Y-49470469D01*
X80124079Y-49193286D01*
X79813160Y-49039911D01*
X79478295Y-48950140D01*
X79132350Y-48927424D01*
X78788620Y-48972634D01*
X78460315Y-49084034D01*
X78255921Y-49193286D01*
X78145074Y-49470469D01*
X60569828Y-49470469D01*
X60580100Y-49418830D01*
X60580100Y-49181170D01*
X60533735Y-48948077D01*
X60442787Y-48728508D01*
X60310750Y-48530901D01*
X60142699Y-48362850D01*
X59945092Y-48230813D01*
X59725523Y-48139865D01*
X59492430Y-48093500D01*
X59254770Y-48093500D01*
X59021677Y-48139865D01*
X58802108Y-48230813D01*
X58604501Y-48362850D01*
X58436450Y-48530901D01*
X58304413Y-48728508D01*
X58213465Y-48948077D01*
X58167100Y-49181170D01*
X56980700Y-49181170D01*
X56980700Y-47129811D01*
X57035117Y-47100724D01*
X57191986Y-46971986D01*
X57320724Y-46815117D01*
X57413700Y-46641170D01*
X57709900Y-46641170D01*
X57709900Y-46878830D01*
X57756265Y-47111923D01*
X57847213Y-47331492D01*
X57979250Y-47529099D01*
X58147301Y-47697150D01*
X58344908Y-47829187D01*
X58564477Y-47920135D01*
X58797570Y-47966500D01*
X59035230Y-47966500D01*
X59268323Y-47920135D01*
X59487892Y-47829187D01*
X59685499Y-47697150D01*
X59853550Y-47529099D01*
X59985587Y-47331492D01*
X60076535Y-47111923D01*
X60122900Y-46878830D01*
X60122900Y-46641170D01*
X60076535Y-46408077D01*
X59985587Y-46188508D01*
X59853550Y-45990901D01*
X59685499Y-45822850D01*
X59487892Y-45690813D01*
X59268323Y-45599865D01*
X59035230Y-45553500D01*
X58797570Y-45553500D01*
X58564477Y-45599865D01*
X58344908Y-45690813D01*
X58147301Y-45822850D01*
X57979250Y-45990901D01*
X57847213Y-46188508D01*
X57756265Y-46408077D01*
X57709900Y-46641170D01*
X57413700Y-46641170D01*
X57416385Y-46636148D01*
X57475293Y-46441954D01*
X57495184Y-46240000D01*
X57475293Y-46038046D01*
X57416385Y-45843852D01*
X57320724Y-45664883D01*
X57191986Y-45508014D01*
X57035117Y-45379276D01*
X56856148Y-45283615D01*
X56661954Y-45224707D01*
X56510603Y-45209800D01*
X56409397Y-45209800D01*
X56258046Y-45224707D01*
X56063852Y-45283615D01*
X55884883Y-45379276D01*
X55728014Y-45508014D01*
X55599276Y-45664883D01*
X55503615Y-45843852D01*
X55444707Y-46038046D01*
X55424816Y-46240000D01*
X55444707Y-46441954D01*
X55503615Y-46636148D01*
X55599276Y-46815117D01*
X55728014Y-46971986D01*
X55884883Y-47100724D01*
X55939300Y-47129811D01*
X55939301Y-51824318D01*
X54449903Y-53313717D01*
X54430028Y-53330028D01*
X54364959Y-53409315D01*
X54316609Y-53499774D01*
X54304342Y-53540214D01*
X54286835Y-53597925D01*
X54276781Y-53700000D01*
X52588672Y-53700000D01*
X52202915Y-53540214D01*
X51753904Y-53450900D01*
X51296096Y-53450900D01*
X50847085Y-53540214D01*
X50731519Y-53588083D01*
X50738391Y-53575227D01*
X50768165Y-53477075D01*
X50775700Y-53400575D01*
X50778219Y-53375000D01*
X50775700Y-53349425D01*
X50775700Y-51919531D01*
X53020074Y-51919531D01*
X53130921Y-52196714D01*
X53441840Y-52350089D01*
X53776705Y-52439860D01*
X54122650Y-52462576D01*
X54466380Y-52417366D01*
X54794685Y-52305966D01*
X54999079Y-52196714D01*
X55109926Y-51919531D01*
X54065000Y-50874605D01*
X53020074Y-51919531D01*
X50775700Y-51919531D01*
X50775700Y-50752650D01*
X52297424Y-50752650D01*
X52342634Y-51096380D01*
X52454034Y-51424685D01*
X52563286Y-51629079D01*
X52840469Y-51739926D01*
X53885395Y-50695000D01*
X54244605Y-50695000D01*
X55289531Y-51739926D01*
X55566714Y-51629079D01*
X55720089Y-51318160D01*
X55809860Y-50983295D01*
X55832576Y-50637350D01*
X55787366Y-50293620D01*
X55675966Y-49965315D01*
X55566714Y-49760921D01*
X55289531Y-49650074D01*
X54244605Y-50695000D01*
X53885395Y-50695000D01*
X52840469Y-49650074D01*
X52563286Y-49760921D01*
X52409911Y-50071840D01*
X52320140Y-50406705D01*
X52297424Y-50752650D01*
X50775700Y-50752650D01*
X50775700Y-49470469D01*
X53020074Y-49470469D01*
X54065000Y-50515395D01*
X55109926Y-49470469D01*
X54999079Y-49193286D01*
X54688160Y-49039911D01*
X54353295Y-48950140D01*
X54007350Y-48927424D01*
X53663620Y-48972634D01*
X53335315Y-49084034D01*
X53130921Y-49193286D01*
X53020074Y-49470469D01*
X50775700Y-49470469D01*
X50775700Y-47075231D01*
X50892017Y-47152952D01*
X51079502Y-47230610D01*
X51278534Y-47270200D01*
X51481466Y-47270200D01*
X51680498Y-47230610D01*
X51867983Y-47152952D01*
X52036714Y-47040209D01*
X52180209Y-46896714D01*
X52292952Y-46727983D01*
X52370610Y-46540498D01*
X52410200Y-46341466D01*
X52410200Y-46138534D01*
X52370610Y-45939502D01*
X52292952Y-45752017D01*
X52180209Y-45583286D01*
X52036714Y-45439791D01*
X51867983Y-45327048D01*
X51680498Y-45249390D01*
X51481466Y-45209800D01*
X51359910Y-45209800D01*
X51359910Y-44101170D01*
X58167100Y-44101170D01*
X58167100Y-44338830D01*
X58213465Y-44571923D01*
X58304413Y-44791492D01*
X58436450Y-44989099D01*
X58604501Y-45157150D01*
X58802108Y-45289187D01*
X59021677Y-45380135D01*
X59254770Y-45426500D01*
X59492430Y-45426500D01*
X59725523Y-45380135D01*
X59945092Y-45289187D01*
X60142699Y-45157150D01*
X60310750Y-44989099D01*
X60442787Y-44791492D01*
X60533735Y-44571923D01*
X60580100Y-44338830D01*
X60580100Y-44101170D01*
X60533735Y-43868077D01*
X60442787Y-43648508D01*
X60310750Y-43450901D01*
X60142699Y-43282850D01*
X59945092Y-43150813D01*
X59725523Y-43059865D01*
X59492430Y-43013500D01*
X59254770Y-43013500D01*
X59021677Y-43059865D01*
X58802108Y-43150813D01*
X58604501Y-43282850D01*
X58436450Y-43450901D01*
X58304413Y-43648508D01*
X58213465Y-43868077D01*
X58167100Y-44101170D01*
X51359910Y-44101170D01*
X51359910Y-43366881D01*
X51681134Y-43045657D01*
X51715527Y-43064040D01*
X51777770Y-43082922D01*
X51842500Y-43089297D01*
X53747500Y-43089297D01*
X53812230Y-43082922D01*
X53874473Y-43064040D01*
X53931837Y-43033379D01*
X53982116Y-42992116D01*
X54023379Y-42941837D01*
X54054040Y-42884473D01*
X54072922Y-42822230D01*
X54079297Y-42757500D01*
X54079297Y-41561170D01*
X57709900Y-41561170D01*
X57709900Y-41798830D01*
X57756265Y-42031923D01*
X57847213Y-42251492D01*
X57979250Y-42449099D01*
X58147301Y-42617150D01*
X58344908Y-42749187D01*
X58564477Y-42840135D01*
X58797570Y-42886500D01*
X59035230Y-42886500D01*
X59268323Y-42840135D01*
X59487892Y-42749187D01*
X59685499Y-42617150D01*
X59853550Y-42449099D01*
X59985587Y-42251492D01*
X60076535Y-42031923D01*
X60122900Y-41798830D01*
X60122900Y-41561170D01*
X60076535Y-41328077D01*
X59985587Y-41108508D01*
X59853550Y-40910901D01*
X59685499Y-40742850D01*
X59487892Y-40610813D01*
X59268323Y-40519865D01*
X59035230Y-40473500D01*
X58797570Y-40473500D01*
X58564477Y-40519865D01*
X58344908Y-40610813D01*
X58147301Y-40742850D01*
X57979250Y-40910901D01*
X57847213Y-41108508D01*
X57756265Y-41328077D01*
X57709900Y-41561170D01*
X54079297Y-41561170D01*
X54079297Y-40852500D01*
X54072922Y-40787770D01*
X54054040Y-40725527D01*
X54023379Y-40668163D01*
X53982116Y-40617884D01*
X53931837Y-40576621D01*
X53874473Y-40545960D01*
X53812230Y-40527078D01*
X53747500Y-40520703D01*
X51842500Y-40520703D01*
X51777770Y-40527078D01*
X51715527Y-40545960D01*
X51658163Y-40576621D01*
X51607884Y-40617884D01*
X51566621Y-40668163D01*
X51535960Y-40725527D01*
X51517078Y-40787770D01*
X51510703Y-40852500D01*
X51510703Y-41542943D01*
X51488406Y-41430850D01*
X51391714Y-41197414D01*
X51251338Y-40987327D01*
X51072673Y-40808662D01*
X50862586Y-40668286D01*
X50629150Y-40571594D01*
X50381335Y-40522300D01*
X50128665Y-40522300D01*
X49880850Y-40571594D01*
X49647414Y-40668286D01*
X49437327Y-40808662D01*
X49258662Y-40987327D01*
X49118286Y-41197414D01*
X49021594Y-41430850D01*
X48972300Y-41678665D01*
X48972300Y-41931335D01*
X49021594Y-42179150D01*
X49118286Y-42412586D01*
X49258662Y-42622673D01*
X49437327Y-42801338D01*
X49647414Y-42941714D01*
X49734300Y-42977703D01*
X49734301Y-53159318D01*
X49029512Y-53864108D01*
X49114277Y-53659466D01*
X49170200Y-53378325D01*
X49170200Y-53091675D01*
X49114277Y-52810534D01*
X49004581Y-52545704D01*
X48845328Y-52307364D01*
X48642636Y-52104672D01*
X48404296Y-51945419D01*
X48139466Y-51835723D01*
X47858325Y-51779800D01*
X47571675Y-51779800D01*
X47290534Y-51835723D01*
X47048682Y-51935901D01*
X44815496Y-49702716D01*
X44836535Y-49651923D01*
X44882900Y-49418830D01*
X44882900Y-49181170D01*
X44836535Y-48948077D01*
X44745587Y-48728508D01*
X44613550Y-48530901D01*
X44445499Y-48362850D01*
X44247892Y-48230813D01*
X44028323Y-48139865D01*
X43795230Y-48093500D01*
X43557570Y-48093500D01*
X43324477Y-48139865D01*
X43104908Y-48230813D01*
X42907301Y-48362850D01*
X42739250Y-48530901D01*
X42607213Y-48728508D01*
X42516265Y-48948077D01*
X42469900Y-49181170D01*
X40040699Y-49181170D01*
X40040699Y-46975573D01*
X40043218Y-46949998D01*
X40033164Y-46847923D01*
X40023212Y-46815117D01*
X40003390Y-46749772D01*
X39955040Y-46659314D01*
X39940150Y-46641170D01*
X42927100Y-46641170D01*
X42927100Y-46878830D01*
X42973465Y-47111923D01*
X43064413Y-47331492D01*
X43196450Y-47529099D01*
X43364501Y-47697150D01*
X43562108Y-47829187D01*
X43781677Y-47920135D01*
X44014770Y-47966500D01*
X44252430Y-47966500D01*
X44485523Y-47920135D01*
X44705092Y-47829187D01*
X44902699Y-47697150D01*
X45070750Y-47529099D01*
X45202787Y-47331492D01*
X45293735Y-47111923D01*
X45340100Y-46878830D01*
X45340100Y-46641170D01*
X45293735Y-46408077D01*
X45202787Y-46188508D01*
X45070750Y-45990901D01*
X44902699Y-45822850D01*
X44705092Y-45690813D01*
X44485523Y-45599865D01*
X44252430Y-45553500D01*
X44014770Y-45553500D01*
X43781677Y-45599865D01*
X43562108Y-45690813D01*
X43364501Y-45822850D01*
X43196450Y-45990901D01*
X43064413Y-46188508D01*
X42973465Y-46408077D01*
X42927100Y-46641170D01*
X39940150Y-46641170D01*
X39889971Y-46580027D01*
X39870102Y-46563721D01*
X39817381Y-46511001D01*
X39835293Y-46451954D01*
X39855184Y-46250000D01*
X39835293Y-46048046D01*
X39776385Y-45853852D01*
X39680724Y-45674883D01*
X39551986Y-45518014D01*
X39395117Y-45389276D01*
X39216148Y-45293615D01*
X39021954Y-45234707D01*
X38870603Y-45219800D01*
X38769397Y-45219800D01*
X38618046Y-45234707D01*
X38423852Y-45293615D01*
X38244883Y-45389276D01*
X38088014Y-45518014D01*
X37959276Y-45674883D01*
X37863615Y-45853852D01*
X37804707Y-46048046D01*
X37784816Y-46250000D01*
X34770200Y-46250000D01*
X34770200Y-46148534D01*
X34730610Y-45949502D01*
X34652952Y-45762017D01*
X34540209Y-45593286D01*
X34396714Y-45449791D01*
X34265700Y-45362250D01*
X34265700Y-44101170D01*
X42469900Y-44101170D01*
X42469900Y-44338830D01*
X42516265Y-44571923D01*
X42607213Y-44791492D01*
X42739250Y-44989099D01*
X42907301Y-45157150D01*
X43104908Y-45289187D01*
X43324477Y-45380135D01*
X43557570Y-45426500D01*
X43795230Y-45426500D01*
X44028323Y-45380135D01*
X44247892Y-45289187D01*
X44445499Y-45157150D01*
X44613550Y-44989099D01*
X44745587Y-44791492D01*
X44836535Y-44571923D01*
X44882900Y-44338830D01*
X44882900Y-44101170D01*
X44836535Y-43868077D01*
X44745587Y-43648508D01*
X44613550Y-43450901D01*
X44445499Y-43282850D01*
X44247892Y-43150813D01*
X44028323Y-43059865D01*
X43795230Y-43013500D01*
X43557570Y-43013500D01*
X43324477Y-43059865D01*
X43104908Y-43150813D01*
X42907301Y-43282850D01*
X42739250Y-43450901D01*
X42607213Y-43648508D01*
X42516265Y-43868077D01*
X42469900Y-44101170D01*
X34265700Y-44101170D01*
X34265700Y-43089297D01*
X34697500Y-43089297D01*
X34762230Y-43082922D01*
X34824473Y-43064040D01*
X34881837Y-43033379D01*
X34932116Y-42992116D01*
X34973379Y-42941837D01*
X35004040Y-42884473D01*
X35022922Y-42822230D01*
X35029297Y-42757500D01*
X35029297Y-40852500D01*
X35022922Y-40787770D01*
X35004040Y-40725527D01*
X34973379Y-40668163D01*
X34932116Y-40617884D01*
X34881837Y-40576621D01*
X34824473Y-40545960D01*
X34762230Y-40527078D01*
X34697500Y-40520703D01*
X32792500Y-40520703D01*
X32727770Y-40527078D01*
X32665527Y-40545960D01*
X32608163Y-40576621D01*
X32557884Y-40617884D01*
X32516621Y-40668163D01*
X32485960Y-40725527D01*
X32467078Y-40787770D01*
X32460703Y-40852500D01*
X32460703Y-41542943D01*
X32438406Y-41430850D01*
X32341714Y-41197414D01*
X32201338Y-40987327D01*
X32022673Y-40808662D01*
X31812586Y-40668286D01*
X31579150Y-40571594D01*
X31331335Y-40522300D01*
X31078665Y-40522300D01*
X30830850Y-40571594D01*
X30597414Y-40668286D01*
X30387327Y-40808662D01*
X30208662Y-40987327D01*
X30068286Y-41197414D01*
X29971594Y-41430850D01*
X29922300Y-41678665D01*
X29922300Y-41931335D01*
X29971594Y-42179150D01*
X30068286Y-42412586D01*
X30208662Y-42622673D01*
X30387327Y-42801338D01*
X30597414Y-42941714D01*
X30684300Y-42977703D01*
X30684301Y-52969318D01*
X30081689Y-53571930D01*
X30120200Y-53378325D01*
X30120200Y-53091675D01*
X30064277Y-52810534D01*
X29954581Y-52545704D01*
X29795328Y-52307364D01*
X29592636Y-52104672D01*
X29354296Y-51945419D01*
X29089466Y-51835723D01*
X28808325Y-51779800D01*
X28521675Y-51779800D01*
X28240534Y-51835723D01*
X27975704Y-51945419D01*
X27737364Y-52104672D01*
X27534672Y-52307364D01*
X27375419Y-52545704D01*
X27265723Y-52810534D01*
X27209800Y-53091675D01*
X20387000Y-53091675D01*
X20387000Y-36606298D01*
X26189800Y-36606298D01*
X26189800Y-36843702D01*
X26236116Y-37076544D01*
X26326966Y-37295876D01*
X26458860Y-37493270D01*
X26626730Y-37661140D01*
X26824124Y-37793034D01*
X27043456Y-37883884D01*
X27276298Y-37930200D01*
X27513702Y-37930200D01*
X27746544Y-37883884D01*
X27965876Y-37793034D01*
X28163270Y-37661140D01*
X28331140Y-37493270D01*
X28463034Y-37295876D01*
X28553884Y-37076544D01*
X28600200Y-36843702D01*
X28600200Y-36606298D01*
X28578280Y-36496096D01*
X30150900Y-36496096D01*
X30150900Y-36953904D01*
X30240214Y-37402915D01*
X30415410Y-37825874D01*
X30669754Y-38206527D01*
X30993473Y-38530246D01*
X31374126Y-38784590D01*
X31797085Y-38959786D01*
X32246096Y-39049100D01*
X32703904Y-39049100D01*
X32844317Y-39021170D01*
X42469900Y-39021170D01*
X42469900Y-39258830D01*
X42516265Y-39491923D01*
X42607213Y-39711492D01*
X42739250Y-39909099D01*
X42907301Y-40077150D01*
X43104908Y-40209187D01*
X43324477Y-40300135D01*
X43557570Y-40346500D01*
X43795230Y-40346500D01*
X44028323Y-40300135D01*
X44079116Y-40279096D01*
X44278756Y-40478737D01*
X44252430Y-40473500D01*
X44014770Y-40473500D01*
X43781677Y-40519865D01*
X43562108Y-40610813D01*
X43364501Y-40742850D01*
X43196450Y-40910901D01*
X43064413Y-41108508D01*
X42973465Y-41328077D01*
X42927100Y-41561170D01*
X42927100Y-41798830D01*
X42973465Y-42031923D01*
X43064413Y-42251492D01*
X43196450Y-42449099D01*
X43364501Y-42617150D01*
X43562108Y-42749187D01*
X43781677Y-42840135D01*
X44014770Y-42886500D01*
X44252430Y-42886500D01*
X44485523Y-42840135D01*
X44705092Y-42749187D01*
X44902699Y-42617150D01*
X44979800Y-42540049D01*
X44979800Y-42551918D01*
X45007861Y-42692991D01*
X45062905Y-42825879D01*
X45142817Y-42945475D01*
X45244525Y-43047183D01*
X45364121Y-43127095D01*
X45497009Y-43182139D01*
X45638082Y-43210200D01*
X45781918Y-43210200D01*
X45814098Y-43203799D01*
X45827861Y-43272991D01*
X45882905Y-43405879D01*
X45962817Y-43525475D01*
X46064525Y-43627183D01*
X46184121Y-43707095D01*
X46317009Y-43762139D01*
X46458082Y-43790200D01*
X46601918Y-43790200D01*
X46742991Y-43762139D01*
X46875879Y-43707095D01*
X46995475Y-43627183D01*
X47097183Y-43525475D01*
X47177095Y-43405879D01*
X47232139Y-43272991D01*
X47260200Y-43131918D01*
X47260200Y-42988082D01*
X47232139Y-42847009D01*
X47177095Y-42714121D01*
X47097183Y-42594525D01*
X47050700Y-42548042D01*
X47050700Y-41385680D01*
X47986380Y-40450000D01*
X74718203Y-40450000D01*
X74718203Y-42450000D01*
X74724578Y-42514730D01*
X74743460Y-42576973D01*
X74774121Y-42634337D01*
X74815384Y-42684616D01*
X74865663Y-42725879D01*
X74923027Y-42756540D01*
X74985270Y-42775422D01*
X75050000Y-42781797D01*
X78250000Y-42781797D01*
X78314730Y-42775422D01*
X78376973Y-42756540D01*
X78434337Y-42725879D01*
X78484616Y-42684616D01*
X78525879Y-42634337D01*
X78556540Y-42576973D01*
X78575422Y-42514730D01*
X78581797Y-42450000D01*
X78581797Y-40450000D01*
X78575422Y-40385270D01*
X78556540Y-40323027D01*
X78525879Y-40265663D01*
X78484616Y-40215384D01*
X78434337Y-40174121D01*
X78376973Y-40143460D01*
X78314730Y-40124578D01*
X78250000Y-40118203D01*
X75050000Y-40118203D01*
X74985270Y-40124578D01*
X74923027Y-40143460D01*
X74865663Y-40174121D01*
X74815384Y-40215384D01*
X74774121Y-40265663D01*
X74743460Y-40323027D01*
X74724578Y-40385270D01*
X74718203Y-40450000D01*
X47986380Y-40450000D01*
X48065103Y-40371278D01*
X48084972Y-40354972D01*
X48150041Y-40275685D01*
X48198391Y-40185227D01*
X48228165Y-40087075D01*
X48235700Y-40010575D01*
X48238219Y-39985001D01*
X48235700Y-39959426D01*
X48235700Y-36496096D01*
X49200900Y-36496096D01*
X49200900Y-36953904D01*
X49290214Y-37402915D01*
X49465410Y-37825874D01*
X49719754Y-38206527D01*
X50043473Y-38530246D01*
X50424126Y-38784590D01*
X50847085Y-38959786D01*
X51296096Y-39049100D01*
X51753904Y-39049100D01*
X52202915Y-38959786D01*
X52625874Y-38784590D01*
X53006527Y-38530246D01*
X53330246Y-38206527D01*
X53584590Y-37825874D01*
X53759786Y-37402915D01*
X53849100Y-36953904D01*
X53849100Y-36606298D01*
X55399800Y-36606298D01*
X55399800Y-36843702D01*
X55446116Y-37076544D01*
X55536966Y-37295876D01*
X55668860Y-37493270D01*
X55836730Y-37661140D01*
X56034124Y-37793034D01*
X56253456Y-37883884D01*
X56486298Y-37930200D01*
X56723702Y-37930200D01*
X56956544Y-37883884D01*
X57175876Y-37793034D01*
X57373270Y-37661140D01*
X57387241Y-37647169D01*
X58048837Y-37647169D01*
X58129654Y-37898929D01*
X58398179Y-38027457D01*
X58686619Y-38101129D01*
X58751515Y-38104618D01*
X58604501Y-38202850D01*
X58436450Y-38370901D01*
X58304413Y-38568508D01*
X58213465Y-38788077D01*
X58167100Y-39021170D01*
X58167100Y-39258830D01*
X58213465Y-39491923D01*
X58304413Y-39711492D01*
X58436450Y-39909099D01*
X58604501Y-40077150D01*
X58802108Y-40209187D01*
X59021677Y-40300135D01*
X59254770Y-40346500D01*
X59492430Y-40346500D01*
X59725523Y-40300135D01*
X59945092Y-40209187D01*
X60142699Y-40077150D01*
X60310750Y-39909099D01*
X60442787Y-39711492D01*
X60533735Y-39491923D01*
X60580100Y-39258830D01*
X60580100Y-39021170D01*
X60533735Y-38788077D01*
X60442787Y-38568508D01*
X60310750Y-38370901D01*
X60158836Y-38218987D01*
X67819800Y-38218987D01*
X67819800Y-38481013D01*
X67870919Y-38738005D01*
X67971192Y-38980086D01*
X68116766Y-39197953D01*
X68302047Y-39383234D01*
X68519914Y-39528808D01*
X68761995Y-39629081D01*
X69018987Y-39680200D01*
X69281013Y-39680200D01*
X69538005Y-39629081D01*
X69780086Y-39528808D01*
X69997953Y-39383234D01*
X70183234Y-39197953D01*
X70328808Y-38980086D01*
X70429081Y-38738005D01*
X70480200Y-38481013D01*
X70480200Y-38218987D01*
X82319800Y-38218987D01*
X82319800Y-38481013D01*
X82370919Y-38738005D01*
X82471192Y-38980086D01*
X82616766Y-39197953D01*
X82802047Y-39383234D01*
X83019914Y-39528808D01*
X83261995Y-39629081D01*
X83518987Y-39680200D01*
X83781013Y-39680200D01*
X84038005Y-39629081D01*
X84280086Y-39528808D01*
X84497953Y-39383234D01*
X84683234Y-39197953D01*
X84828808Y-38980086D01*
X84929081Y-38738005D01*
X84980200Y-38481013D01*
X84980200Y-38218987D01*
X84929081Y-37961995D01*
X84828808Y-37719914D01*
X84683234Y-37502047D01*
X84497953Y-37316766D01*
X84280086Y-37171192D01*
X84038005Y-37070919D01*
X83781013Y-37019800D01*
X83518987Y-37019800D01*
X83261995Y-37070919D01*
X83019914Y-37171192D01*
X82802047Y-37316766D01*
X82616766Y-37502047D01*
X82471192Y-37719914D01*
X82370919Y-37961995D01*
X82319800Y-38218987D01*
X70480200Y-38218987D01*
X70429081Y-37961995D01*
X70328808Y-37719914D01*
X70183234Y-37502047D01*
X69997953Y-37316766D01*
X69947658Y-37283160D01*
X70010044Y-37249814D01*
X70105808Y-36985413D01*
X69150000Y-36029605D01*
X68194192Y-36985413D01*
X68289956Y-37249814D01*
X68354937Y-37281426D01*
X68302047Y-37316766D01*
X68116766Y-37502047D01*
X67971192Y-37719914D01*
X67870919Y-37961995D01*
X67819800Y-38218987D01*
X60158836Y-38218987D01*
X60142699Y-38202850D01*
X59945092Y-38070813D01*
X59725523Y-37979865D01*
X59598861Y-37954670D01*
X59703146Y-37898929D01*
X59783963Y-37647169D01*
X58916400Y-36779605D01*
X58048837Y-37647169D01*
X57387241Y-37647169D01*
X57541140Y-37493270D01*
X57615180Y-37382460D01*
X57617471Y-37386746D01*
X57869231Y-37467563D01*
X58736795Y-36600000D01*
X59096005Y-36600000D01*
X59963569Y-37467563D01*
X60215329Y-37386746D01*
X60343857Y-37118221D01*
X60417529Y-36829781D01*
X60433513Y-36532509D01*
X60391196Y-36237833D01*
X60292202Y-35957073D01*
X60268428Y-35912595D01*
X67508282Y-35912595D01*
X67552039Y-36231675D01*
X67657205Y-36536088D01*
X67750186Y-36710044D01*
X68014587Y-36805808D01*
X68970395Y-35850000D01*
X69329605Y-35850000D01*
X70285413Y-36805808D01*
X70549814Y-36710044D01*
X70690704Y-36420429D01*
X70772384Y-36108892D01*
X70791718Y-35787405D01*
X70747961Y-35468325D01*
X70642795Y-35163912D01*
X70549814Y-34989956D01*
X70285413Y-34894192D01*
X69329605Y-35850000D01*
X68970395Y-35850000D01*
X68014587Y-34894192D01*
X67750186Y-34989956D01*
X67609296Y-35279571D01*
X67527616Y-35591108D01*
X67508282Y-35912595D01*
X60268428Y-35912595D01*
X60215329Y-35813254D01*
X59963569Y-35732437D01*
X59096005Y-36600000D01*
X58736795Y-36600000D01*
X57869231Y-35732437D01*
X57617471Y-35813254D01*
X57545601Y-35963407D01*
X57541140Y-35956730D01*
X57373270Y-35788860D01*
X57175876Y-35656966D01*
X56956544Y-35566116D01*
X56889758Y-35552831D01*
X58048837Y-35552831D01*
X58916400Y-36420395D01*
X59783963Y-35552831D01*
X59773862Y-35521364D01*
X60016527Y-35435802D01*
X60160346Y-35358929D01*
X60241163Y-35107169D01*
X59373600Y-34239605D01*
X58506037Y-35107169D01*
X58516138Y-35138636D01*
X58273473Y-35224198D01*
X58129654Y-35301071D01*
X58048837Y-35552831D01*
X56889758Y-35552831D01*
X56723702Y-35519800D01*
X56486298Y-35519800D01*
X56253456Y-35566116D01*
X56034124Y-35656966D01*
X55836730Y-35788860D01*
X55668860Y-35956730D01*
X55536966Y-36154124D01*
X55446116Y-36373456D01*
X55399800Y-36606298D01*
X53849100Y-36606298D01*
X53849100Y-36496096D01*
X53759786Y-36047085D01*
X53584590Y-35624126D01*
X53330246Y-35243473D01*
X53006527Y-34919754D01*
X52625874Y-34665410D01*
X52202915Y-34490214D01*
X51753904Y-34400900D01*
X51296096Y-34400900D01*
X50847085Y-34490214D01*
X50424126Y-34665410D01*
X50043473Y-34919754D01*
X49719754Y-35243473D01*
X49465410Y-35624126D01*
X49290214Y-36047085D01*
X49200900Y-36496096D01*
X48235700Y-36496096D01*
X48235700Y-35544416D01*
X48404296Y-35474581D01*
X48642636Y-35315328D01*
X48845328Y-35112636D01*
X49004581Y-34874296D01*
X49114277Y-34609466D01*
X49170200Y-34328325D01*
X49170200Y-34127491D01*
X57856487Y-34127491D01*
X57898804Y-34422167D01*
X57997798Y-34702927D01*
X58074671Y-34846746D01*
X58326431Y-34927563D01*
X59193995Y-34060000D01*
X59553205Y-34060000D01*
X60420769Y-34927563D01*
X60672529Y-34846746D01*
X60801057Y-34578221D01*
X60874729Y-34289781D01*
X60890713Y-33992509D01*
X60848396Y-33697833D01*
X60749402Y-33417073D01*
X60672529Y-33273254D01*
X60420769Y-33192437D01*
X59553205Y-34060000D01*
X59193995Y-34060000D01*
X58326431Y-33192437D01*
X58074671Y-33273254D01*
X57946143Y-33541779D01*
X57872471Y-33830219D01*
X57856487Y-34127491D01*
X49170200Y-34127491D01*
X49170200Y-34041675D01*
X49114277Y-33760534D01*
X49004581Y-33495704D01*
X48845328Y-33257364D01*
X48642636Y-33054672D01*
X48404296Y-32895419D01*
X48341797Y-32869531D01*
X53020074Y-32869531D01*
X53130921Y-33146714D01*
X53441840Y-33300089D01*
X53776705Y-33389860D01*
X54122650Y-33412576D01*
X54466380Y-33367366D01*
X54794685Y-33255966D01*
X54999079Y-33146714D01*
X55109926Y-32869531D01*
X54065000Y-31824605D01*
X53020074Y-32869531D01*
X48341797Y-32869531D01*
X48139466Y-32785723D01*
X47858325Y-32729800D01*
X47571675Y-32729800D01*
X47290534Y-32785723D01*
X47025704Y-32895419D01*
X46787364Y-33054672D01*
X46584672Y-33257364D01*
X46425419Y-33495704D01*
X46315723Y-33760534D01*
X46259800Y-34041675D01*
X46259800Y-34328325D01*
X46315723Y-34609466D01*
X46425419Y-34874296D01*
X46584672Y-35112636D01*
X46787364Y-35315328D01*
X47025704Y-35474581D01*
X47194300Y-35544416D01*
X47194300Y-35776185D01*
X47015876Y-35656966D01*
X46796544Y-35566116D01*
X46563702Y-35519800D01*
X46326298Y-35519800D01*
X46093456Y-35566116D01*
X45874124Y-35656966D01*
X45676730Y-35788860D01*
X45508860Y-35956730D01*
X45376966Y-36154124D01*
X45308112Y-36320354D01*
X45293735Y-36248077D01*
X45202787Y-36028508D01*
X45070750Y-35830901D01*
X44902699Y-35662850D01*
X44705092Y-35530813D01*
X44485523Y-35439865D01*
X44252430Y-35393500D01*
X44014770Y-35393500D01*
X43781677Y-35439865D01*
X43562108Y-35530813D01*
X43364501Y-35662850D01*
X43196450Y-35830901D01*
X43064413Y-36028508D01*
X42973465Y-36248077D01*
X42927100Y-36481170D01*
X42927100Y-36718830D01*
X42973465Y-36951923D01*
X43064413Y-37171492D01*
X43196450Y-37369099D01*
X43364501Y-37537150D01*
X43562108Y-37669187D01*
X43781677Y-37760135D01*
X44014770Y-37806500D01*
X44252430Y-37806500D01*
X44485523Y-37760135D01*
X44705092Y-37669187D01*
X44902699Y-37537150D01*
X45070750Y-37369099D01*
X45202787Y-37171492D01*
X45271841Y-37004780D01*
X45286116Y-37076544D01*
X45376966Y-37295876D01*
X45508860Y-37493270D01*
X45676730Y-37661140D01*
X45874124Y-37793034D01*
X46093456Y-37883884D01*
X46326298Y-37930200D01*
X46563702Y-37930200D01*
X46796544Y-37883884D01*
X47015876Y-37793034D01*
X47194301Y-37673815D01*
X47194301Y-39769318D01*
X46179898Y-40783722D01*
X46160029Y-40800028D01*
X46118523Y-40850603D01*
X46079972Y-40803628D01*
X46060103Y-40787322D01*
X44815496Y-39542716D01*
X44836535Y-39491923D01*
X44882900Y-39258830D01*
X44882900Y-39021170D01*
X44836535Y-38788077D01*
X44745587Y-38568508D01*
X44613550Y-38370901D01*
X44445499Y-38202850D01*
X44247892Y-38070813D01*
X44028323Y-37979865D01*
X43795230Y-37933500D01*
X43557570Y-37933500D01*
X43324477Y-37979865D01*
X43104908Y-38070813D01*
X42907301Y-38202850D01*
X42739250Y-38370901D01*
X42607213Y-38568508D01*
X42516265Y-38788077D01*
X42469900Y-39021170D01*
X32844317Y-39021170D01*
X33152915Y-38959786D01*
X33575874Y-38784590D01*
X33956527Y-38530246D01*
X34280246Y-38206527D01*
X34534590Y-37825874D01*
X34709786Y-37402915D01*
X34799100Y-36953904D01*
X34799100Y-36606298D01*
X36349800Y-36606298D01*
X36349800Y-36843702D01*
X36396116Y-37076544D01*
X36486966Y-37295876D01*
X36618860Y-37493270D01*
X36786730Y-37661140D01*
X36984124Y-37793034D01*
X37203456Y-37883884D01*
X37436298Y-37930200D01*
X37673702Y-37930200D01*
X37906544Y-37883884D01*
X38125876Y-37793034D01*
X38323270Y-37661140D01*
X38491140Y-37493270D01*
X38623034Y-37295876D01*
X38713884Y-37076544D01*
X38760200Y-36843702D01*
X38760200Y-36606298D01*
X38713884Y-36373456D01*
X38623034Y-36154124D01*
X38491140Y-35956730D01*
X38323270Y-35788860D01*
X38125876Y-35656966D01*
X37906544Y-35566116D01*
X37673702Y-35519800D01*
X37436298Y-35519800D01*
X37203456Y-35566116D01*
X36984124Y-35656966D01*
X36786730Y-35788860D01*
X36618860Y-35956730D01*
X36486966Y-36154124D01*
X36396116Y-36373456D01*
X36349800Y-36606298D01*
X34799100Y-36606298D01*
X34799100Y-36496096D01*
X34709786Y-36047085D01*
X34534590Y-35624126D01*
X34280246Y-35243473D01*
X33956527Y-34919754D01*
X33575874Y-34665410D01*
X33152915Y-34490214D01*
X32703904Y-34400900D01*
X32246096Y-34400900D01*
X31797085Y-34490214D01*
X31374126Y-34665410D01*
X30993473Y-34919754D01*
X30669754Y-35243473D01*
X30415410Y-35624126D01*
X30240214Y-36047085D01*
X30150900Y-36496096D01*
X28578280Y-36496096D01*
X28553884Y-36373456D01*
X28463034Y-36154124D01*
X28331140Y-35956730D01*
X28163270Y-35788860D01*
X27965876Y-35656966D01*
X27746544Y-35566116D01*
X27513702Y-35519800D01*
X27276298Y-35519800D01*
X27043456Y-35566116D01*
X26824124Y-35656966D01*
X26626730Y-35788860D01*
X26458860Y-35956730D01*
X26326966Y-36154124D01*
X26236116Y-36373456D01*
X26189800Y-36606298D01*
X20387000Y-36606298D01*
X20387000Y-34041675D01*
X27209800Y-34041675D01*
X27209800Y-34328325D01*
X27265723Y-34609466D01*
X27375419Y-34874296D01*
X27534672Y-35112636D01*
X27737364Y-35315328D01*
X27975704Y-35474581D01*
X28240534Y-35584277D01*
X28521675Y-35640200D01*
X28808325Y-35640200D01*
X29089466Y-35584277D01*
X29354296Y-35474581D01*
X29592636Y-35315328D01*
X29795328Y-35112636D01*
X29954581Y-34874296D01*
X30064277Y-34609466D01*
X30120200Y-34328325D01*
X30120200Y-34041675D01*
X30064277Y-33760534D01*
X29954581Y-33495704D01*
X29795328Y-33257364D01*
X29592636Y-33054672D01*
X29354296Y-32895419D01*
X29089466Y-32785723D01*
X28808325Y-32729800D01*
X28521675Y-32729800D01*
X28240534Y-32785723D01*
X27975704Y-32895419D01*
X27737364Y-33054672D01*
X27534672Y-33257364D01*
X27375419Y-33495704D01*
X27265723Y-33760534D01*
X27209800Y-34041675D01*
X20387000Y-34041675D01*
X20387000Y-31702650D01*
X33247424Y-31702650D01*
X33292634Y-32046380D01*
X33404034Y-32374685D01*
X33513286Y-32579079D01*
X33790469Y-32689926D01*
X34835395Y-31645000D01*
X33790469Y-30600074D01*
X33513286Y-30710921D01*
X33359911Y-31021840D01*
X33270140Y-31356705D01*
X33247424Y-31702650D01*
X20387000Y-31702650D01*
X20387000Y-30516386D01*
X20461469Y-29638747D01*
X20678615Y-28802120D01*
X21033619Y-28014041D01*
X21516330Y-27297044D01*
X21733886Y-27068987D01*
X32669800Y-27068987D01*
X32669800Y-27331013D01*
X32720919Y-27588005D01*
X32821192Y-27830086D01*
X32966766Y-28047953D01*
X33152047Y-28233234D01*
X33369914Y-28378808D01*
X33611995Y-28479081D01*
X33868987Y-28530200D01*
X34131013Y-28530200D01*
X34388005Y-28479081D01*
X34497391Y-28433772D01*
X36209300Y-30145681D01*
X36209300Y-30339110D01*
X36175291Y-30305101D01*
X36059925Y-30420467D01*
X35949079Y-30143286D01*
X35638160Y-29989911D01*
X35303295Y-29900140D01*
X34957350Y-29877424D01*
X34613620Y-29922634D01*
X34285315Y-30034034D01*
X34080921Y-30143286D01*
X33970074Y-30420469D01*
X35015000Y-31465395D01*
X35029143Y-31451253D01*
X35208748Y-31630858D01*
X35194605Y-31645000D01*
X35208748Y-31659143D01*
X35029143Y-31838748D01*
X35015000Y-31824605D01*
X33970074Y-32869531D01*
X34080921Y-33146714D01*
X34391840Y-33300089D01*
X34726705Y-33389860D01*
X35072650Y-33412576D01*
X35416380Y-33367366D01*
X35744685Y-33255966D01*
X35949079Y-33146714D01*
X36059925Y-32869533D01*
X36175291Y-32984899D01*
X36209301Y-32950889D01*
X36209301Y-33078041D01*
X36162817Y-33124525D01*
X36082905Y-33244121D01*
X36027861Y-33377009D01*
X35999800Y-33518082D01*
X35999800Y-33661918D01*
X36027861Y-33802991D01*
X36082905Y-33935879D01*
X36162817Y-34055475D01*
X36264525Y-34157183D01*
X36384121Y-34237095D01*
X36517009Y-34292139D01*
X36658082Y-34320200D01*
X36801918Y-34320200D01*
X36942991Y-34292139D01*
X37075879Y-34237095D01*
X37195475Y-34157183D01*
X37297183Y-34055475D01*
X37373559Y-33941170D01*
X42469900Y-33941170D01*
X42469900Y-34178830D01*
X42516265Y-34411923D01*
X42607213Y-34631492D01*
X42739250Y-34829099D01*
X42907301Y-34997150D01*
X43104908Y-35129187D01*
X43324477Y-35220135D01*
X43557570Y-35266500D01*
X43795230Y-35266500D01*
X44028323Y-35220135D01*
X44247892Y-35129187D01*
X44445499Y-34997150D01*
X44613550Y-34829099D01*
X44745587Y-34631492D01*
X44836535Y-34411923D01*
X44882900Y-34178830D01*
X44882900Y-33941170D01*
X44836535Y-33708077D01*
X44745587Y-33488508D01*
X44613550Y-33290901D01*
X44445499Y-33122850D01*
X44296648Y-33023391D01*
X44495767Y-32994796D01*
X44776527Y-32895802D01*
X44920346Y-32818929D01*
X45001163Y-32567169D01*
X44133600Y-31699605D01*
X43266037Y-32567169D01*
X43346854Y-32818929D01*
X43459738Y-32872960D01*
X43324477Y-32899865D01*
X43104908Y-32990813D01*
X42907301Y-33122850D01*
X42739250Y-33290901D01*
X42607213Y-33488508D01*
X42516265Y-33708077D01*
X42469900Y-33941170D01*
X37373559Y-33941170D01*
X37377095Y-33935879D01*
X37432139Y-33802991D01*
X37460200Y-33661918D01*
X37460200Y-33518082D01*
X37432139Y-33377009D01*
X37377095Y-33244121D01*
X37297183Y-33124525D01*
X37250700Y-33078042D01*
X37250700Y-31587491D01*
X42616487Y-31587491D01*
X42658804Y-31882167D01*
X42757798Y-32162927D01*
X42834671Y-32306746D01*
X43086431Y-32387563D01*
X43953995Y-31520000D01*
X44313205Y-31520000D01*
X45180769Y-32387563D01*
X45432529Y-32306746D01*
X45561057Y-32038221D01*
X45634729Y-31749781D01*
X45637263Y-31702650D01*
X52297424Y-31702650D01*
X52342634Y-32046380D01*
X52454034Y-32374685D01*
X52563286Y-32579079D01*
X52840469Y-32689926D01*
X53885395Y-31645000D01*
X54244605Y-31645000D01*
X55289531Y-32689926D01*
X55566714Y-32579079D01*
X55720089Y-32268160D01*
X55809860Y-31933295D01*
X55832576Y-31587350D01*
X55808089Y-31401170D01*
X57709900Y-31401170D01*
X57709900Y-31638830D01*
X57756265Y-31871923D01*
X57847213Y-32091492D01*
X57979250Y-32289099D01*
X58147301Y-32457150D01*
X58344908Y-32589187D01*
X58564477Y-32680135D01*
X58691139Y-32705330D01*
X58586854Y-32761071D01*
X58506037Y-33012831D01*
X59373600Y-33880395D01*
X60241163Y-33012831D01*
X60160346Y-32761071D01*
X59891821Y-32632543D01*
X59603381Y-32558871D01*
X59538485Y-32555382D01*
X59685499Y-32457150D01*
X59853550Y-32289099D01*
X59985587Y-32091492D01*
X60076535Y-31871923D01*
X60122900Y-31638830D01*
X60122900Y-31401170D01*
X60076535Y-31168077D01*
X59985587Y-30948508D01*
X59853550Y-30750901D01*
X59685499Y-30582850D01*
X59487892Y-30450813D01*
X59268323Y-30359865D01*
X59035230Y-30313500D01*
X58797570Y-30313500D01*
X58564477Y-30359865D01*
X58344908Y-30450813D01*
X58147301Y-30582850D01*
X57979250Y-30750901D01*
X57847213Y-30948508D01*
X57756265Y-31168077D01*
X57709900Y-31401170D01*
X55808089Y-31401170D01*
X55787366Y-31243620D01*
X55675966Y-30915315D01*
X55566714Y-30710921D01*
X55289531Y-30600074D01*
X54244605Y-31645000D01*
X53885395Y-31645000D01*
X52840469Y-30600074D01*
X52563286Y-30710921D01*
X52409911Y-31021840D01*
X52320140Y-31356705D01*
X52297424Y-31702650D01*
X45637263Y-31702650D01*
X45650713Y-31452509D01*
X45608396Y-31157833D01*
X45509402Y-30877073D01*
X45432529Y-30733254D01*
X45180769Y-30652437D01*
X44313205Y-31520000D01*
X43953995Y-31520000D01*
X43086431Y-30652437D01*
X42834671Y-30733254D01*
X42706143Y-31001779D01*
X42632471Y-31290219D01*
X42616487Y-31587491D01*
X37250700Y-31587491D01*
X37250700Y-29955574D01*
X37253219Y-29929999D01*
X37243165Y-29827924D01*
X37234133Y-29798150D01*
X37213391Y-29729773D01*
X37165041Y-29639315D01*
X37099972Y-29560028D01*
X37080103Y-29543722D01*
X36397551Y-28861170D01*
X42469900Y-28861170D01*
X42469900Y-29098830D01*
X42516265Y-29331923D01*
X42607213Y-29551492D01*
X42739250Y-29749099D01*
X42907301Y-29917150D01*
X43104908Y-30049187D01*
X43324477Y-30140135D01*
X43451139Y-30165330D01*
X43346854Y-30221071D01*
X43266037Y-30472831D01*
X44133600Y-31340395D01*
X45001163Y-30472831D01*
X44984355Y-30420469D01*
X53020074Y-30420469D01*
X54065000Y-31465395D01*
X55109926Y-30420469D01*
X54999079Y-30143286D01*
X54688160Y-29989911D01*
X54353295Y-29900140D01*
X54007350Y-29877424D01*
X53663620Y-29922634D01*
X53335315Y-30034034D01*
X53130921Y-30143286D01*
X53020074Y-30420469D01*
X44984355Y-30420469D01*
X44920346Y-30221071D01*
X44651821Y-30092543D01*
X44363381Y-30018871D01*
X44298485Y-30015382D01*
X44445499Y-29917150D01*
X44613550Y-29749099D01*
X44745587Y-29551492D01*
X44836535Y-29331923D01*
X44882900Y-29098830D01*
X44882900Y-28861170D01*
X44836535Y-28628077D01*
X44745587Y-28408508D01*
X44613550Y-28210901D01*
X44506349Y-28103700D01*
X58165503Y-28103700D01*
X58165503Y-29856300D01*
X58171878Y-29921030D01*
X58190760Y-29983273D01*
X58221421Y-30040637D01*
X58262684Y-30090916D01*
X58312963Y-30132179D01*
X58370327Y-30162840D01*
X58432570Y-30181722D01*
X58497300Y-30188097D01*
X60249900Y-30188097D01*
X60314630Y-30181722D01*
X60376873Y-30162840D01*
X60434237Y-30132179D01*
X60484516Y-30090916D01*
X60525779Y-30040637D01*
X60556440Y-29983273D01*
X60575322Y-29921030D01*
X60581697Y-29856300D01*
X60581697Y-29480000D01*
X63311928Y-29480000D01*
X63324188Y-29604482D01*
X63360498Y-29724180D01*
X63419463Y-29834494D01*
X63498815Y-29931185D01*
X63595506Y-30010537D01*
X63646772Y-30037940D01*
X63631813Y-30087253D01*
X63615784Y-30250000D01*
X63631813Y-30412747D01*
X63679285Y-30569241D01*
X63756375Y-30713466D01*
X63860120Y-30839880D01*
X63915099Y-30885000D01*
X63860120Y-30930120D01*
X63756375Y-31056534D01*
X63679285Y-31200759D01*
X63631813Y-31357253D01*
X63615784Y-31520000D01*
X63631813Y-31682747D01*
X63679285Y-31839241D01*
X63756375Y-31983466D01*
X63860120Y-32109880D01*
X63986534Y-32213625D01*
X64130759Y-32290715D01*
X64287253Y-32338187D01*
X64409224Y-32350200D01*
X64490776Y-32350200D01*
X64492806Y-32350000D01*
X67818203Y-32350000D01*
X67818203Y-34350000D01*
X67824578Y-34414730D01*
X67843460Y-34476973D01*
X67874121Y-34534337D01*
X67915384Y-34584616D01*
X67965663Y-34625879D01*
X68023027Y-34656540D01*
X68085270Y-34675422D01*
X68150000Y-34681797D01*
X68206068Y-34681797D01*
X68194192Y-34714587D01*
X69150000Y-35670395D01*
X70105808Y-34714587D01*
X70093932Y-34681797D01*
X70150000Y-34681797D01*
X70214730Y-34675422D01*
X70276973Y-34656540D01*
X70334337Y-34625879D01*
X70384616Y-34584616D01*
X70425879Y-34534337D01*
X70452028Y-34485413D01*
X82694192Y-34485413D01*
X82789956Y-34749814D01*
X83079571Y-34890704D01*
X83391108Y-34972384D01*
X83712595Y-34991718D01*
X84031675Y-34947961D01*
X84336088Y-34842795D01*
X84510044Y-34749814D01*
X84605808Y-34485413D01*
X83650000Y-33529605D01*
X82694192Y-34485413D01*
X70452028Y-34485413D01*
X70456540Y-34476973D01*
X70475422Y-34414730D01*
X70481797Y-34350000D01*
X70481797Y-33412595D01*
X82008282Y-33412595D01*
X82052039Y-33731675D01*
X82157205Y-34036088D01*
X82250186Y-34210044D01*
X82514587Y-34305808D01*
X83470395Y-33350000D01*
X83829605Y-33350000D01*
X84785413Y-34305808D01*
X85049814Y-34210044D01*
X85190704Y-33920429D01*
X85272384Y-33608892D01*
X85291718Y-33287405D01*
X85247961Y-32968325D01*
X85142795Y-32663912D01*
X85049814Y-32489956D01*
X84785413Y-32394192D01*
X83829605Y-33350000D01*
X83470395Y-33350000D01*
X82514587Y-32394192D01*
X82250186Y-32489956D01*
X82109296Y-32779571D01*
X82027616Y-33091108D01*
X82008282Y-33412595D01*
X70481797Y-33412595D01*
X70481797Y-32350000D01*
X70475422Y-32285270D01*
X70456540Y-32223027D01*
X70452029Y-32214587D01*
X82694192Y-32214587D01*
X83650000Y-33170395D01*
X84605808Y-32214587D01*
X84510044Y-31950186D01*
X84220429Y-31809296D01*
X83908892Y-31727616D01*
X83587405Y-31708282D01*
X83268325Y-31752039D01*
X82963912Y-31857205D01*
X82789956Y-31950186D01*
X82694192Y-32214587D01*
X70452029Y-32214587D01*
X70425879Y-32165663D01*
X70384616Y-32115384D01*
X70334337Y-32074121D01*
X70276973Y-32043460D01*
X70214730Y-32024578D01*
X70150000Y-32018203D01*
X68150000Y-32018203D01*
X68085270Y-32024578D01*
X68023027Y-32043460D01*
X67965663Y-32074121D01*
X67915384Y-32115384D01*
X67874121Y-32165663D01*
X67843460Y-32223027D01*
X67824578Y-32285270D01*
X67818203Y-32350000D01*
X64492806Y-32350000D01*
X64612747Y-32338187D01*
X64769241Y-32290715D01*
X64913466Y-32213625D01*
X65039880Y-32109880D01*
X65143625Y-31983466D01*
X65220715Y-31839241D01*
X65268187Y-31682747D01*
X65284216Y-31520000D01*
X65268187Y-31357253D01*
X65220715Y-31200759D01*
X65143625Y-31056534D01*
X65039880Y-30930120D01*
X64984901Y-30885000D01*
X65039880Y-30839880D01*
X65143625Y-30713466D01*
X65220715Y-30569241D01*
X65268187Y-30412747D01*
X65284216Y-30250000D01*
X65268187Y-30087253D01*
X65253228Y-30037940D01*
X65304494Y-30010537D01*
X65401185Y-29931185D01*
X65480537Y-29834494D01*
X65539502Y-29724180D01*
X65575812Y-29604482D01*
X65588072Y-29480000D01*
X65585000Y-29265750D01*
X65569250Y-29250000D01*
X74718203Y-29250000D01*
X74718203Y-31250000D01*
X74724578Y-31314730D01*
X74743460Y-31376973D01*
X74774121Y-31434337D01*
X74815384Y-31484616D01*
X74865663Y-31525879D01*
X74923027Y-31556540D01*
X74985270Y-31575422D01*
X75050000Y-31581797D01*
X78250000Y-31581797D01*
X78314730Y-31575422D01*
X78376973Y-31556540D01*
X78434337Y-31525879D01*
X78484616Y-31484616D01*
X78525879Y-31434337D01*
X78556540Y-31376973D01*
X78575422Y-31314730D01*
X78581797Y-31250000D01*
X78581797Y-29250000D01*
X78575422Y-29185270D01*
X78556540Y-29123027D01*
X78525879Y-29065663D01*
X78484616Y-29015384D01*
X78434337Y-28974121D01*
X78376973Y-28943460D01*
X78314730Y-28924578D01*
X78250000Y-28918203D01*
X75050000Y-28918203D01*
X74985270Y-28924578D01*
X74923027Y-28943460D01*
X74865663Y-28974121D01*
X74815384Y-29015384D01*
X74774121Y-29065663D01*
X74743460Y-29123027D01*
X74724578Y-29185270D01*
X74718203Y-29250000D01*
X65569250Y-29250000D01*
X65426250Y-29107000D01*
X64577000Y-29107000D01*
X64577000Y-29127000D01*
X64323000Y-29127000D01*
X64323000Y-29107000D01*
X63473750Y-29107000D01*
X63315000Y-29265750D01*
X63311928Y-29480000D01*
X60581697Y-29480000D01*
X60581697Y-28480000D01*
X63311928Y-28480000D01*
X63315000Y-28694250D01*
X63473750Y-28853000D01*
X64323000Y-28853000D01*
X64323000Y-28003750D01*
X64577000Y-28003750D01*
X64577000Y-28853000D01*
X65426250Y-28853000D01*
X65585000Y-28694250D01*
X65588072Y-28480000D01*
X65575812Y-28355518D01*
X65539502Y-28235820D01*
X65480537Y-28125506D01*
X65401185Y-28028815D01*
X65304494Y-27949463D01*
X65194180Y-27890498D01*
X65074482Y-27854188D01*
X64950000Y-27841928D01*
X64735750Y-27845000D01*
X64577000Y-28003750D01*
X64323000Y-28003750D01*
X64164250Y-27845000D01*
X63950000Y-27841928D01*
X63825518Y-27854188D01*
X63705820Y-27890498D01*
X63595506Y-27949463D01*
X63498815Y-28028815D01*
X63419463Y-28125506D01*
X63360498Y-28235820D01*
X63324188Y-28355518D01*
X63311928Y-28480000D01*
X60581697Y-28480000D01*
X60581697Y-28103700D01*
X60575322Y-28038970D01*
X60556440Y-27976727D01*
X60525779Y-27919363D01*
X60484516Y-27869084D01*
X60434237Y-27827821D01*
X60376873Y-27797160D01*
X60314630Y-27778278D01*
X60249900Y-27771903D01*
X58497300Y-27771903D01*
X58432570Y-27778278D01*
X58370327Y-27797160D01*
X58312963Y-27827821D01*
X58262684Y-27869084D01*
X58221421Y-27919363D01*
X58190760Y-27976727D01*
X58171878Y-28038970D01*
X58165503Y-28103700D01*
X44506349Y-28103700D01*
X44445499Y-28042850D01*
X44247892Y-27910813D01*
X44028323Y-27819865D01*
X43795230Y-27773500D01*
X43557570Y-27773500D01*
X43324477Y-27819865D01*
X43104908Y-27910813D01*
X42907301Y-28042850D01*
X42739250Y-28210901D01*
X42607213Y-28408508D01*
X42516265Y-28628077D01*
X42469900Y-28861170D01*
X36397551Y-28861170D01*
X35871794Y-28335413D01*
X39544192Y-28335413D01*
X39639956Y-28599814D01*
X39929571Y-28740704D01*
X40241108Y-28822384D01*
X40562595Y-28841718D01*
X40881675Y-28797961D01*
X41186088Y-28692795D01*
X41360044Y-28599814D01*
X41455808Y-28335413D01*
X40500000Y-27379605D01*
X39544192Y-28335413D01*
X35871794Y-28335413D01*
X35233772Y-27697391D01*
X35279081Y-27588005D01*
X35330200Y-27331013D01*
X35330200Y-27262595D01*
X38858282Y-27262595D01*
X38902039Y-27581675D01*
X39007205Y-27886088D01*
X39100186Y-28060044D01*
X39364587Y-28155808D01*
X40320395Y-27200000D01*
X40679605Y-27200000D01*
X41635413Y-28155808D01*
X41899814Y-28060044D01*
X42040704Y-27770429D01*
X42122384Y-27458892D01*
X42141718Y-27137405D01*
X42097961Y-26818325D01*
X41992795Y-26513912D01*
X41899814Y-26339956D01*
X41635413Y-26244192D01*
X40679605Y-27200000D01*
X40320395Y-27200000D01*
X39364587Y-26244192D01*
X39100186Y-26339956D01*
X38959296Y-26629571D01*
X38877616Y-26941108D01*
X38858282Y-27262595D01*
X35330200Y-27262595D01*
X35330200Y-27068987D01*
X35279081Y-26811995D01*
X35178808Y-26569914D01*
X35033234Y-26352047D01*
X34847953Y-26166766D01*
X34695032Y-26064587D01*
X39544192Y-26064587D01*
X40500000Y-27020395D01*
X41455808Y-26064587D01*
X41360044Y-25800186D01*
X41070429Y-25659296D01*
X40758892Y-25577616D01*
X40437405Y-25558282D01*
X40118325Y-25602039D01*
X39813912Y-25707205D01*
X39639956Y-25800186D01*
X39544192Y-26064587D01*
X34695032Y-26064587D01*
X34630086Y-26021192D01*
X34388005Y-25920919D01*
X34131013Y-25869800D01*
X33868987Y-25869800D01*
X33611995Y-25920919D01*
X33369914Y-26021192D01*
X33152047Y-26166766D01*
X32966766Y-26352047D01*
X32821192Y-26569914D01*
X32720919Y-26811995D01*
X32669800Y-27068987D01*
X21733886Y-27068987D01*
X22112946Y-26671631D01*
X22806406Y-26155681D01*
X23576887Y-25763949D01*
X24402359Y-25507632D01*
X25270982Y-25392505D01*
X25504578Y-25387000D01*
X81233614Y-25387000D01*
X82111253Y-25461469D01*
X82111253Y-25461469D01*
G37*
X82111253Y-25461469D02*
X82947880Y-25678615D01*
X83735959Y-26033619D01*
X84452956Y-26516330D01*
X85078369Y-27112946D01*
X85594319Y-27806406D01*
X85986051Y-28576887D01*
X86242368Y-29402359D01*
X86357495Y-30270982D01*
X86363000Y-30504578D01*
X86363001Y-61983603D01*
X86288531Y-62861253D01*
X86071387Y-63697875D01*
X85716382Y-64485957D01*
X85233672Y-65202953D01*
X84637057Y-65828367D01*
X83943592Y-66344319D01*
X83173113Y-66736051D01*
X82347641Y-66992368D01*
X81479018Y-67107495D01*
X81245422Y-67113000D01*
X25516386Y-67113000D01*
X24638747Y-67038531D01*
X23802125Y-66821387D01*
X23014043Y-66466382D01*
X22297047Y-65983672D01*
X21671633Y-65387057D01*
X21155681Y-64693592D01*
X20763949Y-63923113D01*
X20507632Y-63097641D01*
X20392505Y-62229018D01*
X20387000Y-61995422D01*
X20387000Y-55656298D01*
X26189800Y-55656298D01*
X26189800Y-55893702D01*
X26236116Y-56126544D01*
X26326966Y-56345876D01*
X26458860Y-56543270D01*
X26626730Y-56711140D01*
X26824124Y-56843034D01*
X27043456Y-56933884D01*
X27276298Y-56980200D01*
X27513702Y-56980200D01*
X27746544Y-56933884D01*
X27965876Y-56843034D01*
X28163270Y-56711140D01*
X28331140Y-56543270D01*
X28463034Y-56345876D01*
X28553884Y-56126544D01*
X28600200Y-55893702D01*
X28600200Y-55656298D01*
X28553884Y-55423456D01*
X28463034Y-55204124D01*
X28331140Y-55006730D01*
X28163270Y-54838860D01*
X27965876Y-54706966D01*
X27746544Y-54616116D01*
X27513702Y-54569800D01*
X27276298Y-54569800D01*
X27043456Y-54616116D01*
X26824124Y-54706966D01*
X26626730Y-54838860D01*
X26458860Y-55006730D01*
X26326966Y-55204124D01*
X26236116Y-55423456D01*
X26189800Y-55656298D01*
X20387000Y-55656298D01*
X20387000Y-53091675D01*
X27209800Y-53091675D01*
X27209800Y-53378325D01*
X27265723Y-53659466D01*
X27375419Y-53924296D01*
X27534672Y-54162636D01*
X27737364Y-54365328D01*
X27975704Y-54524581D01*
X28240534Y-54634277D01*
X28521675Y-54690200D01*
X28808325Y-54690200D01*
X29089466Y-54634277D01*
X29317796Y-54539700D01*
X29316781Y-54550000D01*
X29319300Y-54575575D01*
X29319301Y-56874415D01*
X29316781Y-56900000D01*
X29326835Y-57002075D01*
X29337985Y-57038830D01*
X29356610Y-57100227D01*
X29404960Y-57190685D01*
X29470029Y-57269972D01*
X29489898Y-57286278D01*
X30684300Y-58480681D01*
X30684301Y-59682297D01*
X30597414Y-59718286D01*
X30387327Y-59858662D01*
X30208662Y-60037327D01*
X30068286Y-60247414D01*
X29971594Y-60480850D01*
X29922300Y-60728665D01*
X29922300Y-60981335D01*
X29971594Y-61229150D01*
X30068286Y-61462586D01*
X30208662Y-61672673D01*
X30387327Y-61851338D01*
X30597414Y-61991714D01*
X30830850Y-62088406D01*
X31078665Y-62137700D01*
X31331335Y-62137700D01*
X31579150Y-62088406D01*
X31812586Y-61991714D01*
X32022673Y-61851338D01*
X32201338Y-61672673D01*
X32341714Y-61462586D01*
X32438406Y-61229150D01*
X32460703Y-61117057D01*
X32460703Y-61807500D01*
X32467078Y-61872230D01*
X32485960Y-61934473D01*
X32516621Y-61991837D01*
X32557884Y-62042116D01*
X32608163Y-62083379D01*
X32665527Y-62114040D01*
X32727770Y-62132922D01*
X32792500Y-62139297D01*
X33219301Y-62139297D01*
X33219300Y-64408909D01*
X33083286Y-64499791D01*
X32939791Y-64643286D01*
X32827048Y-64812017D01*
X32749390Y-64999502D01*
X32709800Y-65198534D01*
X32709800Y-65401466D01*
X32749390Y-65600498D01*
X32827048Y-65787983D01*
X32939791Y-65956714D01*
X33083286Y-66100209D01*
X33252017Y-66212952D01*
X33439502Y-66290610D01*
X33638534Y-66330200D01*
X33841466Y-66330200D01*
X34040498Y-66290610D01*
X34227983Y-66212952D01*
X34396714Y-66100209D01*
X34540209Y-65956714D01*
X34652952Y-65787983D01*
X34730610Y-65600498D01*
X34770200Y-65401466D01*
X34770200Y-65198534D01*
X34730610Y-64999502D01*
X34652952Y-64812017D01*
X34540209Y-64643286D01*
X34396714Y-64499791D01*
X34260700Y-64408909D01*
X34260700Y-62139297D01*
X34697500Y-62139297D01*
X34762230Y-62132922D01*
X34824473Y-62114040D01*
X34881837Y-62083379D01*
X34932116Y-62042116D01*
X34973379Y-61991837D01*
X35004040Y-61934473D01*
X35022922Y-61872230D01*
X35029297Y-61807500D01*
X35029297Y-59902500D01*
X35022922Y-59837770D01*
X35004040Y-59775527D01*
X34973379Y-59718163D01*
X34932116Y-59667884D01*
X34881837Y-59626621D01*
X34824473Y-59595960D01*
X34762230Y-59577078D01*
X34697500Y-59570703D01*
X32792500Y-59570703D01*
X32727770Y-59577078D01*
X32665527Y-59595960D01*
X32608163Y-59626621D01*
X32557884Y-59667884D01*
X32516621Y-59718163D01*
X32485960Y-59775527D01*
X32467078Y-59837770D01*
X32460703Y-59902500D01*
X32460703Y-60592943D01*
X32438406Y-60480850D01*
X32341714Y-60247414D01*
X32201338Y-60037327D01*
X32022673Y-59858662D01*
X31812586Y-59718286D01*
X31725700Y-59682297D01*
X31725700Y-58290577D01*
X31728219Y-58265000D01*
X31718166Y-58162925D01*
X31688391Y-58064773D01*
X31681604Y-58052075D01*
X31640041Y-57974315D01*
X31603265Y-57929503D01*
X31797085Y-58009786D01*
X32246096Y-58099100D01*
X32703904Y-58099100D01*
X33152915Y-58009786D01*
X33575874Y-57834590D01*
X33956527Y-57580246D01*
X34280246Y-57256527D01*
X34534590Y-56875874D01*
X34709786Y-56452915D01*
X34799100Y-56003904D01*
X34799100Y-55656298D01*
X36349800Y-55656298D01*
X36349800Y-55893702D01*
X36396116Y-56126544D01*
X36486966Y-56345876D01*
X36618860Y-56543270D01*
X36786730Y-56711140D01*
X36984124Y-56843034D01*
X37203456Y-56933884D01*
X37436298Y-56980200D01*
X37673702Y-56980200D01*
X37906544Y-56933884D01*
X38125876Y-56843034D01*
X38323270Y-56711140D01*
X38491140Y-56543270D01*
X38623034Y-56345876D01*
X38713884Y-56126544D01*
X38760200Y-55893702D01*
X38760200Y-55656298D01*
X38713884Y-55423456D01*
X38623034Y-55204124D01*
X38491140Y-55006730D01*
X38323270Y-54838860D01*
X38125876Y-54706966D01*
X37906544Y-54616116D01*
X37673702Y-54569800D01*
X37436298Y-54569800D01*
X37203456Y-54616116D01*
X36984124Y-54706966D01*
X36786730Y-54838860D01*
X36618860Y-55006730D01*
X36486966Y-55204124D01*
X36396116Y-55423456D01*
X36349800Y-55656298D01*
X34799100Y-55656298D01*
X34799100Y-55546096D01*
X34709786Y-55097085D01*
X34534590Y-54674126D01*
X34280246Y-54293473D01*
X33956527Y-53969754D01*
X33575874Y-53715410D01*
X33152915Y-53540214D01*
X32703904Y-53450900D01*
X32246096Y-53450900D01*
X31797085Y-53540214D01*
X31437024Y-53689357D01*
X31555103Y-53571278D01*
X31574972Y-53554972D01*
X31640041Y-53475685D01*
X31688391Y-53385227D01*
X31702998Y-53337075D01*
X31718166Y-53287075D01*
X31728219Y-53185000D01*
X31725700Y-53159423D01*
X31725700Y-51919531D01*
X33970074Y-51919531D01*
X34080921Y-52196714D01*
X34391840Y-52350089D01*
X34726705Y-52439860D01*
X35072650Y-52462576D01*
X35416380Y-52417366D01*
X35744685Y-52305966D01*
X35949079Y-52196714D01*
X36059926Y-51919531D01*
X35015000Y-50874605D01*
X33970074Y-51919531D01*
X31725700Y-51919531D01*
X31725700Y-50752650D01*
X33247424Y-50752650D01*
X33292634Y-51096380D01*
X33404034Y-51424685D01*
X33513286Y-51629079D01*
X33790469Y-51739926D01*
X34835395Y-50695000D01*
X35194605Y-50695000D01*
X36239531Y-51739926D01*
X36516714Y-51629079D01*
X36670089Y-51318160D01*
X36759860Y-50983295D01*
X36782576Y-50637350D01*
X36737366Y-50293620D01*
X36625966Y-49965315D01*
X36516714Y-49760921D01*
X36239531Y-49650074D01*
X35194605Y-50695000D01*
X34835395Y-50695000D01*
X33790469Y-49650074D01*
X33513286Y-49760921D01*
X33359911Y-50071840D01*
X33270140Y-50406705D01*
X33247424Y-50752650D01*
X31725700Y-50752650D01*
X31725700Y-49470469D01*
X33970074Y-49470469D01*
X35015000Y-50515395D01*
X36059926Y-49470469D01*
X35949079Y-49193286D01*
X35638160Y-49039911D01*
X35303295Y-48950140D01*
X34957350Y-48927424D01*
X34613620Y-48972634D01*
X34285315Y-49084034D01*
X34080921Y-49193286D01*
X33970074Y-49470469D01*
X31725700Y-49470469D01*
X31725700Y-42977703D01*
X31812586Y-42941714D01*
X32022673Y-42801338D01*
X32201338Y-42622673D01*
X32341714Y-42412586D01*
X32438406Y-42179150D01*
X32460703Y-42067057D01*
X32460703Y-42757500D01*
X32467078Y-42822230D01*
X32485960Y-42884473D01*
X32516621Y-42941837D01*
X32557884Y-42992116D01*
X32608163Y-43033379D01*
X32665527Y-43064040D01*
X32727770Y-43082922D01*
X32792500Y-43089297D01*
X33224300Y-43089297D01*
X33224301Y-45355567D01*
X33083286Y-45449791D01*
X32939791Y-45593286D01*
X32827048Y-45762017D01*
X32749390Y-45949502D01*
X32709800Y-46148534D01*
X32709800Y-46351466D01*
X32749390Y-46550498D01*
X32827048Y-46737983D01*
X32939791Y-46906714D01*
X33083286Y-47050209D01*
X33252017Y-47162952D01*
X33439502Y-47240610D01*
X33638534Y-47280200D01*
X33841466Y-47280200D01*
X34040498Y-47240610D01*
X34227983Y-47162952D01*
X34396714Y-47050209D01*
X34540209Y-46906714D01*
X34652952Y-46737983D01*
X34730610Y-46550498D01*
X34770200Y-46351466D01*
X34770200Y-46250000D01*
X37784816Y-46250000D01*
X37804707Y-46451954D01*
X37863615Y-46646148D01*
X37959276Y-46825117D01*
X38088014Y-46981986D01*
X38244883Y-47110724D01*
X38423852Y-47206385D01*
X38618046Y-47265293D01*
X38769397Y-47280200D01*
X38870603Y-47280200D01*
X38999299Y-47267524D01*
X38999300Y-64282476D01*
X38870603Y-64269800D01*
X38769397Y-64269800D01*
X38618046Y-64284707D01*
X38423852Y-64343615D01*
X38244883Y-64439276D01*
X38088014Y-64568014D01*
X37959276Y-64724883D01*
X37863615Y-64903852D01*
X37804707Y-65098046D01*
X37784816Y-65300000D01*
X37804707Y-65501954D01*
X37863615Y-65696148D01*
X37959276Y-65875117D01*
X38088014Y-66031986D01*
X38244883Y-66160724D01*
X38423852Y-66256385D01*
X38618046Y-66315293D01*
X38769397Y-66330200D01*
X38870603Y-66330200D01*
X39021954Y-66315293D01*
X39216148Y-66256385D01*
X39395117Y-66160724D01*
X39551986Y-66031986D01*
X39680724Y-65875117D01*
X39776385Y-65696148D01*
X39835293Y-65501954D01*
X39855184Y-65300000D01*
X39835293Y-65098046D01*
X39817381Y-65038999D01*
X39870102Y-64986279D01*
X39889971Y-64969973D01*
X39955040Y-64890686D01*
X40003390Y-64800228D01*
X40033164Y-64702076D01*
X40036595Y-64667248D01*
X40043218Y-64600002D01*
X40040699Y-64574427D01*
X40040699Y-60698534D01*
X41669800Y-60698534D01*
X41669800Y-60901466D01*
X41709390Y-61100498D01*
X41787048Y-61287983D01*
X41899791Y-61456714D01*
X42043286Y-61600209D01*
X42212017Y-61712952D01*
X42399502Y-61790610D01*
X42598534Y-61830200D01*
X42801466Y-61830200D01*
X43000498Y-61790610D01*
X43187983Y-61712952D01*
X43356714Y-61600209D01*
X43500209Y-61456714D01*
X43612952Y-61287983D01*
X43690610Y-61100498D01*
X43730200Y-60901466D01*
X43730200Y-60800000D01*
X46744816Y-60800000D01*
X46764707Y-61001954D01*
X46823615Y-61196148D01*
X46919276Y-61375117D01*
X47048014Y-61531986D01*
X47204883Y-61660724D01*
X47383852Y-61756385D01*
X47578046Y-61815293D01*
X47729397Y-61830200D01*
X47830603Y-61830200D01*
X47981954Y-61815293D01*
X48176148Y-61756385D01*
X48355117Y-61660724D01*
X48511986Y-61531986D01*
X48640724Y-61375117D01*
X48736385Y-61196148D01*
X48795293Y-61001954D01*
X48815184Y-60800000D01*
X48795293Y-60598046D01*
X48736385Y-60403852D01*
X48640724Y-60224883D01*
X48511986Y-60068014D01*
X48355117Y-59939276D01*
X48176148Y-59843615D01*
X47981954Y-59784707D01*
X47830603Y-59769800D01*
X47729397Y-59769800D01*
X47578046Y-59784707D01*
X47383852Y-59843615D01*
X47204883Y-59939276D01*
X47048014Y-60068014D01*
X46919276Y-60224883D01*
X46823615Y-60403852D01*
X46764707Y-60598046D01*
X46744816Y-60800000D01*
X43730200Y-60800000D01*
X43730200Y-60698534D01*
X43698286Y-60538094D01*
X44483703Y-59752678D01*
X44503572Y-59736372D01*
X44568641Y-59657085D01*
X44616991Y-59566627D01*
X44627951Y-59530498D01*
X44646766Y-59468475D01*
X44656819Y-59366400D01*
X44654300Y-59340823D01*
X44654300Y-58010226D01*
X44705092Y-57989187D01*
X44902699Y-57857150D01*
X45070750Y-57689099D01*
X45202787Y-57491492D01*
X45293735Y-57271923D01*
X45340100Y-57038830D01*
X45340100Y-56801170D01*
X45293735Y-56568077D01*
X45202787Y-56348508D01*
X45070750Y-56150901D01*
X44902699Y-55982850D01*
X44705092Y-55850813D01*
X44485523Y-55759865D01*
X44252430Y-55713500D01*
X44014770Y-55713500D01*
X43781677Y-55759865D01*
X43562108Y-55850813D01*
X43364501Y-55982850D01*
X43196450Y-56150901D01*
X43064413Y-56348508D01*
X42973465Y-56568077D01*
X42927100Y-56801170D01*
X42927100Y-57038830D01*
X42973465Y-57271923D01*
X43064413Y-57491492D01*
X43196450Y-57689099D01*
X43364501Y-57857150D01*
X43562108Y-57989187D01*
X43612901Y-58010226D01*
X43612900Y-59150719D01*
X42961906Y-59801714D01*
X42801466Y-59769800D01*
X42598534Y-59769800D01*
X42399502Y-59809390D01*
X42212017Y-59887048D01*
X42043286Y-59999791D01*
X41899791Y-60143286D01*
X41787048Y-60312017D01*
X41709390Y-60499502D01*
X41669800Y-60698534D01*
X40040699Y-60698534D01*
X40040699Y-55656298D01*
X45239800Y-55656298D01*
X45239800Y-55893702D01*
X45286116Y-56126544D01*
X45376966Y-56345876D01*
X45508860Y-56543270D01*
X45676730Y-56711140D01*
X45874124Y-56843034D01*
X46093456Y-56933884D01*
X46326298Y-56980200D01*
X46563702Y-56980200D01*
X46796544Y-56933884D01*
X47015876Y-56843034D01*
X47213270Y-56711140D01*
X47381140Y-56543270D01*
X47513034Y-56345876D01*
X47603884Y-56126544D01*
X47650200Y-55893702D01*
X47650200Y-55656298D01*
X47603884Y-55423456D01*
X47513034Y-55204124D01*
X47381140Y-55006730D01*
X47213270Y-54838860D01*
X47015876Y-54706966D01*
X46796544Y-54616116D01*
X46563702Y-54569800D01*
X46326298Y-54569800D01*
X46093456Y-54616116D01*
X45874124Y-54706966D01*
X45676730Y-54838860D01*
X45508860Y-55006730D01*
X45376966Y-55204124D01*
X45286116Y-55423456D01*
X45239800Y-55656298D01*
X40040699Y-55656298D01*
X40040699Y-54261170D01*
X42469900Y-54261170D01*
X42469900Y-54498830D01*
X42516265Y-54731923D01*
X42607213Y-54951492D01*
X42739250Y-55149099D01*
X42907301Y-55317150D01*
X43104908Y-55449187D01*
X43324477Y-55540135D01*
X43557570Y-55586500D01*
X43795230Y-55586500D01*
X44028323Y-55540135D01*
X44247892Y-55449187D01*
X44445499Y-55317150D01*
X44613550Y-55149099D01*
X44745587Y-54951492D01*
X44836535Y-54731923D01*
X44882900Y-54498830D01*
X44882900Y-54261170D01*
X44836535Y-54028077D01*
X44745587Y-53808508D01*
X44613550Y-53610901D01*
X44445499Y-53442850D01*
X44247892Y-53310813D01*
X44028323Y-53219865D01*
X43795230Y-53173500D01*
X43557570Y-53173500D01*
X43324477Y-53219865D01*
X43104908Y-53310813D01*
X42907301Y-53442850D01*
X42739250Y-53610901D01*
X42607213Y-53808508D01*
X42516265Y-54028077D01*
X42469900Y-54261170D01*
X40040699Y-54261170D01*
X40040699Y-49181170D01*
X42469900Y-49181170D01*
X42469900Y-49418830D01*
X42516265Y-49651923D01*
X42607213Y-49871492D01*
X42739250Y-50069099D01*
X42907301Y-50237150D01*
X43104908Y-50369187D01*
X43324477Y-50460135D01*
X43557570Y-50506500D01*
X43795230Y-50506500D01*
X44028323Y-50460135D01*
X44079116Y-50439096D01*
X44278756Y-50638737D01*
X44252430Y-50633500D01*
X44014770Y-50633500D01*
X43781677Y-50679865D01*
X43562108Y-50770813D01*
X43364501Y-50902850D01*
X43196450Y-51070901D01*
X43064413Y-51268508D01*
X42973465Y-51488077D01*
X42927100Y-51721170D01*
X42927100Y-51958830D01*
X42973465Y-52191923D01*
X43064413Y-52411492D01*
X43196450Y-52609099D01*
X43364501Y-52777150D01*
X43562108Y-52909187D01*
X43781677Y-53000135D01*
X44014770Y-53046500D01*
X44252430Y-53046500D01*
X44485523Y-53000135D01*
X44705092Y-52909187D01*
X44902699Y-52777150D01*
X45070750Y-52609099D01*
X45202787Y-52411492D01*
X45293735Y-52191923D01*
X45340100Y-51958830D01*
X45340100Y-51721170D01*
X45334863Y-51694844D01*
X46355214Y-52715195D01*
X46315723Y-52810534D01*
X46259800Y-53091675D01*
X46259800Y-53378325D01*
X46315723Y-53659466D01*
X46425419Y-53924296D01*
X46584672Y-54162636D01*
X46787364Y-54365328D01*
X47025704Y-54524581D01*
X47290534Y-54634277D01*
X47571675Y-54690200D01*
X47858325Y-54690200D01*
X48139466Y-54634277D01*
X48404296Y-54524581D01*
X48449490Y-54494383D01*
X48446609Y-54499774D01*
X48439131Y-54524426D01*
X48416835Y-54597925D01*
X48406781Y-54700000D01*
X48409300Y-54725575D01*
X48409301Y-56834415D01*
X48406781Y-56860000D01*
X48416835Y-56962075D01*
X48440119Y-57038830D01*
X48446610Y-57060227D01*
X48494960Y-57150685D01*
X48560029Y-57229972D01*
X48579898Y-57246278D01*
X49734300Y-58400681D01*
X49734301Y-59682297D01*
X49647414Y-59718286D01*
X49437327Y-59858662D01*
X49258662Y-60037327D01*
X49118286Y-60247414D01*
X49021594Y-60480850D01*
X48972300Y-60728665D01*
X48972300Y-60981335D01*
X49021594Y-61229150D01*
X49118286Y-61462586D01*
X49258662Y-61672673D01*
X49437327Y-61851338D01*
X49647414Y-61991714D01*
X49880850Y-62088406D01*
X50128665Y-62137700D01*
X50381335Y-62137700D01*
X50629150Y-62088406D01*
X50862586Y-61991714D01*
X51072673Y-61851338D01*
X51251338Y-61672673D01*
X51391714Y-61462586D01*
X51488406Y-61229150D01*
X51510703Y-61117057D01*
X51510703Y-61807500D01*
X51517078Y-61872230D01*
X51535960Y-61934473D01*
X51566621Y-61991837D01*
X51607884Y-62042116D01*
X51658163Y-62083379D01*
X51715527Y-62114040D01*
X51777770Y-62132922D01*
X51842500Y-62139297D01*
X52274300Y-62139297D01*
X52274301Y-64395567D01*
X52133286Y-64489791D01*
X51989791Y-64633286D01*
X51877048Y-64802017D01*
X51799390Y-64989502D01*
X51759800Y-65188534D01*
X51759800Y-65391466D01*
X51799390Y-65590498D01*
X51877048Y-65777983D01*
X51989791Y-65946714D01*
X52133286Y-66090209D01*
X52302017Y-66202952D01*
X52489502Y-66280610D01*
X52688534Y-66320200D01*
X52891466Y-66320200D01*
X53090498Y-66280610D01*
X53277983Y-66202952D01*
X53446714Y-66090209D01*
X53590209Y-65946714D01*
X53702952Y-65777983D01*
X53780610Y-65590498D01*
X53820200Y-65391466D01*
X53820200Y-65188534D01*
X53780610Y-64989502D01*
X53702952Y-64802017D01*
X53590209Y-64633286D01*
X53446714Y-64489791D01*
X53315700Y-64402250D01*
X53315700Y-62139297D01*
X53747500Y-62139297D01*
X53812230Y-62132922D01*
X53874473Y-62114040D01*
X53931837Y-62083379D01*
X53982116Y-62042116D01*
X54023379Y-61991837D01*
X54054040Y-61934473D01*
X54072922Y-61872230D01*
X54079297Y-61807500D01*
X54079297Y-59902500D01*
X54072922Y-59837770D01*
X54054040Y-59775527D01*
X54023379Y-59718163D01*
X53982116Y-59667884D01*
X53931837Y-59626621D01*
X53874473Y-59595960D01*
X53812230Y-59577078D01*
X53747500Y-59570703D01*
X51842500Y-59570703D01*
X51777770Y-59577078D01*
X51715527Y-59595960D01*
X51658163Y-59626621D01*
X51607884Y-59667884D01*
X51566621Y-59718163D01*
X51535960Y-59775527D01*
X51517078Y-59837770D01*
X51510703Y-59902500D01*
X51510703Y-60592943D01*
X51488406Y-60480850D01*
X51391714Y-60247414D01*
X51251338Y-60037327D01*
X51072673Y-59858662D01*
X50862586Y-59718286D01*
X50775700Y-59682297D01*
X50775700Y-58210575D01*
X50778219Y-58185000D01*
X50768165Y-58082924D01*
X50751245Y-58027147D01*
X50738391Y-57984773D01*
X50724655Y-57959073D01*
X50847085Y-58009786D01*
X51296096Y-58099100D01*
X51753904Y-58099100D01*
X52202915Y-58009786D01*
X52625874Y-57834590D01*
X53006527Y-57580246D01*
X53330246Y-57256527D01*
X53584590Y-56875874D01*
X53759786Y-56452915D01*
X53849100Y-56003904D01*
X53849100Y-55546096D01*
X53759786Y-55097085D01*
X53584590Y-54674126D01*
X53330246Y-54293473D01*
X53006527Y-53969754D01*
X52625874Y-53715410D01*
X52588672Y-53700000D01*
X54276781Y-53700000D01*
X54279300Y-53725575D01*
X54279301Y-57924415D01*
X54276781Y-57950000D01*
X54286835Y-58052075D01*
X54316610Y-58150227D01*
X54364960Y-58240685D01*
X54430029Y-58319972D01*
X54449898Y-58336278D01*
X57349300Y-61235681D01*
X57349301Y-64400189D01*
X57294883Y-64429276D01*
X57138014Y-64558014D01*
X57009276Y-64714883D01*
X56913615Y-64893852D01*
X56854707Y-65088046D01*
X56834816Y-65290000D01*
X56854707Y-65491954D01*
X56913615Y-65686148D01*
X57009276Y-65865117D01*
X57138014Y-66021986D01*
X57294883Y-66150724D01*
X57473852Y-66246385D01*
X57668046Y-66305293D01*
X57819397Y-66320200D01*
X57920603Y-66320200D01*
X58071954Y-66305293D01*
X58266148Y-66246385D01*
X58445117Y-66150724D01*
X58601986Y-66021986D01*
X58730724Y-65865117D01*
X58826385Y-65686148D01*
X58885293Y-65491954D01*
X58905184Y-65290000D01*
X58885293Y-65088046D01*
X58826385Y-64893852D01*
X58730724Y-64714883D01*
X58601986Y-64558014D01*
X58445117Y-64429276D01*
X58390700Y-64400189D01*
X58390700Y-61045577D01*
X58393219Y-61020000D01*
X58383166Y-60917925D01*
X58353391Y-60819773D01*
X58342822Y-60800000D01*
X58305041Y-60729315D01*
X58304508Y-60728665D01*
X74097300Y-60728665D01*
X74097300Y-60981335D01*
X74146594Y-61229150D01*
X74243286Y-61462586D01*
X74383662Y-61672673D01*
X74562327Y-61851338D01*
X74772414Y-61991714D01*
X75005850Y-62088406D01*
X75253665Y-62137700D01*
X75506335Y-62137700D01*
X75754150Y-62088406D01*
X75987586Y-61991714D01*
X76197673Y-61851338D01*
X76376338Y-61672673D01*
X76516714Y-61462586D01*
X76613406Y-61229150D01*
X76635703Y-61117057D01*
X76635703Y-61807500D01*
X76642078Y-61872230D01*
X76660960Y-61934473D01*
X76691621Y-61991837D01*
X76732884Y-62042116D01*
X76783163Y-62083379D01*
X76840527Y-62114040D01*
X76902770Y-62132922D01*
X76967500Y-62139297D01*
X77399301Y-62139297D01*
X77399301Y-62162916D01*
X77399300Y-62162926D01*
X77399301Y-64408908D01*
X77263286Y-64499791D01*
X77119791Y-64643286D01*
X77007048Y-64812017D01*
X76929390Y-64999502D01*
X76889800Y-65198534D01*
X76889800Y-65401466D01*
X76929390Y-65600498D01*
X77007048Y-65787983D01*
X77119791Y-65956714D01*
X77263286Y-66100209D01*
X77432017Y-66212952D01*
X77619502Y-66290610D01*
X77818534Y-66330200D01*
X78021466Y-66330200D01*
X78220498Y-66290610D01*
X78407983Y-66212952D01*
X78576714Y-66100209D01*
X78720209Y-65956714D01*
X78832952Y-65787983D01*
X78910610Y-65600498D01*
X78950200Y-65401466D01*
X78950200Y-65300000D01*
X81964816Y-65300000D01*
X81984707Y-65501954D01*
X82043615Y-65696148D01*
X82139276Y-65875117D01*
X82268014Y-66031986D01*
X82424883Y-66160724D01*
X82603852Y-66256385D01*
X82798046Y-66315293D01*
X82949397Y-66330200D01*
X83050603Y-66330200D01*
X83201954Y-66315293D01*
X83396148Y-66256385D01*
X83575117Y-66160724D01*
X83731986Y-66031986D01*
X83860724Y-65875117D01*
X83956385Y-65696148D01*
X84015293Y-65501954D01*
X84035184Y-65300000D01*
X84015293Y-65098046D01*
X83956385Y-64903852D01*
X83860724Y-64724883D01*
X83731986Y-64568014D01*
X83575117Y-64439276D01*
X83396148Y-64343615D01*
X83201954Y-64284707D01*
X83050603Y-64269800D01*
X82949397Y-64269800D01*
X82798046Y-64284707D01*
X82603852Y-64343615D01*
X82424883Y-64439276D01*
X82268014Y-64568014D01*
X82139276Y-64724883D01*
X82043615Y-64903852D01*
X81984707Y-65098046D01*
X81964816Y-65300000D01*
X78950200Y-65300000D01*
X78950200Y-65198534D01*
X78910610Y-64999502D01*
X78832952Y-64812017D01*
X78720209Y-64643286D01*
X78576714Y-64499791D01*
X78440700Y-64408909D01*
X78440700Y-62139297D01*
X78872500Y-62139297D01*
X78937230Y-62132922D01*
X78999473Y-62114040D01*
X79056837Y-62083379D01*
X79107116Y-62042116D01*
X79148379Y-61991837D01*
X79179040Y-61934473D01*
X79197922Y-61872230D01*
X79204297Y-61807500D01*
X79204297Y-59902500D01*
X79197922Y-59837770D01*
X79179040Y-59775527D01*
X79148379Y-59718163D01*
X79107116Y-59667884D01*
X79056837Y-59626621D01*
X78999473Y-59595960D01*
X78937230Y-59577078D01*
X78872500Y-59570703D01*
X76967500Y-59570703D01*
X76902770Y-59577078D01*
X76840527Y-59595960D01*
X76783163Y-59626621D01*
X76732884Y-59667884D01*
X76691621Y-59718163D01*
X76660960Y-59775527D01*
X76642078Y-59837770D01*
X76635703Y-59902500D01*
X76635703Y-60592943D01*
X76613406Y-60480850D01*
X76516714Y-60247414D01*
X76376338Y-60037327D01*
X76197673Y-59858662D01*
X75987586Y-59718286D01*
X75754150Y-59621594D01*
X75506335Y-59572300D01*
X75253665Y-59572300D01*
X75005850Y-59621594D01*
X74772414Y-59718286D01*
X74562327Y-59858662D01*
X74383662Y-60037327D01*
X74243286Y-60247414D01*
X74146594Y-60480850D01*
X74097300Y-60728665D01*
X58304508Y-60728665D01*
X58239972Y-60650028D01*
X58220103Y-60633722D01*
X56714915Y-59128534D01*
X60619800Y-59128534D01*
X60619800Y-59331466D01*
X60659390Y-59530498D01*
X60737048Y-59717983D01*
X60849791Y-59886714D01*
X60993286Y-60030209D01*
X61162017Y-60142952D01*
X61349502Y-60220610D01*
X61548534Y-60260200D01*
X61751466Y-60260200D01*
X61950498Y-60220610D01*
X62137983Y-60142952D01*
X62306714Y-60030209D01*
X62450209Y-59886714D01*
X62562952Y-59717983D01*
X62627011Y-59563329D01*
X65437284Y-59563329D01*
X65469953Y-59671044D01*
X65580208Y-59908392D01*
X65734649Y-60119670D01*
X65927340Y-60296759D01*
X66150877Y-60432853D01*
X66396670Y-60522722D01*
X66603000Y-60400201D01*
X66603000Y-59357000D01*
X66857000Y-59357000D01*
X66857000Y-60400201D01*
X67063330Y-60522722D01*
X67309123Y-60432853D01*
X67532660Y-60296759D01*
X67725351Y-60119670D01*
X67879792Y-59908392D01*
X67990047Y-59671044D01*
X68022716Y-59563329D01*
X67899374Y-59357000D01*
X66857000Y-59357000D01*
X66603000Y-59357000D01*
X65560626Y-59357000D01*
X65437284Y-59563329D01*
X62627011Y-59563329D01*
X62640610Y-59530498D01*
X62680200Y-59331466D01*
X62680200Y-59128534D01*
X62640610Y-58929502D01*
X62627012Y-58896671D01*
X65437284Y-58896671D01*
X65560626Y-59103000D01*
X66603000Y-59103000D01*
X66603000Y-58059799D01*
X66857000Y-58059799D01*
X66857000Y-59103000D01*
X67899374Y-59103000D01*
X68022716Y-58896671D01*
X67990047Y-58788956D01*
X67879792Y-58551608D01*
X67725351Y-58340330D01*
X67532660Y-58163241D01*
X67309123Y-58027147D01*
X67063330Y-57937278D01*
X66857000Y-58059799D01*
X66603000Y-58059799D01*
X66396670Y-57937278D01*
X66150877Y-58027147D01*
X65927340Y-58163241D01*
X65734649Y-58340330D01*
X65580208Y-58551608D01*
X65469953Y-58788956D01*
X65437284Y-58896671D01*
X62627012Y-58896671D01*
X62562952Y-58742017D01*
X62450209Y-58573286D01*
X62306714Y-58429791D01*
X62137983Y-58317048D01*
X61950498Y-58239390D01*
X61751466Y-58199800D01*
X61548534Y-58199800D01*
X61349502Y-58239390D01*
X61162017Y-58317048D01*
X60993286Y-58429791D01*
X60849791Y-58573286D01*
X60737048Y-58742017D01*
X60659390Y-58929502D01*
X60619800Y-59128534D01*
X56714915Y-59128534D01*
X55320700Y-57734320D01*
X55320700Y-55656298D01*
X55399800Y-55656298D01*
X55399800Y-55893702D01*
X55446116Y-56126544D01*
X55536966Y-56345876D01*
X55668860Y-56543270D01*
X55836730Y-56711140D01*
X56034124Y-56843034D01*
X56253456Y-56933884D01*
X56486298Y-56980200D01*
X56723702Y-56980200D01*
X56956544Y-56933884D01*
X57175876Y-56843034D01*
X57238530Y-56801170D01*
X57709900Y-56801170D01*
X57709900Y-57038830D01*
X57756265Y-57271923D01*
X57847213Y-57491492D01*
X57979250Y-57689099D01*
X58147301Y-57857150D01*
X58344908Y-57989187D01*
X58564477Y-58080135D01*
X58797570Y-58126500D01*
X59035230Y-58126500D01*
X59268323Y-58080135D01*
X59487892Y-57989187D01*
X59685499Y-57857150D01*
X59853550Y-57689099D01*
X59985587Y-57491492D01*
X60076535Y-57271923D01*
X60122900Y-57038830D01*
X60122900Y-56801170D01*
X60076535Y-56568077D01*
X59985587Y-56348508D01*
X59853550Y-56150901D01*
X59685499Y-55982850D01*
X59487892Y-55850813D01*
X59268323Y-55759865D01*
X59035230Y-55713500D01*
X58797570Y-55713500D01*
X58564477Y-55759865D01*
X58344908Y-55850813D01*
X58147301Y-55982850D01*
X57979250Y-56150901D01*
X57847213Y-56348508D01*
X57756265Y-56568077D01*
X57709900Y-56801170D01*
X57238530Y-56801170D01*
X57373270Y-56711140D01*
X57541140Y-56543270D01*
X57673034Y-56345876D01*
X57763884Y-56126544D01*
X57810200Y-55893702D01*
X57810200Y-55656298D01*
X70364800Y-55656298D01*
X70364800Y-55893702D01*
X70411116Y-56126544D01*
X70501966Y-56345876D01*
X70633860Y-56543270D01*
X70801730Y-56711140D01*
X70999124Y-56843034D01*
X71218456Y-56933884D01*
X71451298Y-56980200D01*
X71688702Y-56980200D01*
X71921544Y-56933884D01*
X72140876Y-56843034D01*
X72338270Y-56711140D01*
X72506140Y-56543270D01*
X72638034Y-56345876D01*
X72728884Y-56126544D01*
X72775200Y-55893702D01*
X72775200Y-55656298D01*
X72753280Y-55546096D01*
X74325900Y-55546096D01*
X74325900Y-56003904D01*
X74415214Y-56452915D01*
X74590410Y-56875874D01*
X74844754Y-57256527D01*
X75168473Y-57580246D01*
X75549126Y-57834590D01*
X75972085Y-58009786D01*
X76421096Y-58099100D01*
X76878904Y-58099100D01*
X77327915Y-58009786D01*
X77750874Y-57834590D01*
X78131527Y-57580246D01*
X78455246Y-57256527D01*
X78709590Y-56875874D01*
X78884786Y-56452915D01*
X78974100Y-56003904D01*
X78974100Y-55656298D01*
X80524800Y-55656298D01*
X80524800Y-55893702D01*
X80571116Y-56126544D01*
X80661966Y-56345876D01*
X80793860Y-56543270D01*
X80961730Y-56711140D01*
X81159124Y-56843034D01*
X81378456Y-56933884D01*
X81611298Y-56980200D01*
X81848702Y-56980200D01*
X82081544Y-56933884D01*
X82300876Y-56843034D01*
X82498270Y-56711140D01*
X82666140Y-56543270D01*
X82798034Y-56345876D01*
X82888884Y-56126544D01*
X82935200Y-55893702D01*
X82935200Y-55656298D01*
X82888884Y-55423456D01*
X82798034Y-55204124D01*
X82666140Y-55006730D01*
X82498270Y-54838860D01*
X82300876Y-54706966D01*
X82081544Y-54616116D01*
X81848702Y-54569800D01*
X81611298Y-54569800D01*
X81378456Y-54616116D01*
X81159124Y-54706966D01*
X80961730Y-54838860D01*
X80793860Y-55006730D01*
X80661966Y-55204124D01*
X80571116Y-55423456D01*
X80524800Y-55656298D01*
X78974100Y-55656298D01*
X78974100Y-55546096D01*
X78884786Y-55097085D01*
X78709590Y-54674126D01*
X78455246Y-54293473D01*
X78131527Y-53969754D01*
X77750874Y-53715410D01*
X77327915Y-53540214D01*
X76878904Y-53450900D01*
X76421096Y-53450900D01*
X75972085Y-53540214D01*
X75549126Y-53715410D01*
X75168473Y-53969754D01*
X74844754Y-54293473D01*
X74590410Y-54674126D01*
X74415214Y-55097085D01*
X74325900Y-55546096D01*
X72753280Y-55546096D01*
X72728884Y-55423456D01*
X72638034Y-55204124D01*
X72506140Y-55006730D01*
X72338270Y-54838860D01*
X72140876Y-54706966D01*
X71921544Y-54616116D01*
X71688702Y-54569800D01*
X71451298Y-54569800D01*
X71218456Y-54616116D01*
X70999124Y-54706966D01*
X70801730Y-54838860D01*
X70633860Y-55006730D01*
X70501966Y-55204124D01*
X70411116Y-55423456D01*
X70364800Y-55656298D01*
X57810200Y-55656298D01*
X57763884Y-55423456D01*
X57673034Y-55204124D01*
X57541140Y-55006730D01*
X57373270Y-54838860D01*
X57175876Y-54706966D01*
X56956544Y-54616116D01*
X56723702Y-54569800D01*
X56486298Y-54569800D01*
X56253456Y-54616116D01*
X56034124Y-54706966D01*
X55836730Y-54838860D01*
X55668860Y-55006730D01*
X55536966Y-55204124D01*
X55446116Y-55423456D01*
X55399800Y-55656298D01*
X55320700Y-55656298D01*
X55320700Y-54261170D01*
X58167100Y-54261170D01*
X58167100Y-54498830D01*
X58213465Y-54731923D01*
X58304413Y-54951492D01*
X58436450Y-55149099D01*
X58604501Y-55317150D01*
X58802108Y-55449187D01*
X59021677Y-55540135D01*
X59254770Y-55586500D01*
X59492430Y-55586500D01*
X59725523Y-55540135D01*
X59945092Y-55449187D01*
X60142699Y-55317150D01*
X60310750Y-55149099D01*
X60442787Y-54951492D01*
X60533735Y-54731923D01*
X60580100Y-54498830D01*
X60580100Y-54261170D01*
X60533735Y-54028077D01*
X60442787Y-53808508D01*
X60310750Y-53610901D01*
X60142699Y-53442850D01*
X59945092Y-53310813D01*
X59725523Y-53219865D01*
X59492430Y-53173500D01*
X59254770Y-53173500D01*
X59021677Y-53219865D01*
X58802108Y-53310813D01*
X58604501Y-53442850D01*
X58436450Y-53610901D01*
X58304413Y-53808508D01*
X58213465Y-54028077D01*
X58167100Y-54261170D01*
X55320700Y-54261170D01*
X55320700Y-53915680D01*
X56144705Y-53091675D01*
X71384800Y-53091675D01*
X71384800Y-53378325D01*
X71440723Y-53659466D01*
X71550419Y-53924296D01*
X71709672Y-54162636D01*
X71912364Y-54365328D01*
X72150704Y-54524581D01*
X72415534Y-54634277D01*
X72696675Y-54690200D01*
X72983325Y-54690200D01*
X73264466Y-54634277D01*
X73529296Y-54524581D01*
X73767636Y-54365328D01*
X73970328Y-54162636D01*
X74129581Y-53924296D01*
X74239277Y-53659466D01*
X74295200Y-53378325D01*
X74295200Y-53091675D01*
X74239277Y-52810534D01*
X74129581Y-52545704D01*
X73970328Y-52307364D01*
X73767636Y-52104672D01*
X73529296Y-51945419D01*
X73466797Y-51919531D01*
X78145074Y-51919531D01*
X78255921Y-52196714D01*
X78566840Y-52350089D01*
X78901705Y-52439860D01*
X79247650Y-52462576D01*
X79591380Y-52417366D01*
X79919685Y-52305966D01*
X80124079Y-52196714D01*
X80234926Y-51919531D01*
X79190000Y-50874605D01*
X78145074Y-51919531D01*
X73466797Y-51919531D01*
X73264466Y-51835723D01*
X72983325Y-51779800D01*
X72696675Y-51779800D01*
X72415534Y-51835723D01*
X72150704Y-51945419D01*
X71912364Y-52104672D01*
X71709672Y-52307364D01*
X71550419Y-52545704D01*
X71440723Y-52810534D01*
X71384800Y-53091675D01*
X56144705Y-53091675D01*
X56810103Y-52426278D01*
X56829972Y-52409972D01*
X56895041Y-52330685D01*
X56943391Y-52240227D01*
X56973166Y-52142075D01*
X56983219Y-52040000D01*
X56980700Y-52014423D01*
X56980700Y-51721170D01*
X57709900Y-51721170D01*
X57709900Y-51958830D01*
X57756265Y-52191923D01*
X57847213Y-52411492D01*
X57979250Y-52609099D01*
X58147301Y-52777150D01*
X58344908Y-52909187D01*
X58564477Y-53000135D01*
X58797570Y-53046500D01*
X59035230Y-53046500D01*
X59268323Y-53000135D01*
X59487892Y-52909187D01*
X59685499Y-52777150D01*
X59853550Y-52609099D01*
X59985587Y-52411492D01*
X60076535Y-52191923D01*
X60122900Y-51958830D01*
X60122900Y-51721170D01*
X60076535Y-51488077D01*
X59985587Y-51268508D01*
X59853550Y-51070901D01*
X59685499Y-50902850D01*
X59487892Y-50770813D01*
X59444043Y-50752650D01*
X77422424Y-50752650D01*
X77467634Y-51096380D01*
X77579034Y-51424685D01*
X77688286Y-51629079D01*
X77965469Y-51739926D01*
X79010395Y-50695000D01*
X79369605Y-50695000D01*
X80414531Y-51739926D01*
X80691714Y-51629079D01*
X80845089Y-51318160D01*
X80934860Y-50983295D01*
X80957576Y-50637350D01*
X80912366Y-50293620D01*
X80800966Y-49965315D01*
X80691714Y-49760921D01*
X80414531Y-49650074D01*
X79369605Y-50695000D01*
X79010395Y-50695000D01*
X77965469Y-49650074D01*
X77688286Y-49760921D01*
X77534911Y-50071840D01*
X77445140Y-50406705D01*
X77422424Y-50752650D01*
X59444043Y-50752650D01*
X59268323Y-50679865D01*
X59035230Y-50633500D01*
X58797570Y-50633500D01*
X58564477Y-50679865D01*
X58344908Y-50770813D01*
X58147301Y-50902850D01*
X57979250Y-51070901D01*
X57847213Y-51268508D01*
X57756265Y-51488077D01*
X57709900Y-51721170D01*
X56980700Y-51721170D01*
X56980700Y-49181170D01*
X58167100Y-49181170D01*
X58167100Y-49418830D01*
X58213465Y-49651923D01*
X58304413Y-49871492D01*
X58436450Y-50069099D01*
X58604501Y-50237150D01*
X58802108Y-50369187D01*
X59021677Y-50460135D01*
X59254770Y-50506500D01*
X59492430Y-50506500D01*
X59725523Y-50460135D01*
X59945092Y-50369187D01*
X60142699Y-50237150D01*
X60310750Y-50069099D01*
X60442787Y-49871492D01*
X60533735Y-49651923D01*
X60569828Y-49470469D01*
X78145074Y-49470469D01*
X79190000Y-50515395D01*
X80234926Y-49470469D01*
X80124079Y-49193286D01*
X79813160Y-49039911D01*
X79478295Y-48950140D01*
X79132350Y-48927424D01*
X78788620Y-48972634D01*
X78460315Y-49084034D01*
X78255921Y-49193286D01*
X78145074Y-49470469D01*
X60569828Y-49470469D01*
X60580100Y-49418830D01*
X60580100Y-49181170D01*
X60533735Y-48948077D01*
X60442787Y-48728508D01*
X60310750Y-48530901D01*
X60142699Y-48362850D01*
X59945092Y-48230813D01*
X59725523Y-48139865D01*
X59492430Y-48093500D01*
X59254770Y-48093500D01*
X59021677Y-48139865D01*
X58802108Y-48230813D01*
X58604501Y-48362850D01*
X58436450Y-48530901D01*
X58304413Y-48728508D01*
X58213465Y-48948077D01*
X58167100Y-49181170D01*
X56980700Y-49181170D01*
X56980700Y-47129811D01*
X57035117Y-47100724D01*
X57191986Y-46971986D01*
X57320724Y-46815117D01*
X57413700Y-46641170D01*
X57709900Y-46641170D01*
X57709900Y-46878830D01*
X57756265Y-47111923D01*
X57847213Y-47331492D01*
X57979250Y-47529099D01*
X58147301Y-47697150D01*
X58344908Y-47829187D01*
X58564477Y-47920135D01*
X58797570Y-47966500D01*
X59035230Y-47966500D01*
X59268323Y-47920135D01*
X59487892Y-47829187D01*
X59685499Y-47697150D01*
X59853550Y-47529099D01*
X59985587Y-47331492D01*
X60076535Y-47111923D01*
X60122900Y-46878830D01*
X60122900Y-46641170D01*
X60076535Y-46408077D01*
X59985587Y-46188508D01*
X59853550Y-45990901D01*
X59685499Y-45822850D01*
X59487892Y-45690813D01*
X59268323Y-45599865D01*
X59035230Y-45553500D01*
X58797570Y-45553500D01*
X58564477Y-45599865D01*
X58344908Y-45690813D01*
X58147301Y-45822850D01*
X57979250Y-45990901D01*
X57847213Y-46188508D01*
X57756265Y-46408077D01*
X57709900Y-46641170D01*
X57413700Y-46641170D01*
X57416385Y-46636148D01*
X57475293Y-46441954D01*
X57495184Y-46240000D01*
X57475293Y-46038046D01*
X57416385Y-45843852D01*
X57320724Y-45664883D01*
X57191986Y-45508014D01*
X57035117Y-45379276D01*
X56856148Y-45283615D01*
X56661954Y-45224707D01*
X56510603Y-45209800D01*
X56409397Y-45209800D01*
X56258046Y-45224707D01*
X56063852Y-45283615D01*
X55884883Y-45379276D01*
X55728014Y-45508014D01*
X55599276Y-45664883D01*
X55503615Y-45843852D01*
X55444707Y-46038046D01*
X55424816Y-46240000D01*
X55444707Y-46441954D01*
X55503615Y-46636148D01*
X55599276Y-46815117D01*
X55728014Y-46971986D01*
X55884883Y-47100724D01*
X55939300Y-47129811D01*
X55939301Y-51824318D01*
X54449903Y-53313717D01*
X54430028Y-53330028D01*
X54364959Y-53409315D01*
X54316609Y-53499774D01*
X54304342Y-53540214D01*
X54286835Y-53597925D01*
X54276781Y-53700000D01*
X52588672Y-53700000D01*
X52202915Y-53540214D01*
X51753904Y-53450900D01*
X51296096Y-53450900D01*
X50847085Y-53540214D01*
X50731519Y-53588083D01*
X50738391Y-53575227D01*
X50768165Y-53477075D01*
X50775700Y-53400575D01*
X50778219Y-53375000D01*
X50775700Y-53349425D01*
X50775700Y-51919531D01*
X53020074Y-51919531D01*
X53130921Y-52196714D01*
X53441840Y-52350089D01*
X53776705Y-52439860D01*
X54122650Y-52462576D01*
X54466380Y-52417366D01*
X54794685Y-52305966D01*
X54999079Y-52196714D01*
X55109926Y-51919531D01*
X54065000Y-50874605D01*
X53020074Y-51919531D01*
X50775700Y-51919531D01*
X50775700Y-50752650D01*
X52297424Y-50752650D01*
X52342634Y-51096380D01*
X52454034Y-51424685D01*
X52563286Y-51629079D01*
X52840469Y-51739926D01*
X53885395Y-50695000D01*
X54244605Y-50695000D01*
X55289531Y-51739926D01*
X55566714Y-51629079D01*
X55720089Y-51318160D01*
X55809860Y-50983295D01*
X55832576Y-50637350D01*
X55787366Y-50293620D01*
X55675966Y-49965315D01*
X55566714Y-49760921D01*
X55289531Y-49650074D01*
X54244605Y-50695000D01*
X53885395Y-50695000D01*
X52840469Y-49650074D01*
X52563286Y-49760921D01*
X52409911Y-50071840D01*
X52320140Y-50406705D01*
X52297424Y-50752650D01*
X50775700Y-50752650D01*
X50775700Y-49470469D01*
X53020074Y-49470469D01*
X54065000Y-50515395D01*
X55109926Y-49470469D01*
X54999079Y-49193286D01*
X54688160Y-49039911D01*
X54353295Y-48950140D01*
X54007350Y-48927424D01*
X53663620Y-48972634D01*
X53335315Y-49084034D01*
X53130921Y-49193286D01*
X53020074Y-49470469D01*
X50775700Y-49470469D01*
X50775700Y-47075231D01*
X50892017Y-47152952D01*
X51079502Y-47230610D01*
X51278534Y-47270200D01*
X51481466Y-47270200D01*
X51680498Y-47230610D01*
X51867983Y-47152952D01*
X52036714Y-47040209D01*
X52180209Y-46896714D01*
X52292952Y-46727983D01*
X52370610Y-46540498D01*
X52410200Y-46341466D01*
X52410200Y-46138534D01*
X52370610Y-45939502D01*
X52292952Y-45752017D01*
X52180209Y-45583286D01*
X52036714Y-45439791D01*
X51867983Y-45327048D01*
X51680498Y-45249390D01*
X51481466Y-45209800D01*
X51359910Y-45209800D01*
X51359910Y-44101170D01*
X58167100Y-44101170D01*
X58167100Y-44338830D01*
X58213465Y-44571923D01*
X58304413Y-44791492D01*
X58436450Y-44989099D01*
X58604501Y-45157150D01*
X58802108Y-45289187D01*
X59021677Y-45380135D01*
X59254770Y-45426500D01*
X59492430Y-45426500D01*
X59725523Y-45380135D01*
X59945092Y-45289187D01*
X60142699Y-45157150D01*
X60310750Y-44989099D01*
X60442787Y-44791492D01*
X60533735Y-44571923D01*
X60580100Y-44338830D01*
X60580100Y-44101170D01*
X60533735Y-43868077D01*
X60442787Y-43648508D01*
X60310750Y-43450901D01*
X60142699Y-43282850D01*
X59945092Y-43150813D01*
X59725523Y-43059865D01*
X59492430Y-43013500D01*
X59254770Y-43013500D01*
X59021677Y-43059865D01*
X58802108Y-43150813D01*
X58604501Y-43282850D01*
X58436450Y-43450901D01*
X58304413Y-43648508D01*
X58213465Y-43868077D01*
X58167100Y-44101170D01*
X51359910Y-44101170D01*
X51359910Y-43366881D01*
X51681134Y-43045657D01*
X51715527Y-43064040D01*
X51777770Y-43082922D01*
X51842500Y-43089297D01*
X53747500Y-43089297D01*
X53812230Y-43082922D01*
X53874473Y-43064040D01*
X53931837Y-43033379D01*
X53982116Y-42992116D01*
X54023379Y-42941837D01*
X54054040Y-42884473D01*
X54072922Y-42822230D01*
X54079297Y-42757500D01*
X54079297Y-41561170D01*
X57709900Y-41561170D01*
X57709900Y-41798830D01*
X57756265Y-42031923D01*
X57847213Y-42251492D01*
X57979250Y-42449099D01*
X58147301Y-42617150D01*
X58344908Y-42749187D01*
X58564477Y-42840135D01*
X58797570Y-42886500D01*
X59035230Y-42886500D01*
X59268323Y-42840135D01*
X59487892Y-42749187D01*
X59685499Y-42617150D01*
X59853550Y-42449099D01*
X59985587Y-42251492D01*
X60076535Y-42031923D01*
X60122900Y-41798830D01*
X60122900Y-41561170D01*
X60076535Y-41328077D01*
X59985587Y-41108508D01*
X59853550Y-40910901D01*
X59685499Y-40742850D01*
X59487892Y-40610813D01*
X59268323Y-40519865D01*
X59035230Y-40473500D01*
X58797570Y-40473500D01*
X58564477Y-40519865D01*
X58344908Y-40610813D01*
X58147301Y-40742850D01*
X57979250Y-40910901D01*
X57847213Y-41108508D01*
X57756265Y-41328077D01*
X57709900Y-41561170D01*
X54079297Y-41561170D01*
X54079297Y-40852500D01*
X54072922Y-40787770D01*
X54054040Y-40725527D01*
X54023379Y-40668163D01*
X53982116Y-40617884D01*
X53931837Y-40576621D01*
X53874473Y-40545960D01*
X53812230Y-40527078D01*
X53747500Y-40520703D01*
X51842500Y-40520703D01*
X51777770Y-40527078D01*
X51715527Y-40545960D01*
X51658163Y-40576621D01*
X51607884Y-40617884D01*
X51566621Y-40668163D01*
X51535960Y-40725527D01*
X51517078Y-40787770D01*
X51510703Y-40852500D01*
X51510703Y-41542943D01*
X51488406Y-41430850D01*
X51391714Y-41197414D01*
X51251338Y-40987327D01*
X51072673Y-40808662D01*
X50862586Y-40668286D01*
X50629150Y-40571594D01*
X50381335Y-40522300D01*
X50128665Y-40522300D01*
X49880850Y-40571594D01*
X49647414Y-40668286D01*
X49437327Y-40808662D01*
X49258662Y-40987327D01*
X49118286Y-41197414D01*
X49021594Y-41430850D01*
X48972300Y-41678665D01*
X48972300Y-41931335D01*
X49021594Y-42179150D01*
X49118286Y-42412586D01*
X49258662Y-42622673D01*
X49437327Y-42801338D01*
X49647414Y-42941714D01*
X49734300Y-42977703D01*
X49734301Y-53159318D01*
X49029512Y-53864108D01*
X49114277Y-53659466D01*
X49170200Y-53378325D01*
X49170200Y-53091675D01*
X49114277Y-52810534D01*
X49004581Y-52545704D01*
X48845328Y-52307364D01*
X48642636Y-52104672D01*
X48404296Y-51945419D01*
X48139466Y-51835723D01*
X47858325Y-51779800D01*
X47571675Y-51779800D01*
X47290534Y-51835723D01*
X47048682Y-51935901D01*
X44815496Y-49702716D01*
X44836535Y-49651923D01*
X44882900Y-49418830D01*
X44882900Y-49181170D01*
X44836535Y-48948077D01*
X44745587Y-48728508D01*
X44613550Y-48530901D01*
X44445499Y-48362850D01*
X44247892Y-48230813D01*
X44028323Y-48139865D01*
X43795230Y-48093500D01*
X43557570Y-48093500D01*
X43324477Y-48139865D01*
X43104908Y-48230813D01*
X42907301Y-48362850D01*
X42739250Y-48530901D01*
X42607213Y-48728508D01*
X42516265Y-48948077D01*
X42469900Y-49181170D01*
X40040699Y-49181170D01*
X40040699Y-46975573D01*
X40043218Y-46949998D01*
X40033164Y-46847923D01*
X40023212Y-46815117D01*
X40003390Y-46749772D01*
X39955040Y-46659314D01*
X39940150Y-46641170D01*
X42927100Y-46641170D01*
X42927100Y-46878830D01*
X42973465Y-47111923D01*
X43064413Y-47331492D01*
X43196450Y-47529099D01*
X43364501Y-47697150D01*
X43562108Y-47829187D01*
X43781677Y-47920135D01*
X44014770Y-47966500D01*
X44252430Y-47966500D01*
X44485523Y-47920135D01*
X44705092Y-47829187D01*
X44902699Y-47697150D01*
X45070750Y-47529099D01*
X45202787Y-47331492D01*
X45293735Y-47111923D01*
X45340100Y-46878830D01*
X45340100Y-46641170D01*
X45293735Y-46408077D01*
X45202787Y-46188508D01*
X45070750Y-45990901D01*
X44902699Y-45822850D01*
X44705092Y-45690813D01*
X44485523Y-45599865D01*
X44252430Y-45553500D01*
X44014770Y-45553500D01*
X43781677Y-45599865D01*
X43562108Y-45690813D01*
X43364501Y-45822850D01*
X43196450Y-45990901D01*
X43064413Y-46188508D01*
X42973465Y-46408077D01*
X42927100Y-46641170D01*
X39940150Y-46641170D01*
X39889971Y-46580027D01*
X39870102Y-46563721D01*
X39817381Y-46511001D01*
X39835293Y-46451954D01*
X39855184Y-46250000D01*
X39835293Y-46048046D01*
X39776385Y-45853852D01*
X39680724Y-45674883D01*
X39551986Y-45518014D01*
X39395117Y-45389276D01*
X39216148Y-45293615D01*
X39021954Y-45234707D01*
X38870603Y-45219800D01*
X38769397Y-45219800D01*
X38618046Y-45234707D01*
X38423852Y-45293615D01*
X38244883Y-45389276D01*
X38088014Y-45518014D01*
X37959276Y-45674883D01*
X37863615Y-45853852D01*
X37804707Y-46048046D01*
X37784816Y-46250000D01*
X34770200Y-46250000D01*
X34770200Y-46148534D01*
X34730610Y-45949502D01*
X34652952Y-45762017D01*
X34540209Y-45593286D01*
X34396714Y-45449791D01*
X34265700Y-45362250D01*
X34265700Y-44101170D01*
X42469900Y-44101170D01*
X42469900Y-44338830D01*
X42516265Y-44571923D01*
X42607213Y-44791492D01*
X42739250Y-44989099D01*
X42907301Y-45157150D01*
X43104908Y-45289187D01*
X43324477Y-45380135D01*
X43557570Y-45426500D01*
X43795230Y-45426500D01*
X44028323Y-45380135D01*
X44247892Y-45289187D01*
X44445499Y-45157150D01*
X44613550Y-44989099D01*
X44745587Y-44791492D01*
X44836535Y-44571923D01*
X44882900Y-44338830D01*
X44882900Y-44101170D01*
X44836535Y-43868077D01*
X44745587Y-43648508D01*
X44613550Y-43450901D01*
X44445499Y-43282850D01*
X44247892Y-43150813D01*
X44028323Y-43059865D01*
X43795230Y-43013500D01*
X43557570Y-43013500D01*
X43324477Y-43059865D01*
X43104908Y-43150813D01*
X42907301Y-43282850D01*
X42739250Y-43450901D01*
X42607213Y-43648508D01*
X42516265Y-43868077D01*
X42469900Y-44101170D01*
X34265700Y-44101170D01*
X34265700Y-43089297D01*
X34697500Y-43089297D01*
X34762230Y-43082922D01*
X34824473Y-43064040D01*
X34881837Y-43033379D01*
X34932116Y-42992116D01*
X34973379Y-42941837D01*
X35004040Y-42884473D01*
X35022922Y-42822230D01*
X35029297Y-42757500D01*
X35029297Y-40852500D01*
X35022922Y-40787770D01*
X35004040Y-40725527D01*
X34973379Y-40668163D01*
X34932116Y-40617884D01*
X34881837Y-40576621D01*
X34824473Y-40545960D01*
X34762230Y-40527078D01*
X34697500Y-40520703D01*
X32792500Y-40520703D01*
X32727770Y-40527078D01*
X32665527Y-40545960D01*
X32608163Y-40576621D01*
X32557884Y-40617884D01*
X32516621Y-40668163D01*
X32485960Y-40725527D01*
X32467078Y-40787770D01*
X32460703Y-40852500D01*
X32460703Y-41542943D01*
X32438406Y-41430850D01*
X32341714Y-41197414D01*
X32201338Y-40987327D01*
X32022673Y-40808662D01*
X31812586Y-40668286D01*
X31579150Y-40571594D01*
X31331335Y-40522300D01*
X31078665Y-40522300D01*
X30830850Y-40571594D01*
X30597414Y-40668286D01*
X30387327Y-40808662D01*
X30208662Y-40987327D01*
X30068286Y-41197414D01*
X29971594Y-41430850D01*
X29922300Y-41678665D01*
X29922300Y-41931335D01*
X29971594Y-42179150D01*
X30068286Y-42412586D01*
X30208662Y-42622673D01*
X30387327Y-42801338D01*
X30597414Y-42941714D01*
X30684300Y-42977703D01*
X30684301Y-52969318D01*
X30081689Y-53571930D01*
X30120200Y-53378325D01*
X30120200Y-53091675D01*
X30064277Y-52810534D01*
X29954581Y-52545704D01*
X29795328Y-52307364D01*
X29592636Y-52104672D01*
X29354296Y-51945419D01*
X29089466Y-51835723D01*
X28808325Y-51779800D01*
X28521675Y-51779800D01*
X28240534Y-51835723D01*
X27975704Y-51945419D01*
X27737364Y-52104672D01*
X27534672Y-52307364D01*
X27375419Y-52545704D01*
X27265723Y-52810534D01*
X27209800Y-53091675D01*
X20387000Y-53091675D01*
X20387000Y-36606298D01*
X26189800Y-36606298D01*
X26189800Y-36843702D01*
X26236116Y-37076544D01*
X26326966Y-37295876D01*
X26458860Y-37493270D01*
X26626730Y-37661140D01*
X26824124Y-37793034D01*
X27043456Y-37883884D01*
X27276298Y-37930200D01*
X27513702Y-37930200D01*
X27746544Y-37883884D01*
X27965876Y-37793034D01*
X28163270Y-37661140D01*
X28331140Y-37493270D01*
X28463034Y-37295876D01*
X28553884Y-37076544D01*
X28600200Y-36843702D01*
X28600200Y-36606298D01*
X28578280Y-36496096D01*
X30150900Y-36496096D01*
X30150900Y-36953904D01*
X30240214Y-37402915D01*
X30415410Y-37825874D01*
X30669754Y-38206527D01*
X30993473Y-38530246D01*
X31374126Y-38784590D01*
X31797085Y-38959786D01*
X32246096Y-39049100D01*
X32703904Y-39049100D01*
X32844317Y-39021170D01*
X42469900Y-39021170D01*
X42469900Y-39258830D01*
X42516265Y-39491923D01*
X42607213Y-39711492D01*
X42739250Y-39909099D01*
X42907301Y-40077150D01*
X43104908Y-40209187D01*
X43324477Y-40300135D01*
X43557570Y-40346500D01*
X43795230Y-40346500D01*
X44028323Y-40300135D01*
X44079116Y-40279096D01*
X44278756Y-40478737D01*
X44252430Y-40473500D01*
X44014770Y-40473500D01*
X43781677Y-40519865D01*
X43562108Y-40610813D01*
X43364501Y-40742850D01*
X43196450Y-40910901D01*
X43064413Y-41108508D01*
X42973465Y-41328077D01*
X42927100Y-41561170D01*
X42927100Y-41798830D01*
X42973465Y-42031923D01*
X43064413Y-42251492D01*
X43196450Y-42449099D01*
X43364501Y-42617150D01*
X43562108Y-42749187D01*
X43781677Y-42840135D01*
X44014770Y-42886500D01*
X44252430Y-42886500D01*
X44485523Y-42840135D01*
X44705092Y-42749187D01*
X44902699Y-42617150D01*
X44979800Y-42540049D01*
X44979800Y-42551918D01*
X45007861Y-42692991D01*
X45062905Y-42825879D01*
X45142817Y-42945475D01*
X45244525Y-43047183D01*
X45364121Y-43127095D01*
X45497009Y-43182139D01*
X45638082Y-43210200D01*
X45781918Y-43210200D01*
X45814098Y-43203799D01*
X45827861Y-43272991D01*
X45882905Y-43405879D01*
X45962817Y-43525475D01*
X46064525Y-43627183D01*
X46184121Y-43707095D01*
X46317009Y-43762139D01*
X46458082Y-43790200D01*
X46601918Y-43790200D01*
X46742991Y-43762139D01*
X46875879Y-43707095D01*
X46995475Y-43627183D01*
X47097183Y-43525475D01*
X47177095Y-43405879D01*
X47232139Y-43272991D01*
X47260200Y-43131918D01*
X47260200Y-42988082D01*
X47232139Y-42847009D01*
X47177095Y-42714121D01*
X47097183Y-42594525D01*
X47050700Y-42548042D01*
X47050700Y-41385680D01*
X47986380Y-40450000D01*
X74718203Y-40450000D01*
X74718203Y-42450000D01*
X74724578Y-42514730D01*
X74743460Y-42576973D01*
X74774121Y-42634337D01*
X74815384Y-42684616D01*
X74865663Y-42725879D01*
X74923027Y-42756540D01*
X74985270Y-42775422D01*
X75050000Y-42781797D01*
X78250000Y-42781797D01*
X78314730Y-42775422D01*
X78376973Y-42756540D01*
X78434337Y-42725879D01*
X78484616Y-42684616D01*
X78525879Y-42634337D01*
X78556540Y-42576973D01*
X78575422Y-42514730D01*
X78581797Y-42450000D01*
X78581797Y-40450000D01*
X78575422Y-40385270D01*
X78556540Y-40323027D01*
X78525879Y-40265663D01*
X78484616Y-40215384D01*
X78434337Y-40174121D01*
X78376973Y-40143460D01*
X78314730Y-40124578D01*
X78250000Y-40118203D01*
X75050000Y-40118203D01*
X74985270Y-40124578D01*
X74923027Y-40143460D01*
X74865663Y-40174121D01*
X74815384Y-40215384D01*
X74774121Y-40265663D01*
X74743460Y-40323027D01*
X74724578Y-40385270D01*
X74718203Y-40450000D01*
X47986380Y-40450000D01*
X48065103Y-40371278D01*
X48084972Y-40354972D01*
X48150041Y-40275685D01*
X48198391Y-40185227D01*
X48228165Y-40087075D01*
X48235700Y-40010575D01*
X48238219Y-39985001D01*
X48235700Y-39959426D01*
X48235700Y-36496096D01*
X49200900Y-36496096D01*
X49200900Y-36953904D01*
X49290214Y-37402915D01*
X49465410Y-37825874D01*
X49719754Y-38206527D01*
X50043473Y-38530246D01*
X50424126Y-38784590D01*
X50847085Y-38959786D01*
X51296096Y-39049100D01*
X51753904Y-39049100D01*
X52202915Y-38959786D01*
X52625874Y-38784590D01*
X53006527Y-38530246D01*
X53330246Y-38206527D01*
X53584590Y-37825874D01*
X53759786Y-37402915D01*
X53849100Y-36953904D01*
X53849100Y-36606298D01*
X55399800Y-36606298D01*
X55399800Y-36843702D01*
X55446116Y-37076544D01*
X55536966Y-37295876D01*
X55668860Y-37493270D01*
X55836730Y-37661140D01*
X56034124Y-37793034D01*
X56253456Y-37883884D01*
X56486298Y-37930200D01*
X56723702Y-37930200D01*
X56956544Y-37883884D01*
X57175876Y-37793034D01*
X57373270Y-37661140D01*
X57387241Y-37647169D01*
X58048837Y-37647169D01*
X58129654Y-37898929D01*
X58398179Y-38027457D01*
X58686619Y-38101129D01*
X58751515Y-38104618D01*
X58604501Y-38202850D01*
X58436450Y-38370901D01*
X58304413Y-38568508D01*
X58213465Y-38788077D01*
X58167100Y-39021170D01*
X58167100Y-39258830D01*
X58213465Y-39491923D01*
X58304413Y-39711492D01*
X58436450Y-39909099D01*
X58604501Y-40077150D01*
X58802108Y-40209187D01*
X59021677Y-40300135D01*
X59254770Y-40346500D01*
X59492430Y-40346500D01*
X59725523Y-40300135D01*
X59945092Y-40209187D01*
X60142699Y-40077150D01*
X60310750Y-39909099D01*
X60442787Y-39711492D01*
X60533735Y-39491923D01*
X60580100Y-39258830D01*
X60580100Y-39021170D01*
X60533735Y-38788077D01*
X60442787Y-38568508D01*
X60310750Y-38370901D01*
X60158836Y-38218987D01*
X67819800Y-38218987D01*
X67819800Y-38481013D01*
X67870919Y-38738005D01*
X67971192Y-38980086D01*
X68116766Y-39197953D01*
X68302047Y-39383234D01*
X68519914Y-39528808D01*
X68761995Y-39629081D01*
X69018987Y-39680200D01*
X69281013Y-39680200D01*
X69538005Y-39629081D01*
X69780086Y-39528808D01*
X69997953Y-39383234D01*
X70183234Y-39197953D01*
X70328808Y-38980086D01*
X70429081Y-38738005D01*
X70480200Y-38481013D01*
X70480200Y-38218987D01*
X82319800Y-38218987D01*
X82319800Y-38481013D01*
X82370919Y-38738005D01*
X82471192Y-38980086D01*
X82616766Y-39197953D01*
X82802047Y-39383234D01*
X83019914Y-39528808D01*
X83261995Y-39629081D01*
X83518987Y-39680200D01*
X83781013Y-39680200D01*
X84038005Y-39629081D01*
X84280086Y-39528808D01*
X84497953Y-39383234D01*
X84683234Y-39197953D01*
X84828808Y-38980086D01*
X84929081Y-38738005D01*
X84980200Y-38481013D01*
X84980200Y-38218987D01*
X84929081Y-37961995D01*
X84828808Y-37719914D01*
X84683234Y-37502047D01*
X84497953Y-37316766D01*
X84280086Y-37171192D01*
X84038005Y-37070919D01*
X83781013Y-37019800D01*
X83518987Y-37019800D01*
X83261995Y-37070919D01*
X83019914Y-37171192D01*
X82802047Y-37316766D01*
X82616766Y-37502047D01*
X82471192Y-37719914D01*
X82370919Y-37961995D01*
X82319800Y-38218987D01*
X70480200Y-38218987D01*
X70429081Y-37961995D01*
X70328808Y-37719914D01*
X70183234Y-37502047D01*
X69997953Y-37316766D01*
X69947658Y-37283160D01*
X70010044Y-37249814D01*
X70105808Y-36985413D01*
X69150000Y-36029605D01*
X68194192Y-36985413D01*
X68289956Y-37249814D01*
X68354937Y-37281426D01*
X68302047Y-37316766D01*
X68116766Y-37502047D01*
X67971192Y-37719914D01*
X67870919Y-37961995D01*
X67819800Y-38218987D01*
X60158836Y-38218987D01*
X60142699Y-38202850D01*
X59945092Y-38070813D01*
X59725523Y-37979865D01*
X59598861Y-37954670D01*
X59703146Y-37898929D01*
X59783963Y-37647169D01*
X58916400Y-36779605D01*
X58048837Y-37647169D01*
X57387241Y-37647169D01*
X57541140Y-37493270D01*
X57615180Y-37382460D01*
X57617471Y-37386746D01*
X57869231Y-37467563D01*
X58736795Y-36600000D01*
X59096005Y-36600000D01*
X59963569Y-37467563D01*
X60215329Y-37386746D01*
X60343857Y-37118221D01*
X60417529Y-36829781D01*
X60433513Y-36532509D01*
X60391196Y-36237833D01*
X60292202Y-35957073D01*
X60268428Y-35912595D01*
X67508282Y-35912595D01*
X67552039Y-36231675D01*
X67657205Y-36536088D01*
X67750186Y-36710044D01*
X68014587Y-36805808D01*
X68970395Y-35850000D01*
X69329605Y-35850000D01*
X70285413Y-36805808D01*
X70549814Y-36710044D01*
X70690704Y-36420429D01*
X70772384Y-36108892D01*
X70791718Y-35787405D01*
X70747961Y-35468325D01*
X70642795Y-35163912D01*
X70549814Y-34989956D01*
X70285413Y-34894192D01*
X69329605Y-35850000D01*
X68970395Y-35850000D01*
X68014587Y-34894192D01*
X67750186Y-34989956D01*
X67609296Y-35279571D01*
X67527616Y-35591108D01*
X67508282Y-35912595D01*
X60268428Y-35912595D01*
X60215329Y-35813254D01*
X59963569Y-35732437D01*
X59096005Y-36600000D01*
X58736795Y-36600000D01*
X57869231Y-35732437D01*
X57617471Y-35813254D01*
X57545601Y-35963407D01*
X57541140Y-35956730D01*
X57373270Y-35788860D01*
X57175876Y-35656966D01*
X56956544Y-35566116D01*
X56889758Y-35552831D01*
X58048837Y-35552831D01*
X58916400Y-36420395D01*
X59783963Y-35552831D01*
X59773862Y-35521364D01*
X60016527Y-35435802D01*
X60160346Y-35358929D01*
X60241163Y-35107169D01*
X59373600Y-34239605D01*
X58506037Y-35107169D01*
X58516138Y-35138636D01*
X58273473Y-35224198D01*
X58129654Y-35301071D01*
X58048837Y-35552831D01*
X56889758Y-35552831D01*
X56723702Y-35519800D01*
X56486298Y-35519800D01*
X56253456Y-35566116D01*
X56034124Y-35656966D01*
X55836730Y-35788860D01*
X55668860Y-35956730D01*
X55536966Y-36154124D01*
X55446116Y-36373456D01*
X55399800Y-36606298D01*
X53849100Y-36606298D01*
X53849100Y-36496096D01*
X53759786Y-36047085D01*
X53584590Y-35624126D01*
X53330246Y-35243473D01*
X53006527Y-34919754D01*
X52625874Y-34665410D01*
X52202915Y-34490214D01*
X51753904Y-34400900D01*
X51296096Y-34400900D01*
X50847085Y-34490214D01*
X50424126Y-34665410D01*
X50043473Y-34919754D01*
X49719754Y-35243473D01*
X49465410Y-35624126D01*
X49290214Y-36047085D01*
X49200900Y-36496096D01*
X48235700Y-36496096D01*
X48235700Y-35544416D01*
X48404296Y-35474581D01*
X48642636Y-35315328D01*
X48845328Y-35112636D01*
X49004581Y-34874296D01*
X49114277Y-34609466D01*
X49170200Y-34328325D01*
X49170200Y-34127491D01*
X57856487Y-34127491D01*
X57898804Y-34422167D01*
X57997798Y-34702927D01*
X58074671Y-34846746D01*
X58326431Y-34927563D01*
X59193995Y-34060000D01*
X59553205Y-34060000D01*
X60420769Y-34927563D01*
X60672529Y-34846746D01*
X60801057Y-34578221D01*
X60874729Y-34289781D01*
X60890713Y-33992509D01*
X60848396Y-33697833D01*
X60749402Y-33417073D01*
X60672529Y-33273254D01*
X60420769Y-33192437D01*
X59553205Y-34060000D01*
X59193995Y-34060000D01*
X58326431Y-33192437D01*
X58074671Y-33273254D01*
X57946143Y-33541779D01*
X57872471Y-33830219D01*
X57856487Y-34127491D01*
X49170200Y-34127491D01*
X49170200Y-34041675D01*
X49114277Y-33760534D01*
X49004581Y-33495704D01*
X48845328Y-33257364D01*
X48642636Y-33054672D01*
X48404296Y-32895419D01*
X48341797Y-32869531D01*
X53020074Y-32869531D01*
X53130921Y-33146714D01*
X53441840Y-33300089D01*
X53776705Y-33389860D01*
X54122650Y-33412576D01*
X54466380Y-33367366D01*
X54794685Y-33255966D01*
X54999079Y-33146714D01*
X55109926Y-32869531D01*
X54065000Y-31824605D01*
X53020074Y-32869531D01*
X48341797Y-32869531D01*
X48139466Y-32785723D01*
X47858325Y-32729800D01*
X47571675Y-32729800D01*
X47290534Y-32785723D01*
X47025704Y-32895419D01*
X46787364Y-33054672D01*
X46584672Y-33257364D01*
X46425419Y-33495704D01*
X46315723Y-33760534D01*
X46259800Y-34041675D01*
X46259800Y-34328325D01*
X46315723Y-34609466D01*
X46425419Y-34874296D01*
X46584672Y-35112636D01*
X46787364Y-35315328D01*
X47025704Y-35474581D01*
X47194300Y-35544416D01*
X47194300Y-35776185D01*
X47015876Y-35656966D01*
X46796544Y-35566116D01*
X46563702Y-35519800D01*
X46326298Y-35519800D01*
X46093456Y-35566116D01*
X45874124Y-35656966D01*
X45676730Y-35788860D01*
X45508860Y-35956730D01*
X45376966Y-36154124D01*
X45308112Y-36320354D01*
X45293735Y-36248077D01*
X45202787Y-36028508D01*
X45070750Y-35830901D01*
X44902699Y-35662850D01*
X44705092Y-35530813D01*
X44485523Y-35439865D01*
X44252430Y-35393500D01*
X44014770Y-35393500D01*
X43781677Y-35439865D01*
X43562108Y-35530813D01*
X43364501Y-35662850D01*
X43196450Y-35830901D01*
X43064413Y-36028508D01*
X42973465Y-36248077D01*
X42927100Y-36481170D01*
X42927100Y-36718830D01*
X42973465Y-36951923D01*
X43064413Y-37171492D01*
X43196450Y-37369099D01*
X43364501Y-37537150D01*
X43562108Y-37669187D01*
X43781677Y-37760135D01*
X44014770Y-37806500D01*
X44252430Y-37806500D01*
X44485523Y-37760135D01*
X44705092Y-37669187D01*
X44902699Y-37537150D01*
X45070750Y-37369099D01*
X45202787Y-37171492D01*
X45271841Y-37004780D01*
X45286116Y-37076544D01*
X45376966Y-37295876D01*
X45508860Y-37493270D01*
X45676730Y-37661140D01*
X45874124Y-37793034D01*
X46093456Y-37883884D01*
X46326298Y-37930200D01*
X46563702Y-37930200D01*
X46796544Y-37883884D01*
X47015876Y-37793034D01*
X47194301Y-37673815D01*
X47194301Y-39769318D01*
X46179898Y-40783722D01*
X46160029Y-40800028D01*
X46118523Y-40850603D01*
X46079972Y-40803628D01*
X46060103Y-40787322D01*
X44815496Y-39542716D01*
X44836535Y-39491923D01*
X44882900Y-39258830D01*
X44882900Y-39021170D01*
X44836535Y-38788077D01*
X44745587Y-38568508D01*
X44613550Y-38370901D01*
X44445499Y-38202850D01*
X44247892Y-38070813D01*
X44028323Y-37979865D01*
X43795230Y-37933500D01*
X43557570Y-37933500D01*
X43324477Y-37979865D01*
X43104908Y-38070813D01*
X42907301Y-38202850D01*
X42739250Y-38370901D01*
X42607213Y-38568508D01*
X42516265Y-38788077D01*
X42469900Y-39021170D01*
X32844317Y-39021170D01*
X33152915Y-38959786D01*
X33575874Y-38784590D01*
X33956527Y-38530246D01*
X34280246Y-38206527D01*
X34534590Y-37825874D01*
X34709786Y-37402915D01*
X34799100Y-36953904D01*
X34799100Y-36606298D01*
X36349800Y-36606298D01*
X36349800Y-36843702D01*
X36396116Y-37076544D01*
X36486966Y-37295876D01*
X36618860Y-37493270D01*
X36786730Y-37661140D01*
X36984124Y-37793034D01*
X37203456Y-37883884D01*
X37436298Y-37930200D01*
X37673702Y-37930200D01*
X37906544Y-37883884D01*
X38125876Y-37793034D01*
X38323270Y-37661140D01*
X38491140Y-37493270D01*
X38623034Y-37295876D01*
X38713884Y-37076544D01*
X38760200Y-36843702D01*
X38760200Y-36606298D01*
X38713884Y-36373456D01*
X38623034Y-36154124D01*
X38491140Y-35956730D01*
X38323270Y-35788860D01*
X38125876Y-35656966D01*
X37906544Y-35566116D01*
X37673702Y-35519800D01*
X37436298Y-35519800D01*
X37203456Y-35566116D01*
X36984124Y-35656966D01*
X36786730Y-35788860D01*
X36618860Y-35956730D01*
X36486966Y-36154124D01*
X36396116Y-36373456D01*
X36349800Y-36606298D01*
X34799100Y-36606298D01*
X34799100Y-36496096D01*
X34709786Y-36047085D01*
X34534590Y-35624126D01*
X34280246Y-35243473D01*
X33956527Y-34919754D01*
X33575874Y-34665410D01*
X33152915Y-34490214D01*
X32703904Y-34400900D01*
X32246096Y-34400900D01*
X31797085Y-34490214D01*
X31374126Y-34665410D01*
X30993473Y-34919754D01*
X30669754Y-35243473D01*
X30415410Y-35624126D01*
X30240214Y-36047085D01*
X30150900Y-36496096D01*
X28578280Y-36496096D01*
X28553884Y-36373456D01*
X28463034Y-36154124D01*
X28331140Y-35956730D01*
X28163270Y-35788860D01*
X27965876Y-35656966D01*
X27746544Y-35566116D01*
X27513702Y-35519800D01*
X27276298Y-35519800D01*
X27043456Y-35566116D01*
X26824124Y-35656966D01*
X26626730Y-35788860D01*
X26458860Y-35956730D01*
X26326966Y-36154124D01*
X26236116Y-36373456D01*
X26189800Y-36606298D01*
X20387000Y-36606298D01*
X20387000Y-34041675D01*
X27209800Y-34041675D01*
X27209800Y-34328325D01*
X27265723Y-34609466D01*
X27375419Y-34874296D01*
X27534672Y-35112636D01*
X27737364Y-35315328D01*
X27975704Y-35474581D01*
X28240534Y-35584277D01*
X28521675Y-35640200D01*
X28808325Y-35640200D01*
X29089466Y-35584277D01*
X29354296Y-35474581D01*
X29592636Y-35315328D01*
X29795328Y-35112636D01*
X29954581Y-34874296D01*
X30064277Y-34609466D01*
X30120200Y-34328325D01*
X30120200Y-34041675D01*
X30064277Y-33760534D01*
X29954581Y-33495704D01*
X29795328Y-33257364D01*
X29592636Y-33054672D01*
X29354296Y-32895419D01*
X29089466Y-32785723D01*
X28808325Y-32729800D01*
X28521675Y-32729800D01*
X28240534Y-32785723D01*
X27975704Y-32895419D01*
X27737364Y-33054672D01*
X27534672Y-33257364D01*
X27375419Y-33495704D01*
X27265723Y-33760534D01*
X27209800Y-34041675D01*
X20387000Y-34041675D01*
X20387000Y-31702650D01*
X33247424Y-31702650D01*
X33292634Y-32046380D01*
X33404034Y-32374685D01*
X33513286Y-32579079D01*
X33790469Y-32689926D01*
X34835395Y-31645000D01*
X33790469Y-30600074D01*
X33513286Y-30710921D01*
X33359911Y-31021840D01*
X33270140Y-31356705D01*
X33247424Y-31702650D01*
X20387000Y-31702650D01*
X20387000Y-30516386D01*
X20461469Y-29638747D01*
X20678615Y-28802120D01*
X21033619Y-28014041D01*
X21516330Y-27297044D01*
X21733886Y-27068987D01*
X32669800Y-27068987D01*
X32669800Y-27331013D01*
X32720919Y-27588005D01*
X32821192Y-27830086D01*
X32966766Y-28047953D01*
X33152047Y-28233234D01*
X33369914Y-28378808D01*
X33611995Y-28479081D01*
X33868987Y-28530200D01*
X34131013Y-28530200D01*
X34388005Y-28479081D01*
X34497391Y-28433772D01*
X36209300Y-30145681D01*
X36209300Y-30339110D01*
X36175291Y-30305101D01*
X36059925Y-30420467D01*
X35949079Y-30143286D01*
X35638160Y-29989911D01*
X35303295Y-29900140D01*
X34957350Y-29877424D01*
X34613620Y-29922634D01*
X34285315Y-30034034D01*
X34080921Y-30143286D01*
X33970074Y-30420469D01*
X35015000Y-31465395D01*
X35029143Y-31451253D01*
X35208748Y-31630858D01*
X35194605Y-31645000D01*
X35208748Y-31659143D01*
X35029143Y-31838748D01*
X35015000Y-31824605D01*
X33970074Y-32869531D01*
X34080921Y-33146714D01*
X34391840Y-33300089D01*
X34726705Y-33389860D01*
X35072650Y-33412576D01*
X35416380Y-33367366D01*
X35744685Y-33255966D01*
X35949079Y-33146714D01*
X36059925Y-32869533D01*
X36175291Y-32984899D01*
X36209301Y-32950889D01*
X36209301Y-33078041D01*
X36162817Y-33124525D01*
X36082905Y-33244121D01*
X36027861Y-33377009D01*
X35999800Y-33518082D01*
X35999800Y-33661918D01*
X36027861Y-33802991D01*
X36082905Y-33935879D01*
X36162817Y-34055475D01*
X36264525Y-34157183D01*
X36384121Y-34237095D01*
X36517009Y-34292139D01*
X36658082Y-34320200D01*
X36801918Y-34320200D01*
X36942991Y-34292139D01*
X37075879Y-34237095D01*
X37195475Y-34157183D01*
X37297183Y-34055475D01*
X37373559Y-33941170D01*
X42469900Y-33941170D01*
X42469900Y-34178830D01*
X42516265Y-34411923D01*
X42607213Y-34631492D01*
X42739250Y-34829099D01*
X42907301Y-34997150D01*
X43104908Y-35129187D01*
X43324477Y-35220135D01*
X43557570Y-35266500D01*
X43795230Y-35266500D01*
X44028323Y-35220135D01*
X44247892Y-35129187D01*
X44445499Y-34997150D01*
X44613550Y-34829099D01*
X44745587Y-34631492D01*
X44836535Y-34411923D01*
X44882900Y-34178830D01*
X44882900Y-33941170D01*
X44836535Y-33708077D01*
X44745587Y-33488508D01*
X44613550Y-33290901D01*
X44445499Y-33122850D01*
X44296648Y-33023391D01*
X44495767Y-32994796D01*
X44776527Y-32895802D01*
X44920346Y-32818929D01*
X45001163Y-32567169D01*
X44133600Y-31699605D01*
X43266037Y-32567169D01*
X43346854Y-32818929D01*
X43459738Y-32872960D01*
X43324477Y-32899865D01*
X43104908Y-32990813D01*
X42907301Y-33122850D01*
X42739250Y-33290901D01*
X42607213Y-33488508D01*
X42516265Y-33708077D01*
X42469900Y-33941170D01*
X37373559Y-33941170D01*
X37377095Y-33935879D01*
X37432139Y-33802991D01*
X37460200Y-33661918D01*
X37460200Y-33518082D01*
X37432139Y-33377009D01*
X37377095Y-33244121D01*
X37297183Y-33124525D01*
X37250700Y-33078042D01*
X37250700Y-31587491D01*
X42616487Y-31587491D01*
X42658804Y-31882167D01*
X42757798Y-32162927D01*
X42834671Y-32306746D01*
X43086431Y-32387563D01*
X43953995Y-31520000D01*
X44313205Y-31520000D01*
X45180769Y-32387563D01*
X45432529Y-32306746D01*
X45561057Y-32038221D01*
X45634729Y-31749781D01*
X45637263Y-31702650D01*
X52297424Y-31702650D01*
X52342634Y-32046380D01*
X52454034Y-32374685D01*
X52563286Y-32579079D01*
X52840469Y-32689926D01*
X53885395Y-31645000D01*
X54244605Y-31645000D01*
X55289531Y-32689926D01*
X55566714Y-32579079D01*
X55720089Y-32268160D01*
X55809860Y-31933295D01*
X55832576Y-31587350D01*
X55808089Y-31401170D01*
X57709900Y-31401170D01*
X57709900Y-31638830D01*
X57756265Y-31871923D01*
X57847213Y-32091492D01*
X57979250Y-32289099D01*
X58147301Y-32457150D01*
X58344908Y-32589187D01*
X58564477Y-32680135D01*
X58691139Y-32705330D01*
X58586854Y-32761071D01*
X58506037Y-33012831D01*
X59373600Y-33880395D01*
X60241163Y-33012831D01*
X60160346Y-32761071D01*
X59891821Y-32632543D01*
X59603381Y-32558871D01*
X59538485Y-32555382D01*
X59685499Y-32457150D01*
X59853550Y-32289099D01*
X59985587Y-32091492D01*
X60076535Y-31871923D01*
X60122900Y-31638830D01*
X60122900Y-31401170D01*
X60076535Y-31168077D01*
X59985587Y-30948508D01*
X59853550Y-30750901D01*
X59685499Y-30582850D01*
X59487892Y-30450813D01*
X59268323Y-30359865D01*
X59035230Y-30313500D01*
X58797570Y-30313500D01*
X58564477Y-30359865D01*
X58344908Y-30450813D01*
X58147301Y-30582850D01*
X57979250Y-30750901D01*
X57847213Y-30948508D01*
X57756265Y-31168077D01*
X57709900Y-31401170D01*
X55808089Y-31401170D01*
X55787366Y-31243620D01*
X55675966Y-30915315D01*
X55566714Y-30710921D01*
X55289531Y-30600074D01*
X54244605Y-31645000D01*
X53885395Y-31645000D01*
X52840469Y-30600074D01*
X52563286Y-30710921D01*
X52409911Y-31021840D01*
X52320140Y-31356705D01*
X52297424Y-31702650D01*
X45637263Y-31702650D01*
X45650713Y-31452509D01*
X45608396Y-31157833D01*
X45509402Y-30877073D01*
X45432529Y-30733254D01*
X45180769Y-30652437D01*
X44313205Y-31520000D01*
X43953995Y-31520000D01*
X43086431Y-30652437D01*
X42834671Y-30733254D01*
X42706143Y-31001779D01*
X42632471Y-31290219D01*
X42616487Y-31587491D01*
X37250700Y-31587491D01*
X37250700Y-29955574D01*
X37253219Y-29929999D01*
X37243165Y-29827924D01*
X37234133Y-29798150D01*
X37213391Y-29729773D01*
X37165041Y-29639315D01*
X37099972Y-29560028D01*
X37080103Y-29543722D01*
X36397551Y-28861170D01*
X42469900Y-28861170D01*
X42469900Y-29098830D01*
X42516265Y-29331923D01*
X42607213Y-29551492D01*
X42739250Y-29749099D01*
X42907301Y-29917150D01*
X43104908Y-30049187D01*
X43324477Y-30140135D01*
X43451139Y-30165330D01*
X43346854Y-30221071D01*
X43266037Y-30472831D01*
X44133600Y-31340395D01*
X45001163Y-30472831D01*
X44984355Y-30420469D01*
X53020074Y-30420469D01*
X54065000Y-31465395D01*
X55109926Y-30420469D01*
X54999079Y-30143286D01*
X54688160Y-29989911D01*
X54353295Y-29900140D01*
X54007350Y-29877424D01*
X53663620Y-29922634D01*
X53335315Y-30034034D01*
X53130921Y-30143286D01*
X53020074Y-30420469D01*
X44984355Y-30420469D01*
X44920346Y-30221071D01*
X44651821Y-30092543D01*
X44363381Y-30018871D01*
X44298485Y-30015382D01*
X44445499Y-29917150D01*
X44613550Y-29749099D01*
X44745587Y-29551492D01*
X44836535Y-29331923D01*
X44882900Y-29098830D01*
X44882900Y-28861170D01*
X44836535Y-28628077D01*
X44745587Y-28408508D01*
X44613550Y-28210901D01*
X44506349Y-28103700D01*
X58165503Y-28103700D01*
X58165503Y-29856300D01*
X58171878Y-29921030D01*
X58190760Y-29983273D01*
X58221421Y-30040637D01*
X58262684Y-30090916D01*
X58312963Y-30132179D01*
X58370327Y-30162840D01*
X58432570Y-30181722D01*
X58497300Y-30188097D01*
X60249900Y-30188097D01*
X60314630Y-30181722D01*
X60376873Y-30162840D01*
X60434237Y-30132179D01*
X60484516Y-30090916D01*
X60525779Y-30040637D01*
X60556440Y-29983273D01*
X60575322Y-29921030D01*
X60581697Y-29856300D01*
X60581697Y-29480000D01*
X63311928Y-29480000D01*
X63324188Y-29604482D01*
X63360498Y-29724180D01*
X63419463Y-29834494D01*
X63498815Y-29931185D01*
X63595506Y-30010537D01*
X63646772Y-30037940D01*
X63631813Y-30087253D01*
X63615784Y-30250000D01*
X63631813Y-30412747D01*
X63679285Y-30569241D01*
X63756375Y-30713466D01*
X63860120Y-30839880D01*
X63915099Y-30885000D01*
X63860120Y-30930120D01*
X63756375Y-31056534D01*
X63679285Y-31200759D01*
X63631813Y-31357253D01*
X63615784Y-31520000D01*
X63631813Y-31682747D01*
X63679285Y-31839241D01*
X63756375Y-31983466D01*
X63860120Y-32109880D01*
X63986534Y-32213625D01*
X64130759Y-32290715D01*
X64287253Y-32338187D01*
X64409224Y-32350200D01*
X64490776Y-32350200D01*
X64492806Y-32350000D01*
X67818203Y-32350000D01*
X67818203Y-34350000D01*
X67824578Y-34414730D01*
X67843460Y-34476973D01*
X67874121Y-34534337D01*
X67915384Y-34584616D01*
X67965663Y-34625879D01*
X68023027Y-34656540D01*
X68085270Y-34675422D01*
X68150000Y-34681797D01*
X68206068Y-34681797D01*
X68194192Y-34714587D01*
X69150000Y-35670395D01*
X70105808Y-34714587D01*
X70093932Y-34681797D01*
X70150000Y-34681797D01*
X70214730Y-34675422D01*
X70276973Y-34656540D01*
X70334337Y-34625879D01*
X70384616Y-34584616D01*
X70425879Y-34534337D01*
X70452028Y-34485413D01*
X82694192Y-34485413D01*
X82789956Y-34749814D01*
X83079571Y-34890704D01*
X83391108Y-34972384D01*
X83712595Y-34991718D01*
X84031675Y-34947961D01*
X84336088Y-34842795D01*
X84510044Y-34749814D01*
X84605808Y-34485413D01*
X83650000Y-33529605D01*
X82694192Y-34485413D01*
X70452028Y-34485413D01*
X70456540Y-34476973D01*
X70475422Y-34414730D01*
X70481797Y-34350000D01*
X70481797Y-33412595D01*
X82008282Y-33412595D01*
X82052039Y-33731675D01*
X82157205Y-34036088D01*
X82250186Y-34210044D01*
X82514587Y-34305808D01*
X83470395Y-33350000D01*
X83829605Y-33350000D01*
X84785413Y-34305808D01*
X85049814Y-34210044D01*
X85190704Y-33920429D01*
X85272384Y-33608892D01*
X85291718Y-33287405D01*
X85247961Y-32968325D01*
X85142795Y-32663912D01*
X85049814Y-32489956D01*
X84785413Y-32394192D01*
X83829605Y-33350000D01*
X83470395Y-33350000D01*
X82514587Y-32394192D01*
X82250186Y-32489956D01*
X82109296Y-32779571D01*
X82027616Y-33091108D01*
X82008282Y-33412595D01*
X70481797Y-33412595D01*
X70481797Y-32350000D01*
X70475422Y-32285270D01*
X70456540Y-32223027D01*
X70452029Y-32214587D01*
X82694192Y-32214587D01*
X83650000Y-33170395D01*
X84605808Y-32214587D01*
X84510044Y-31950186D01*
X84220429Y-31809296D01*
X83908892Y-31727616D01*
X83587405Y-31708282D01*
X83268325Y-31752039D01*
X82963912Y-31857205D01*
X82789956Y-31950186D01*
X82694192Y-32214587D01*
X70452029Y-32214587D01*
X70425879Y-32165663D01*
X70384616Y-32115384D01*
X70334337Y-32074121D01*
X70276973Y-32043460D01*
X70214730Y-32024578D01*
X70150000Y-32018203D01*
X68150000Y-32018203D01*
X68085270Y-32024578D01*
X68023027Y-32043460D01*
X67965663Y-32074121D01*
X67915384Y-32115384D01*
X67874121Y-32165663D01*
X67843460Y-32223027D01*
X67824578Y-32285270D01*
X67818203Y-32350000D01*
X64492806Y-32350000D01*
X64612747Y-32338187D01*
X64769241Y-32290715D01*
X64913466Y-32213625D01*
X65039880Y-32109880D01*
X65143625Y-31983466D01*
X65220715Y-31839241D01*
X65268187Y-31682747D01*
X65284216Y-31520000D01*
X65268187Y-31357253D01*
X65220715Y-31200759D01*
X65143625Y-31056534D01*
X65039880Y-30930120D01*
X64984901Y-30885000D01*
X65039880Y-30839880D01*
X65143625Y-30713466D01*
X65220715Y-30569241D01*
X65268187Y-30412747D01*
X65284216Y-30250000D01*
X65268187Y-30087253D01*
X65253228Y-30037940D01*
X65304494Y-30010537D01*
X65401185Y-29931185D01*
X65480537Y-29834494D01*
X65539502Y-29724180D01*
X65575812Y-29604482D01*
X65588072Y-29480000D01*
X65585000Y-29265750D01*
X65569250Y-29250000D01*
X74718203Y-29250000D01*
X74718203Y-31250000D01*
X74724578Y-31314730D01*
X74743460Y-31376973D01*
X74774121Y-31434337D01*
X74815384Y-31484616D01*
X74865663Y-31525879D01*
X74923027Y-31556540D01*
X74985270Y-31575422D01*
X75050000Y-31581797D01*
X78250000Y-31581797D01*
X78314730Y-31575422D01*
X78376973Y-31556540D01*
X78434337Y-31525879D01*
X78484616Y-31484616D01*
X78525879Y-31434337D01*
X78556540Y-31376973D01*
X78575422Y-31314730D01*
X78581797Y-31250000D01*
X78581797Y-29250000D01*
X78575422Y-29185270D01*
X78556540Y-29123027D01*
X78525879Y-29065663D01*
X78484616Y-29015384D01*
X78434337Y-28974121D01*
X78376973Y-28943460D01*
X78314730Y-28924578D01*
X78250000Y-28918203D01*
X75050000Y-28918203D01*
X74985270Y-28924578D01*
X74923027Y-28943460D01*
X74865663Y-28974121D01*
X74815384Y-29015384D01*
X74774121Y-29065663D01*
X74743460Y-29123027D01*
X74724578Y-29185270D01*
X74718203Y-29250000D01*
X65569250Y-29250000D01*
X65426250Y-29107000D01*
X64577000Y-29107000D01*
X64577000Y-29127000D01*
X64323000Y-29127000D01*
X64323000Y-29107000D01*
X63473750Y-29107000D01*
X63315000Y-29265750D01*
X63311928Y-29480000D01*
X60581697Y-29480000D01*
X60581697Y-28480000D01*
X63311928Y-28480000D01*
X63315000Y-28694250D01*
X63473750Y-28853000D01*
X64323000Y-28853000D01*
X64323000Y-28003750D01*
X64577000Y-28003750D01*
X64577000Y-28853000D01*
X65426250Y-28853000D01*
X65585000Y-28694250D01*
X65588072Y-28480000D01*
X65575812Y-28355518D01*
X65539502Y-28235820D01*
X65480537Y-28125506D01*
X65401185Y-28028815D01*
X65304494Y-27949463D01*
X65194180Y-27890498D01*
X65074482Y-27854188D01*
X64950000Y-27841928D01*
X64735750Y-27845000D01*
X64577000Y-28003750D01*
X64323000Y-28003750D01*
X64164250Y-27845000D01*
X63950000Y-27841928D01*
X63825518Y-27854188D01*
X63705820Y-27890498D01*
X63595506Y-27949463D01*
X63498815Y-28028815D01*
X63419463Y-28125506D01*
X63360498Y-28235820D01*
X63324188Y-28355518D01*
X63311928Y-28480000D01*
X60581697Y-28480000D01*
X60581697Y-28103700D01*
X60575322Y-28038970D01*
X60556440Y-27976727D01*
X60525779Y-27919363D01*
X60484516Y-27869084D01*
X60434237Y-27827821D01*
X60376873Y-27797160D01*
X60314630Y-27778278D01*
X60249900Y-27771903D01*
X58497300Y-27771903D01*
X58432570Y-27778278D01*
X58370327Y-27797160D01*
X58312963Y-27827821D01*
X58262684Y-27869084D01*
X58221421Y-27919363D01*
X58190760Y-27976727D01*
X58171878Y-28038970D01*
X58165503Y-28103700D01*
X44506349Y-28103700D01*
X44445499Y-28042850D01*
X44247892Y-27910813D01*
X44028323Y-27819865D01*
X43795230Y-27773500D01*
X43557570Y-27773500D01*
X43324477Y-27819865D01*
X43104908Y-27910813D01*
X42907301Y-28042850D01*
X42739250Y-28210901D01*
X42607213Y-28408508D01*
X42516265Y-28628077D01*
X42469900Y-28861170D01*
X36397551Y-28861170D01*
X35871794Y-28335413D01*
X39544192Y-28335413D01*
X39639956Y-28599814D01*
X39929571Y-28740704D01*
X40241108Y-28822384D01*
X40562595Y-28841718D01*
X40881675Y-28797961D01*
X41186088Y-28692795D01*
X41360044Y-28599814D01*
X41455808Y-28335413D01*
X40500000Y-27379605D01*
X39544192Y-28335413D01*
X35871794Y-28335413D01*
X35233772Y-27697391D01*
X35279081Y-27588005D01*
X35330200Y-27331013D01*
X35330200Y-27262595D01*
X38858282Y-27262595D01*
X38902039Y-27581675D01*
X39007205Y-27886088D01*
X39100186Y-28060044D01*
X39364587Y-28155808D01*
X40320395Y-27200000D01*
X40679605Y-27200000D01*
X41635413Y-28155808D01*
X41899814Y-28060044D01*
X42040704Y-27770429D01*
X42122384Y-27458892D01*
X42141718Y-27137405D01*
X42097961Y-26818325D01*
X41992795Y-26513912D01*
X41899814Y-26339956D01*
X41635413Y-26244192D01*
X40679605Y-27200000D01*
X40320395Y-27200000D01*
X39364587Y-26244192D01*
X39100186Y-26339956D01*
X38959296Y-26629571D01*
X38877616Y-26941108D01*
X38858282Y-27262595D01*
X35330200Y-27262595D01*
X35330200Y-27068987D01*
X35279081Y-26811995D01*
X35178808Y-26569914D01*
X35033234Y-26352047D01*
X34847953Y-26166766D01*
X34695032Y-26064587D01*
X39544192Y-26064587D01*
X40500000Y-27020395D01*
X41455808Y-26064587D01*
X41360044Y-25800186D01*
X41070429Y-25659296D01*
X40758892Y-25577616D01*
X40437405Y-25558282D01*
X40118325Y-25602039D01*
X39813912Y-25707205D01*
X39639956Y-25800186D01*
X39544192Y-26064587D01*
X34695032Y-26064587D01*
X34630086Y-26021192D01*
X34388005Y-25920919D01*
X34131013Y-25869800D01*
X33868987Y-25869800D01*
X33611995Y-25920919D01*
X33369914Y-26021192D01*
X33152047Y-26166766D01*
X32966766Y-26352047D01*
X32821192Y-26569914D01*
X32720919Y-26811995D01*
X32669800Y-27068987D01*
X21733886Y-27068987D01*
X22112946Y-26671631D01*
X22806406Y-26155681D01*
X23576887Y-25763949D01*
X24402359Y-25507632D01*
X25270982Y-25392505D01*
X25504578Y-25387000D01*
X81233614Y-25387000D01*
X82111253Y-25461469D01*
M02*
